<?xml version="1.0" encoding="utf-8"?>
<!-- Generator: Adobe Illustrator 22.0.0, SVG Export Plug-In . SVG Version: 6.00 Build 0)  -->
<svg version="1.1" id="Layer_1" xmlns="http://www.w3.org/2000/svg" xmlns:xlink="http://www.w3.org/1999/xlink" x="0px" y="0px"
	 viewBox="0 0 720 720" style="enable-background:new 0 0 720 720;" xml:space="preserve">
<style type="text/css">
	.st0{fill:#281E33;}
	.st1{fill:#E8811A;}
	.st2{display:none;}
</style>
<g id="MojiraBG">
	<rect x="0" y="0" class="st0" width="720" height="720"/>
</g>
<circle class="st1" cx="461" cy="280.6" r="73.4"/>
<g id="MojangStudios" class="st2">
</g>
<path class="st1" d="M368.7,245.1H354c-9.9,0-17.9-8.1-17.9-17.9v-14.7c0-1.8-1.5-3.3-3.3-3.3H214.1c-1.8,0-3.3,1.5-3.3,3.3v136.4
	c0,1.8,1.5,3.3,3.3,3.3h29.3c1.8,0,3.3-1.5,3.3-3.3v-94.8c0-4.8,4-8.9,8.9-8.9h8.9c4.8,0,8.9,4,8.9,8.9v58.8c0,1.8,1.5,3.3,3.3,3.3
	H306c1.8,0,3.3-1.5,3.3-3.3v-59c0-4.8,4-8.9,8.9-8.9h8.9c4.8,0,8.9,4,8.9,8.9v94.8c0,1.8,1.5,3.3,3.3,3.3H369c1.8,0,3.3-1.5,3.3-3.3
	V248.3C372,246.6,370.5,245.1,368.7,245.1z"/>
<path class="st1" d="M224.9,369.4H124.3c-1.8,0-3.3,1.5-3.3,3.3V402c0,1.8,1.5,3.3,3.3,3.3h67.8v62.1c0,4.8-4,8.9-8.9,8.9h-8.8
	h-17.9l0,0l0,0c-18.6,0-33.8-14.3-35.5-32.3c0-1.8-1.5-3.3-3.3-3.3H88.3c-1.8,0-3.3,1.5-3.3,3.3c1.7,37.9,33,68.1,71.4,68.1h32.3
	c1.8,0,3.3-1.5,3.3-3.3v-14.7c0-9.9,8.1-17.9,17.9-17.9h14.7c1.8,0,3.3-1.5,3.3-3.3v-71.1v-29.3
	C228.2,370.9,226.7,369.4,224.9,369.4z"/>
<path class="st1" d="M599,440.8L599,440.8L599,440.8v68.3c0,1.8,1.5,3.3,3.3,3.3h29.3c1.8,0,3.3-1.5,3.3-3.3v-68.3l0,0l0,0
	c0-39.4-32-71.4-71.4-71.4c-38.6,0-70.1,30.7-71.4,68.9c0.3,1.5,1.7,2.5,3.1,2.5h23.5c4.3,0,8,3.1,8.8,7.1v21.2
	c-0.8,4.1-4.5,7.1-8.8,7.1h-23.5c-1.8,0-3.3,1.5-3.3,3.3v29.3c0,1.8,1.5,3.3,3.3,3.3h65l0,0c1.8,0,3.3-1.5,3.3-3.3v-29.3
	c0,0,0,0,0-0.2V444c0-1.8-1.5-3.3-3.3-3.3h-20.5c-4.8,0-8.9-4-8.9-8.9c0-10.8,13.1-26.7,32.6-26.7C583,405,599,421.1,599,440.8z"/>
<path class="st1" d="M440.8,414.2v17.1h5.1v-2.7h5.3v2.7h4.3v-6h13.9v-5.1h7.3v-11.6c0-1.8-1.5-3.3-3.3-3.3h-14.7
	c-9.9,0-17.9-8.1-17.9-17.9v-14.7c0-1.8-1.5-3.3-3.3-3.3H336.9c-1.8,0-3.3,1.5-3.3,3.3l0,0v136.4c0,1.8,1.5,3.3,3.3,3.3h29.3
	c1.8,0,3.3-1.5,3.3-3.3v-95c0-4.8,4-8.9,8.9-8.9h53.4C436.8,405.2,440.8,409.3,440.8,414.2z"/>
<path class="st1" d="M370.4,462l2.2,1.5l-3,4.1l63.6,44.6c1.5,1,3.5,0.7,4.5-0.8l16.9-24c1-1.5,0.7-3.5-0.8-4.5l-72.7-51l-4.1,6
	l4.3,3l-8,11.4l5,3.5l-2.5,3.5l-2.2-1.5L370.4,462z"/>
<path class="st1" d="M279.7,398.1v5.5h8.8v-8.8h9.6v-15.9h-5.8v-3H288v-3.3h-3.3v-3.3c-1.5,0.3-3,0.7-4.5,0.7h-14.7
	c-1.8,0-3.3,1.5-3.3,3.3v21.5h7.6v11.6h5v-8.3L279.7,398.1L279.7,398.1z"/>
<path class="st1" d="M299.8,429.2h-10.1V420H281v-10.8h-6.3v7.1h-8.5c-2.7,7.5-4.1,15.6-4.1,24v68.1c0,1.8,1.5,3.3,3.3,3.3h29.3
	c1.8,0,3.3-1.5,3.3-3.3v-68.3l0,0C297.9,436.4,298.6,432.7,299.8,429.2z"/>
<path class="st0" d="M405.1,319.2c-2.3,0.1-14.7-20.6-9-50.3c0,0,5.9,29,9.5,31.2c0.5,0.3,2.1-17.4,5.9-16c5.2,1.9,9,21,11.8,21
	c2.8,0,13.6-12.9,17-11.8c4,1.2,8,21.2,12,21.2s23.6-12.5,27.8-11.9c5.8,0.9-12.6,22.2-2.6,17.7c7.6-3.5,29.7-12.9,36.1-23.2
	c0,0-6.2,24.3-39.7,42.7c-5.9,3.2-9.8-14.2-12.3-14.4c-3.5-0.3-11.9,9.2-15.6,9c-4.4-0.2-6.9-12.8-10.5-12.8
	c-3.6,0-8.4,5.6-12.1,4.8c-3-0.7-6.5-15.1-9.3-15.1C411.3,311.2,408.5,319,405.1,319.2z"/>
<path d="M251,369.8c-0.4-4.9-16.3-8-40.1-8.7l-3.9-7c3.5-27.2-41.5-50-41.5-50c-7.1-18.4-32.5-15.8-32.5-15.8
	c-25.2-17.8-71.1,1.3-71.1,1.3c50.7,3.6,66.9,40.7,66.9,40.7c-4.2,6.3,2.9,9.6,2.9,9.6l-19.2,28.8c-22.8,4.3-37.5,9.6-37.2,14.4
	c0.6,7.7,40.4,11,88.9,7.4C212.7,386.8,251.6,377.5,251,369.8z"/>
<path class="st0" d="M420.4,256c0,0-23.7-50-11.3,6.8C414.7,288.5,456.8,252.5,420.4,256z"/>
<path class="st0" d="M485.7,275.2c0,0,60.9-28.1,13.8,15.8C475.5,313.3,446.4,252.3,485.7,275.2z"/>
<path class="st0" d="M443.5,284.3c0,0,24.6,30.8,7.8-10C445.6,260.3,416.2,298.7,443.5,284.3z"/>
<path class="st1" d="M195.1,340.5l-9.5,1.9c-2.1,0.4-3.3,3.5-2.6,6.9l3.1,15.3c0.7,3.4,3,5.8,5.1,5.4l9.5-1.9
	c2.1-0.4,3.3-3.5,2.6-6.9l-3.1-15.3C199.5,342.5,197.2,340.1,195.1,340.5z M199.9,361.3c0.2,0.8-0.1,1.6-0.6,1.7l-8.8,1.8
	c-0.5,0.1-1.1-0.5-1.3-1.4l-2.9-14.3c-0.2-0.8,0.1-1.6,0.6-1.7l8.8-1.8c0.5-0.1,1.1,0.5,1.3,1.4L199.9,361.3z"/>
</svg>
