<?xml version="1.0" encoding="utf-8"?>
<!-- Generator: Adobe Illustrator 22.0.0, SVG Export Plug-In . SVG Version: 6.00 Build 0)  -->
<svg version="1.1" id="Layer_1" xmlns="http://www.w3.org/2000/svg" xmlns:xlink="http://www.w3.org/1999/xlink" x="0px" y="0px"
	 viewBox="0 0 720 720" style="enable-background:new 0 0 720 720;" xml:space="preserve">
<style type="text/css">
	.st0{fill:#2ECC72;}
	.st1{display:none;}
	.st2{fill:#FFFFFF;}
</style>
<g id="MojiraBG">
	<rect y="0" class="st0" width="720" height="720"/>
</g>
<g id="MojangStudios" class="st1">
</g>
<path class="st2" d="M368.7,245.1H354c-9.9,0-17.9-8.1-17.9-17.9v-14.7c0-1.8-1.5-3.3-3.3-3.3H214.1c-1.8,0-3.3,1.5-3.3,3.3v136.4
	c0,1.8,1.5,3.3,3.3,3.3h29.3c1.8,0,3.3-1.5,3.3-3.3v-94.8c0-4.8,4-8.9,8.9-8.9h8.9c4.8,0,8.9,4,8.9,8.9v58.8c0,1.8,1.5,3.3,3.3,3.3
	H306c1.8,0,3.3-1.5,3.3-3.3v-59c0-4.8,4-8.9,8.9-8.9h8.9c4.8,0,8.9,4,8.9,8.9v94.8c0,1.8,1.5,3.3,3.3,3.3H369c1.8,0,3.3-1.5,3.3-3.3
	V248.3C372,246.6,370.5,245.1,368.7,245.1z"/>
<path class="st2" d="M461,207.2c-40.6,0-73.4,32.8-73.4,73.4S420.4,354,461,354s73.4-32.8,73.4-73.4S501.4,207.2,461,207.2z
	 M461,316.2c-19.7,0-35.6-15.9-35.6-35.6S441.3,245,461,245s35.6,15.9,35.6,35.6C496.5,300.3,480.6,316.2,461,316.2z"/>
<path class="st2" d="M219.5,369.4H118.9c-1.8,0-3.3,1.5-3.3,3.3V402c0,1.8,1.5,3.3,3.3,3.3h67.8v62.1c0,4.8-4,8.9-8.9,8.9H169h-17.9
	l0,0l0,0c-18.6,0-33.8-14.3-35.5-32.3c0-1.8-1.5-3.3-3.3-3.3H82.9c-1.8,0-3.3,1.5-3.3,3.3c1.7,37.9,33,68.1,71.4,68.1h32.3
	c1.8,0,3.3-1.5,3.3-3.3v-14.7c0-9.9,8.1-17.9,17.9-17.9h14.7c1.8,0,3.3-1.5,3.3-3.3v-71.1v-29.3
	C222.8,370.9,221.3,369.4,219.5,369.4z"/>
<path class="st2" d="M359.8,440.8H332c-4.2,0-7.7-4-7.9-8.4l0-19.1c0-4.2,4.3-7.9,8.8-7.9h26.7c18.6,0,33.8,14.3,35.5,32.3
	c0,1.8,1.5,3.3,3.3,3.3h29.4c1.8,0,3.3-1.5,3.3-3.3c-1.7-37.9-33-68.1-71.4-68.1h-68.2c-1.8,0-3.3,1.5-3.3,3.3v136
	c0,1.8,1.5,3.3,3.3,3.3h29.3c1.8,0,3.3-1.5,3.3-3.3v-24.3c0-4.4,4.3-7.9,8.8-7.9h26.7c18.6,0,33.8,14.3,35.5,32.3
	c0,1.8,1.5,3.3,3.3,3.3h29.4c1.8,0,3.3-1.5,3.3-3.3C429.5,471,398.2,440.8,359.8,440.8z"/>
<path class="st2" d="M270.1,369.6h-29.3c-1.8,0-3.3,1.5-3.3,3.3V509c0,1.8,1.5,3.3,3.3,3.3h29.3c1.8,0,3.3-1.5,3.3-3.3V372.9
	C273.4,371.1,271.9,369.6,270.1,369.6z"/>
<path class="st2" d="M637.1,369.6h-29.3c-1.8,0-3.3,1.5-3.3,3.3V509c0,1.8,1.5,3.3,3.3,3.3h29.3c1.8,0,3.3-1.5,3.3-3.3V372.9
	C640.4,371.1,638.9,369.6,637.1,369.6z"/>
<path class="st2" d="M585.7,405.5H571c-9.9,0-17.9-8.1-17.9-17.9v-14.7c0-1.8-1.5-3.3-3.3-3.3h-32.3c-39.4,0-71.4,32-71.4,71.4v68.2
	c0,1.8,1.5,3.3,3.3,3.3h29.4c1.8,0,3.3-1.5,3.3-3.3V441h0c0-19.6,15.9-35.5,35.5-35.5v0h26.7c4.9,0,8.9,4,8.9,8.9v17.8
	c0,4.9-4,8.9-8.9,8.9h-39.5c-1.8,0-3.3,1.5-3.3,3.3v29.4c0,1.8,1.5,3.3,3.3,3.3h39.5c4.9,0,8.9,4,8.9,8.9v2.9v20.5
	c0,1.8,1.5,3.3,3.3,3.3h29.4c1.8,0,3.3-1.5,3.3-3.3v-35.5v-64.9C588.9,406.9,587.5,405.5,585.7,405.5z"/>
</svg>
