<?xml version="1.0" encoding="utf-8"?>
<!-- Generator: Adobe Illustrator 25.4.0, SVG Export Plug-In . SVG Version: 6.00 Build 0)  -->
<svg version="1.1" id="Layer_1" xmlns="http://www.w3.org/2000/svg" xmlns:xlink="http://www.w3.org/1999/xlink" x="0px" y="0px"
	 viewBox="0 0 720 720" style="enable-background:new 0 0 720 720;" xml:space="preserve">
<style type="text/css">
	.st0{fill:#6666CC;}
	.st1{fill:#FFFFFF;}
	.st2{fill:#D8A023;}
	.st3{fill:#C97D17;}
	.st4{fill:#EDCB3A;}
	.st5{fill:#FFF471;}
</style>
<polygon class="st0" points="48.2,180 360,0 671.8,180 671.8,540 360,720 48.2,540 "/>
<path class="st1" d="M360,13.4L59.9,186.7l0,346.6L360,706.6l300.1-173.3l0-346.6L360,13.4z M648.5,526.6L360,693.1L71.5,526.6
	V193.4L360,26.9l288.5,166.6L648.5,526.6z"/>
<g>
	<path class="st1" d="M368.7,245.1H354c-9.9,0-17.9-8.1-17.9-17.9v-14.7c0-1.8-1.5-3.3-3.3-3.3H214.1c-1.8,0-3.3,1.5-3.3,3.3v136.4
		c0,1.8,1.5,3.3,3.3,3.3h29.3c1.8,0,3.3-1.5,3.3-3.3v-94.8c0-4.8,4-8.9,8.9-8.9h8.9c4.8,0,8.9,4,8.9,8.9v58.8c0,1.8,1.5,3.3,3.3,3.3
		H306c1.8,0,3.3-1.5,3.3-3.3v-59c0-4.8,4-8.9,8.9-8.9h8.9c4.8,0,8.9,4,8.9,8.9v94.8c0,1.8,1.5,3.3,3.3,3.3H369
		c1.8,0,3.3-1.5,3.3-3.3V248.3C372,246.6,370.5,245.1,368.7,245.1z"/>
	<path class="st1" d="M224.9,369.4H124.3c-1.8,0-3.3,1.5-3.3,3.3V402c0,1.8,1.5,3.3,3.3,3.3h67.8v62.1c0,4.8-4,8.9-8.9,8.9h-8.8
		h-17.9l0,0l0,0c-18.6,0-33.8-14.3-35.5-32.3c0-1.8-1.5-3.3-3.3-3.3H88.3c-1.8,0-3.3,1.5-3.3,3.3c1.7,37.9,33,68.1,71.4,68.1h32.3
		c1.8,0,3.3-1.5,3.3-3.3v-14.7c0-9.9,8.1-17.9,17.9-17.9h14.7c1.8,0,3.3-1.5,3.3-3.3v-71.1v-29.3
		C228.2,370.9,226.7,369.4,224.9,369.4z"/>
	<path class="st1" d="M599,440.8L599,440.8L599,440.8v68.3c0,1.8,1.5,3.3,3.3,3.3h29.3c1.8,0,3.3-1.5,3.3-3.3v-68.3l0,0l0,0
		c0-39.4-32-71.4-71.4-71.4c-38.6,0-70.1,30.7-71.4,68.9c0.3,1.5,1.7,2.5,3.1,2.5h23.5c4.3,0,8,3.1,8.8,7.1v21.2
		c-0.8,4.1-4.5,7.1-8.8,7.1h-23.5c-1.8,0-3.3,1.5-3.3,3.3v29.3c0,1.8,1.5,3.3,3.3,3.3h65l0,0c1.8,0,3.3-1.5,3.3-3.3v-29.3
		c0,0,0,0,0-0.2V444c0-1.8-1.5-3.3-3.3-3.3h-20.5c-4.8,0-8.9-4-8.9-8.9c0-10.8,13.1-26.7,32.6-26.7C583,405,599,421.1,599,440.8z"/>
	<path class="st1" d="M440.8,414.2v17.1h5.1v-2.7h5.3v2.7h4.3v-6h13.9v-5.1h7.3v-11.6c0-1.8-1.5-3.3-3.3-3.3h-14.7
		c-9.9,0-17.9-8.1-17.9-17.9v-14.7c0-1.8-1.5-3.3-3.3-3.3H336.9c-1.8,0-3.3,1.5-3.3,3.3l0,0v136.4c0,1.8,1.5,3.3,3.3,3.3h29.3
		c1.8,0,3.3-1.5,3.3-3.3v-95c0-4.8,4-8.9,8.9-8.9h53.4C436.8,405.2,440.8,409.3,440.8,414.2z"/>
	<path class="st1" d="M370.4,462l2.2,1.5l-3,4.1l63.6,44.6c1.5,1,3.5,0.7,4.5-0.8l16.9-24c1-1.5,0.7-3.5-0.8-4.5l-72.7-51l-4.1,6
		l4.3,3l-8,11.4l5,3.5l-2.5,3.5l-2.2-1.5L370.4,462z"/>
	<path class="st1" d="M279.7,398.1v5.5h8.8v-8.8h9.6v-15.9h-5.8v-3H288v-3.3h-3.3v-3.3c-1.5,0.3-3,0.7-4.5,0.7h-14.7
		c-1.8,0-3.3,1.5-3.3,3.3v21.5h7.6v11.6h5v-8.3L279.7,398.1L279.7,398.1z"/>
	<path class="st1" d="M299.8,429.2h-10.1V420H281v-10.8h-6.3v7.1h-8.5c-2.7,7.5-4.1,15.6-4.1,24v68.1c0,1.8,1.5,3.3,3.3,3.3h29.3
		c1.8,0,3.3-1.5,3.3-3.3v-68.3l0,0C297.9,436.4,298.6,432.7,299.8,429.2z"/>
</g>
<g>
	<path class="st2" d="M533.7,275.9c-4.9-33.5-35.6-59.4-72.7-59.4s-67.9,25.8-72.7,59.4h-0.7v9.4c0,37.9,32.9,68.7,73.4,68.7
		s73.4-30.8,73.4-68.7v-9.4H533.7z"/>
	<path class="st3" d="M461,230.6c30.6,0,55.7,22,58.2,50l0,0c0.1-1.5,0.2-3.1,0.2-4.7c0-30.2-26.2-54.7-58.4-54.7
		s-58.4,24.5-58.4,54.7c0,1.6,0.1,3.1,0.2,4.7C405.3,252.6,430.4,230.6,461,230.6z"/>
	<g>
		<path class="st3" d="M512.5,284.5c-3.4,3.1-21.6,5.5-16,15.2c1.7,2.9-1.5,4.1-6.8,4.3c2.5-0.1,4.9-0.3,7.2-0.8V302
			c3.7-4.2,13.2-6,15.5-8.1V284.5L512.5,284.5z"/>
		<path class="st3" d="M480.6,303.7c-11.1-0.9-23.7-3.4-23.7-3.4l5.1-5.8v-0.1v-2l0,0c0,2.6-1.9,4.9-4.6,5.2
			c-2.4,0.3-11.6,0-15.1-1.7c4.5,2.8,10.5,4.1,17.7,5.3C466,302.1,473.7,303.2,480.6,303.7z"/>
		<path class="st3" d="M509.3,274.7c-2.3,1.8-6.4,4.8-7.6,5.9l8.2,3c0.6-0.5,1-0.9,1-1v-9.4l0,0
			C510.9,273.3,510.2,273.9,509.3,274.7z"/>
		<path class="st3" d="M441,294.5v0.6c0.1,0.1,0.3,0.2,0.4,0.3c-0.2-0.2-0.4-0.5-0.4-0.7C441,294.6,441,294.6,441,294.5L441,294.5z"
			/>
		<path class="st3" d="M433.1,281.1c2.3-10.4,12.3-17.2,24.6-17.6c5.2,0,9.5,1.9,13.4,4.2v-9.4c-3.8-2.3-8.2-4.2-13.4-4.2
			C442,254.6,430.1,265.5,433.1,281.1z"/>
		<path class="st3" d="M505,300.6c0,0-0.9,13.3-11.8,13.3h-65.3C417,313.9,417,303,417,303v9.4c0,0,0,10.9,10.9,10.9h65.3
			c10.9,0,11.8-13.3,11.8-13.3V300.6L505,300.6L505,300.6z"/>
	</g>
	<path class="st4" d="M461,207.2c-40.5,0-73.4,30.8-73.4,68.7s32.9,68.7,73.4,68.7s73.4-30.8,73.4-68.7S501.5,207.2,461,207.2z
		 M461,330.6c-32.3,0-58.4-24.5-58.4-54.7s26.2-54.7,58.4-54.7s58.4,24.5,58.4,54.7S493.3,330.6,461,330.6z"/>
	<g>
		<path class="st5" d="M464.7,334.9c32.3,0,58.4-24.5,58.4-54.7c0-13.9-5.6-26.7-14.7-36.3c7,9,11.1,20.1,11.1,32.1
			c0,30.2-26.2,54.7-58.4,54.7c-17.4,0-33-7.1-43.7-18.4C427.9,326,445.2,334.9,464.7,334.9z"/>
		<path class="st5" d="M405.6,321c-9-11.4-14.4-25.5-14.4-40.8c0-37.9,32.9-68.7,73.4-68.7c22.1,0,41.9,9.2,55.4,23.6
			c-13.4-16.9-34.8-27.9-59-27.9c-40.5,0-73.4,30.8-73.4,68.7C387.6,293.2,394.4,309,405.6,321z"/>
	</g>
	<g>
		<path class="st5" d="M509.1,274.8C509.1,274.8,509.1,274.8,509.1,274.8C509.1,274.8,509.1,274.8,509.1,274.8z"/>
		<path class="st5" d="M509.2,274.7L509.2,274.7C509.1,274.8,509.1,274.8,509.2,274.7z"/>
		<path class="st5" d="M509.2,274.7C509.2,274.7,509.2,274.7,509.2,274.7C509.2,274.7,509.2,274.7,509.2,274.7z"/>
		<path class="st5" d="M509.3,274.6C509.2,274.7,509.2,274.7,509.3,274.6C509.2,274.7,509.2,274.7,509.3,274.6z"/>
		<path class="st5" d="M510.9,273.2l-2.3-1l-2.2,2.3l-2.4-1.9l-1.9,1.9l-2-1.2l-2.2,2.7l-3.9-0.6c-1.9,1.9-4,3.6-5.9,5.1
			c-6.8,5.6-13.6,8.7-23.2,10.8l-8.1,9.1c0,0,45.1,8.8,39.6-0.7c-5.6-9.7,12.6-12.1,16-15.2l-10.8-4c1.2-1.1,5.3-4.1,7.6-5.9l0,0
			l0,0C510.3,273.9,511,273.3,510.9,273.2"/>
		<path class="st5" d="M509.1,274.8L509.1,274.8L509.1,274.8z"/>
		<path class="st5" d="M509.1,274.8L509.1,274.8L509.1,274.8z"/>
		<path class="st5" d="M460,301.3c-7.1-1.1-13.1-2.4-17.7-5.3c3.5,1.7,12.7,2.1,15.1,1.7l0,0c2.9-0.4,4.9-3.1,4.5-6s-3.1-4.9-6-4.5
			s-15.4,4.5-15,7.4c0,0.3,0.2,0.5,0.4,0.7c-2.3-1.6-4.2-3.7-5.6-6.5c-9.5-19.7,3.7-34.2,21.9-34.8c5.2,0,9.5,1.9,13.4,4.2l-2.4-2.1
			l-0.1-1.8l-2.9-1.5l0.1-2.4l-2.3-1.1l1.2-2.8l-2.9-1.6l0.8-2.5c-3.8-2.2-8.4-4.2-13-4.2h-21.7c0,0-10.9,0-10.9,10.9V303
			c0,0,0,10.9,10.9,10.9h65.3c10.9,0,11.8-13.3,11.8-13.3c-5.5,2.7-10.5,3.4-16.1,3.5C480.6,304.2,468.6,302.5,460,301.3z"/>
	</g>
</g>
</svg>
