<?xml version="1.0" encoding="UTF-8"?><svg id="Camada_1" xmlns="http://www.w3.org/2000/svg" viewBox="0 0 720 720"><defs><style>.cls-1{fill:#fff;}.cls-2{fill:#2ecc72;}</style></defs><rect class="cls-2" width="720" height="720"/><path class="cls-1" d="M342.0274,244.7013c-9.8714,0-17.8737-8.0023-17.8737-17.8736,0-.0118,.0283-14.299,.0283-14.299,0-1.9743-1.6005-3.5747-3.5747-3.5747h-117.9662c-1.9743,0-3.5748,1.6004-3.5748,3.5747v135.8399c0,1.9743,1.6005,3.5747,3.5748,3.5747h28.5978c1.9743,0,3.5748-1.6004,3.5748-3.5747v-94.7349c0-4.9357,4.0012-8.9369,8.9368-8.9369h8.9368c4.9357,0,8.9368,4.0012,8.9368,8.9368v58.8964c0,1.9743,1.6004,3.5748,3.5748,3.5748h28.5979c1.9743,0,3.5748-1.6005,3.5748-3.5748v-58.8963c0-4.9357,4.0012-8.9368,8.9368-8.9368h8.8967c4.9342,0,8.9348,3.9988,8.9368,8.933l.04,94.7386c0,1.9743,1.6004,3.5747,3.5748,3.5747h28.5979c1.9743,0,3.5748-1.6004,3.5748-3.5747v-100.0925c0-1.9743-1.6004-3.5747-3.5748-3.5747h-14.3271Z"/><path class="cls-1" d="M447.652,207.1666c-40.4726,0-73.2821,32.8095-73.2821,73.282s32.8095,73.282,73.282,73.282,73.282-32.8095,73.282-73.282-32.8094-73.282-73.282-73.282h.0001Zm35.7473,73.282c-.0223,19.7335-16.0138,35.725-35.7473,35.7473-19.7427,0-35.7473-16.0046-35.7473-35.7473s16.0046-35.7473,35.7473-35.7473,35.7473,16.0046,35.7473,35.7473Z"/><path class="cls-1" d="M131.146,369.8415c-1.9743,0-3.5747,1.6004-3.5747,3.5747v28.5979c0,1.9743,1.6005,3.5747,3.5748,3.5747h67.9199v62.5573c0,4.9357-4.0012,8.9368-8.9368,8.9368l-26.8105,.0005c-18.4926-.0226-33.9242-14.1272-35.605-32.5433-.175-1.8226-1.7101-3.2115-3.541-3.204h-28.6695c-1.9635-.018-3.5697,1.5592-3.5877,3.5226-.0007,.0718,.0009,.1437,.0046,.2154,1.99,37.9807,33.3659,67.756,71.3987,67.7566h32.1726c1.9743,0,3.5748-1.6004,3.5748-3.5747v-14.2993c0-9.8714,8.0023-17.8736,17.8736-17.8736,.0001,0,14.299,.0002,14.299,.0002,1.9742,0,3.5748-1.6004,3.5748-3.5746v-100.0927c0-1.9743-1.6004-3.5747-3.5748-3.5747h-100.0926l-.0003,.0002Z"/><path class="cls-1" d="M265.1989,512.8279h28.598c1.9741,0,3.5747-1.6005,3.5747-3.5747v-67.92c0-3.0508,.3843-6.0116,1.1035-8.8387h-5.527v-9.0351h-8.9817v-8.9369h-8.937v4.4684h-4.4684v4.4684h-6.6843c-1.4703,5.7128-2.2526,11.702-2.2526,17.8738v67.9199c0,1.9742,1.6005,3.5748,3.5747,3.5748h0Z"/><path class="cls-1" d="M266.0927,401.1177h4.4684v4.4684h8.9369v-4.4684h4.4684v4.4684h4.4684v-8.9368h8.9366v-17.8738h-8.9366v-4.4685h-4.4684v-5.0686c-1.4477,.3784-2.9586,.6002-4.5247,.6002h-14.2429c-1.9742,0-3.5747,1.6005-3.5747,3.5748v23.2358h4.4684v4.4684h.0001Z"/><path class="cls-1" d="M463.5967,405.5859l-14.3228-.0191c-9.8621-.0132-17.8499-8.0116-17.8499-17.8736v-14.2799c0-1.9742-1.6006-3.5747-3.5747-3.5747h-100.0927c-1.9742,0-3.5747,1.6005-3.5747,3.5748v135.8399c0,1.9742,1.6005,3.5747,3.5748,3.5747h28.5979c1.9741,0,3.5746-1.6005,3.5746-3.5748v-94.731c0-4.9335,3.9979-8.9335,8.9314-8.9363h53.632c4.9333,.0028,8.9312,4.0028,8.9314,8.9363v17.8551h4.4683v-4.4684h4.4685v4.4684h4.4684v-4.4684h13.4053v-4.4684h8.9369v-14.28c0-1.9742-1.6005-3.5747-3.5747-3.5746h0Z"/><path class="cls-1" d="M372.7441,443.5676l-7.689,10.981,3.6603,2.563-2.563,3.6603-3.6603-2.563-2.563,3.6604,3.6603,2.563-2.5629,3.6602,62.973,44.0942c1.6172,1.1324,3.8462,.7393,4.9786-.8779l16.4031-23.426c1.1325-1.6173,.7393-3.8462-.8779-4.9786l-70.2937-49.2202-5.126,7.3207,3.6603,2.563h.0001Z"/><path class="cls-1" d="M592.3363,509.2584c-.0002,1.9741,1.6,3.5746,3.574,3.5749h28.5995c1.9743-.0001,3.5748-1.6006,3.5749-3.5749v-68.864c0-30.6276-19.6634-58.1279-48.945-67.1062-47.7733-14.6471-91.6439,19.3444-93.9541,64.3195-.0964,1.9605,1.4147,3.628,3.3752,3.7244,.0695,.0034,.139,.0048,.2086,.0041h23.1328c4.9337,.0002,8.934,3.9982,8.9372,8.9318v17.8849c-.0032,4.9337-4.0034,8.9316-8.9372,8.9318h-23.2374c-1.9743,.0001-3.5748,1.6006-3.5749,3.5749v28.5987c0,1.9743,1.6006,3.5748,3.5749,3.5749h64.3481c1.9743-.0001,3.5748-1.6006,3.5749-3.5749v-64.3472c0-1.9743-1.6006-3.5748-3.5749-3.5749h-18.8823c-5.6111,.0089-10.1671-4.5326-10.1759-10.1438-.001-.5942,.0502-1.1875,.153-1.7729,.6244-3.7142,2.1471-7.2193,4.4357-10.2105,9.1574-11.5666,25.2786-17.3798,41.9783-10.9642,13.2028,5.1605,21.8713,17.9106,21.8146,32.086v68.9275h0Z"/></svg>