<?xml version="1.0" encoding="utf-8"?>
<!-- Generator: Adobe Illustrator 27.0.0, SVG Export Plug-In . SVG Version: 6.00 Build 0)  -->
<svg version="1.1" id="Camada_1" xmlns="http://www.w3.org/2000/svg" xmlns:xlink="http://www.w3.org/1999/xlink" x="0px" y="0px"
	 viewBox="0 0 720 720" style="enable-background:new 0 0 720 720;" xml:space="preserve">
<style type="text/css">
	.st0{fill:#660099;}
	.st1{fill:#330066;}
	.st2{fill:#4E2270;}
	.st3{fill:#CC33CC;}
	.st4{fill:#FFCC00;}
</style>
<rect class="st0" width="720" height="720"/>
<g>
	<g>
		<g>
			<path class="st1" d="M82.4633,193.894c1.6724,2.1013,2.8731,3.7094,3.1304,3.5807l2.1441-4.8457l-4.76-4.7171l3.9023-5.0602
				l-3.9881-4.031l2.5301-4.1167l-5.7034-4.6742l1.2436-8.1048c-4.031-4.0739-7.5045-8.405-10.6778-12.3073
				c-11.7498-14.3657-18.3109-28.517-22.6849-48.8005L28.3884,83.8356c0,0-18.4396,94.8136,1.3722,83.3639
				c20.3264-11.7498,25.5152,26.5873,31.9476,33.6629l8.405-22.6849C72.3859,180.6218,78.6468,189.0482,82.4633,193.894
				L82.4633,193.894L82.4633,193.894z"/>
			<path class="st1" d="M33.9202,84.9935c0.8148,6.0893,6.4324,10.3347,12.5217,9.52c6.0893-0.8148,10.3347-6.4324,9.52-12.5217
				c-0.8148-6.0893-9.4342-32.3764-15.5235-31.5616c-0.5575,0.0858-1.0721,0.3859-1.5438,0.8577
				c3.4306-4.8457,7.8047-8.7909,13.6796-11.7498c41.3818-19.8975,71.9571,7.8476,73.2007,46.0989
				c0.0858,10.8493-3.9023,20.0691-8.791,28.0881l4.5027-5.0601l3.8594-0.1715l3.1304-6.0893l5.1459,0.2144l2.3586-4.8029
				l5.7892,2.573l3.3448-6.0893l5.2317,1.5867c4.7171-7.9333,8.791-17.5819,8.791-27.2734V22.8998c0,0,0-22.8993-22.8993-22.8993
				L22.8994,0C22.8994,0,0,0,0,22.8993v137.439c0,22.8993,27.9166,24.7433,27.9166,24.7433
				c-5.5747-11.5354-7.1185-22.0846-7.29-33.7915c-0.3002-17.4961,3.3449-42.754,5.875-60.9363
				c2.4014-15.0089,5.1459-27.6164,11.0637-37.1364C33.9631,60.5503,33.2341,80.0191,33.9202,84.9935z"/>
		</g>
		<g>
			<path class="st1" d="M159.4354,101.1173c1.0506-0.8362,1.8547-1.4366,1.7903-1.5652l-2.4229-1.0721l-2.3586,2.38l-2.5301-1.9512
				l-2.0155,1.994l-2.0584-1.265l-2.3371,2.8517l-4.0524-0.6218c-2.0369,2.0155-4.2025,3.7522-6.1537,5.3389
				c-7.1828,5.8749-14.2585,9.1554-24.4002,11.3425l-8.4908,9.6057c0,0,47.4068,9.2198,41.6819-0.6861
				c-5.8749-10.1632,13.2936-12.7576,16.8315-15.9738l-11.3425-4.2025C152.7993,106.156,157.0125,103.0256,159.4354,101.1173
				L159.4354,101.1173L159.4354,101.1173z"/>
			<path class="st1" d="M104.9852,125.3889c3.0447-0.4074,5.1674-3.2162,4.76-6.2609c-0.4074-3.0447-3.2162-5.1674-6.2609-4.76
				c-3.0447,0.4074-16.1882,4.7171-15.7808,7.7618c0.0429,0.2787,0.193,0.536,0.4288,0.7719
				c-2.4229-1.7153-4.3955-3.9023-5.8749-6.8398c-9.9488-20.6909,3.9238-35.9785,23.0495-36.6003
				c5.4247-0.0429,10.0345,1.9512,14.0441,4.3955l-2.5301-2.2513l-0.0858-1.9297l-3.0447-1.5652l0.1072-2.573l-2.4014-1.1793
				l1.2865-2.8946l-3.0447-1.6724l0.7933-2.6158c-3.9666-2.3586-8.7909-4.3955-13.6367-4.3955H73.9381
				c0,0-11.4497,0-11.4497,11.4497v56.6694c0,0,0,11.4497,11.4497,11.4497h68.7195c11.4497,0,12.3717-13.9583,12.3717-13.9583
				c-5.7677,2.7874-11.0423,3.5592-16.8958,3.645c-8.7481,0.1501-21.377-1.6724-30.4681-2.9375
				c-7.5045-1.2007-13.8082-2.573-18.5682-5.5319C92.7636,125.3674,102.498,125.7319,104.9852,125.3889z"/>
		</g>
		<g>
			<path class="st1" d="M193.894,277.5367c2.1013-1.6724,3.7094-2.8731,3.5807-3.1304l-4.8457-2.1441l-4.7171,4.76l-5.0602-3.9023
				l-4.031,3.9881l-4.1167-2.5301l-4.6742,5.7034l-8.1048-1.2436c-4.0739,4.031-8.405,7.5045-12.3073,10.6778
				c-14.3657,11.7498-28.517,18.3109-48.8005,22.6849l-16.9815,19.2114c0,0,94.8136,18.4396,83.3639-1.3722
				c-11.7498-20.3264,26.5873-25.5152,33.6629-31.9476l-22.6849-8.405C180.6218,287.614,189.0482,281.3532,193.894,277.5367
				L193.894,277.5367L193.894,277.5367z"/>
			<path class="st1" d="M84.9934,326.0798c6.0893-0.8148,10.3347-6.4324,9.52-12.5218c-0.8148-6.0893-6.4324-10.3347-12.5217-9.52
				c-6.0893,0.8148-32.3764,9.4342-31.5616,15.5235c0.0858,0.5575,0.3859,1.0721,0.8577,1.5438
				c-4.8457-3.4306-8.7909-7.8047-11.7498-13.6796c-19.8975-41.3818,7.8476-71.9571,46.0989-73.2007
				c10.8493-0.0858,20.0691,3.9023,28.0881,8.791l-5.0602-4.5027l-0.1715-3.8594l-6.0893-3.1304l0.2144-5.1459l-4.8029-2.3586
				l2.573-5.7892l-6.0893-3.3448l1.5867-5.2317c-7.9333-4.7171-17.5819-8.791-27.2734-8.791H22.8996c0,0-22.8993,0-22.8993,22.8993
				L0,337.1006C0,337.1006,0,360,22.8993,360h137.439c22.8994,0,24.7433-27.9166,24.7433-27.9166
				c-11.5354,5.5748-22.0846,7.1185-33.7915,7.29c-17.4961,0.3002-42.754-3.3448-60.9363-5.8749
				c-15.0089-2.4015-27.6164-5.1459-37.1364-11.0638C60.5503,326.0369,80.0191,326.7659,84.9934,326.0798z"/>
		</g>
		<g>
			<path class="st1" d="M101.1173,200.5646c-0.8362-1.0506-1.4366-1.8547-1.5652-1.7904l-1.0721,2.4229l2.38,2.3586l-1.9512,2.5301
				l1.994,2.0155l-1.265,2.0584l2.8517,2.3371l-0.6218,4.0524c2.0155,2.0369,3.7522,4.2025,5.3389,6.1537
				c5.8749,7.1828,9.1554,14.2585,11.3425,24.4002l9.6057,8.4908c0,0,9.2198-47.4068-0.6861-41.6819
				c-10.1632,5.8749-12.7576-13.2936-15.9738-16.8315l-4.2025,11.3425C106.156,207.2007,103.0256,202.9874,101.1173,200.5646
				L101.1173,200.5646L101.1173,200.5646z"/>
			<path class="st1" d="M125.3889,255.0148c-0.4074-3.0447-3.2162-5.1674-6.2609-4.76c-3.0447,0.4074-5.1674,3.2162-4.76,6.2609
				c0.4074,3.0446,4.7171,16.1882,7.7618,15.7808c0.2787-0.0429,0.536-0.193,0.7719-0.4288
				c-1.7153,2.4229-3.9023,4.3955-6.8398,5.8749c-20.6909,9.9488-35.9786-3.9238-36.6003-23.0494
				c-0.0429-5.4247,1.9512-10.0345,4.3955-14.0441l-2.2513,2.5301l-1.9297,0.0858l-1.5652,3.0447l-2.573-0.1072l-1.1793,2.4014
				l-2.8946-1.2865l-1.6724,3.0447l-2.6158-0.7933c-2.3585,3.9666-4.3955,8.791-4.3955,13.6367v22.8564
				c0,0,0,11.4497,11.4497,11.4497h56.6694c0,0,11.4497,0,11.4497-11.4496v-68.7195c0-11.4497-13.9583-12.3716-13.9583-12.3716
				c2.7874,5.7677,3.5593,11.0423,3.645,16.8958c0.1501,8.748-1.6724,21.377-2.9375,30.4681
				c-1.2007,7.5045-2.573,13.8082-5.5319,18.5682C125.3674,267.2364,125.7319,257.502,125.3889,255.0148z"/>
		</g>
		<g>
			<path class="st1" d="M166.106,82.4634c-2.1013,1.6724-3.7094,2.8731-3.5807,3.1304l4.8457,2.1441l4.7171-4.76l5.0602,3.9023
				l4.031-3.9881l4.1167,2.5301l4.6742-5.7034l8.1048,1.2436c4.0739-4.031,8.405-7.5045,12.3073-10.6778
				c14.3657-11.7498,28.517-18.3109,48.8005-22.6849l16.9816-19.2114c0,0-94.8136-18.4396-83.3639,1.3722
				c11.7498,20.3264-26.5873,25.5152-33.6629,31.9476l22.6849,8.405C179.3782,72.386,170.9518,78.6468,166.106,82.4634
				L166.106,82.4634L166.106,82.4634z"/>
			<path class="st1" d="M275.0066,33.9202c-6.0894,0.8148-10.3347,6.4324-9.52,12.5217c0.8148,6.0893,6.4324,10.3347,12.5217,9.52
				s32.3764-9.4342,31.5616-15.5235c-0.0858-0.5575-0.3859-1.0721-0.8576-1.5438c4.8457,3.4306,8.7909,7.8047,11.7498,13.6796
				c19.8976,41.3818-7.8476,71.9571-46.0989,73.2007c-10.8493,0.0858-20.0691-3.9023-28.0882-8.791l5.0602,4.5027l0.1715,3.8594
				l6.0894,3.1304l-0.2144,5.1459l4.8029,2.3586l-2.573,5.7892l6.0893,3.3448l-1.5866,5.2317
				c7.9333,4.7171,17.5819,8.791,27.2733,8.791h45.7129c0,0,22.8994,0,22.8994-22.8993L360,22.8994C360,22.8994,360,0,337.1007,0
				h-137.439c-22.8994,0-24.7433,27.9166-24.7433,27.9166c11.5354-5.5747,22.0846-7.1185,33.7915-7.29
				c17.4961-0.3002,42.754,3.3449,60.9363,5.875c15.0089,2.4014,27.6164,5.1459,37.1364,11.0637
				C299.4497,33.9631,279.981,33.2341,275.0066,33.9202z"/>
		</g>
		<g>
			<path class="st1" d="M258.8827,159.4354c0.8362,1.0506,1.4366,1.8547,1.5652,1.7904l1.0721-2.4229l-2.38-2.3586l1.9512-2.5301
				l-1.994-2.0155l1.265-2.0584l-2.8517-2.3371l0.6218-4.0524c-2.0155-2.0369-3.7522-4.2025-5.3389-6.1537
				c-5.8749-7.1828-9.1554-14.2585-11.3424-24.4002l-9.6057-8.4908c0,0-9.2198,47.4068,0.6861,41.6819
				c10.1632-5.8749,12.7576,13.2936,15.9738,16.8315l4.2025-11.3425C253.844,152.7993,256.9744,157.0126,258.8827,159.4354
				L258.8827,159.4354L258.8827,159.4354z"/>
			<path class="st1" d="M234.6111,104.9852c0.4074,3.0447,3.2162,5.1674,6.2609,4.76c3.0447-0.4074,5.1674-3.2162,4.76-6.2609
				s-4.7171-16.1882-7.7618-15.7808c-0.2787,0.0429-0.536,0.193-0.7719,0.4288c1.7153-2.4229,3.9023-4.3955,6.8398-5.8749
				c20.6909-9.9488,35.9786,3.9238,36.6003,23.0494c0.0429,5.4247-1.9511,10.0345-4.3955,14.0441l2.2513-2.5301l1.9297-0.0858
				l1.5652-3.0447l2.573,0.1072l1.1793-2.4014l2.8946,1.2865l1.6724-3.0447l2.6158,0.7933
				c2.3586-3.9666,4.3955-8.7909,4.3955-13.6367V73.938c0,0,0-11.4497-11.4497-11.4497h-56.6694c0,0-11.4497,0-11.4497,11.4497
				v68.7195c0,11.4497,13.9583,12.3716,13.9583,12.3716c-2.7874-5.7677-3.5593-11.0423-3.645-16.8958
				c-0.1501-8.748,1.6724-21.377,2.9375-30.4681c1.2007-7.5045,2.573-13.8082,5.5319-18.5682
				C234.6326,92.7636,234.2681,102.498,234.6111,104.9852z"/>
		</g>
		<g>
			<path class="st1" d="M318.7683,242.1906c-0.8362-1.0506-1.4366-1.8547-1.5652-1.7903l-1.0721,2.4229l2.38,2.3586l-1.9512,2.5301
				l1.994,2.0155l-1.265,2.0584l2.8517,2.3371l-0.6218,4.0524c2.0155,2.0369,3.7522,4.2025,5.3389,6.1537
				c5.8749,7.1829,9.1554,14.2585,11.3424,24.4002l9.6057,8.4908c0,0,9.2198-47.4068-0.6861-41.6819
				c-10.1632,5.8749-12.7576-13.2936-15.9738-16.8315l-4.2025,11.3425C323.807,248.8268,320.6766,244.6135,318.7683,242.1906
				L318.7683,242.1906L318.7683,242.1906z"/>
			<path class="st1" d="M343.0399,296.6409c-0.4074-3.0446-3.2162-5.1674-6.2609-4.76s-5.1674,3.2162-4.76,6.2609
				c0.4074,3.0446,4.7171,16.1882,7.7617,15.7808c0.2787-0.0429,0.536-0.193,0.7719-0.4288
				c-1.7153,2.4229-3.9023,4.3955-6.8398,5.8749c-20.6909,9.9488-35.9785-3.9238-36.6003-23.0494
				c-0.0429-5.4247,1.9512-10.0345,4.3955-14.0441l-2.2513,2.5301l-1.9297,0.0858l-1.5652,3.0447l-2.5729-0.1072l-1.1793,2.4014
				l-2.8946-1.2865l-1.6725,3.0447l-2.6158-0.7933c-2.3586,3.9666-4.3955,8.7909-4.3955,13.6367v22.8564
				c0,0,0,11.4497,11.4497,11.4497h56.6694c0,0,11.4497,0,11.4497-11.4497v-68.7195c0-11.4497-13.9583-12.3717-13.9583-12.3717
				c2.7874,5.7677,3.5593,11.0423,3.645,16.8958c0.1501,8.7481-1.6724,21.377-2.9375,30.4681
				c-1.2007,7.5045-2.573,13.8082-5.5319,18.5682C343.0184,308.8625,343.3829,299.1281,343.0399,296.6409z"/>
		</g>
		<g>
			<path class="st1" d="M242.0941,356.5158c0.8362,1.0507,1.4366,1.8547,1.5652,1.7904l1.0721-2.4229l-2.38-2.3586l1.9512-2.5301
				l-1.994-2.0155l1.265-2.0583l-2.8517-2.3371l0.6218-4.0524c-2.0155-2.0369-3.7522-4.2025-5.3389-6.1537
				c-5.8749-7.1828-9.1555-14.2585-11.3425-24.4002l-9.6057-8.4908c0,0-9.2198,47.4068,0.6861,41.6819
				c10.1632-5.8749,12.7576,13.2936,15.9738,16.8315l4.2025-11.3425C237.0553,349.8797,240.1858,354.0929,242.0941,356.5158
				L242.0941,356.5158L242.0941,356.5158z"/>
			<path class="st1" d="M217.8225,302.0655c0.4074,3.0447,3.2162,5.1674,6.2609,4.76c3.0447-0.4074,5.1674-3.2162,4.76-6.2609
				s-4.7171-16.1882-7.7618-15.7808c-0.2787,0.0429-0.536,0.193-0.7719,0.4288c1.7153-2.4229,3.9023-4.3955,6.8398-5.8749
				c20.6909-9.9488,35.9785,3.9238,36.6003,23.0495c0.0429,5.4247-1.9512,10.0345-4.3955,14.0441l2.2513-2.5301l1.9297-0.0858
				l1.5652-3.0447l2.573,0.1072l1.1793-2.4014l2.8946,1.2865l1.6724-3.0447l2.6158,0.7933
				c2.3586-3.9666,4.3955-8.791,4.3955-13.6367v-22.8565c0,0,0-11.4496-11.4496-11.4497H212.312c0,0-11.4497,0-11.4497,11.4496
				v68.7195c0,11.4496,13.9583,12.3716,13.9583,12.3716c-2.7874-5.7677-3.5593-11.0423-3.645-16.8958
				c-0.1501-8.748,1.6724-21.377,2.9375-30.4681c1.2007-7.5045,2.573-13.8082,5.5319-18.5682
				C217.8439,289.844,217.4794,299.5783,217.8225,302.0655z"/>
		</g>
		<g>
			<path class="st1" d="M94.8922,183.5807c-1.0506,0.8362-1.8547,1.4366-1.7904,1.5652l2.4229,1.0721l2.3586-2.38l2.5301,1.9512
				l2.0155-1.994l2.0584,1.265l2.3371-2.8517l4.0524,0.6218c2.0369-2.0155,4.2025-3.7522,6.1537-5.3389
				c7.1829-5.8749,14.2585-9.1554,24.4002-11.3425l8.4908-9.6057c0,0-47.4068-9.2198-41.6819,0.6861
				c5.8749,10.1632-13.2936,12.7576-16.8315,15.9738l11.3425,4.2025C101.5283,178.542,97.3151,181.6724,94.8922,183.5807
				L94.8922,183.5807L94.8922,183.5807z"/>
			<path class="st1" d="M149.3425,159.3091c-3.0447,0.4074-5.1674,3.2162-4.76,6.2609c0.4074,3.0447,3.2162,5.1674,6.2609,4.76
				c3.0447-0.4074,16.1882-4.7171,15.7808-7.7618c-0.0429-0.2787-0.193-0.536-0.4288-0.7719
				c2.4229,1.7153,4.3955,3.9023,5.8749,6.8398c9.9488,20.6909-3.9238,35.9785-23.0494,36.6003
				c-5.4247,0.0429-10.0345-1.9512-14.0441-4.3955l2.5301,2.2513l0.0858,1.9297l3.0447,1.5652l-0.1072,2.573l2.4014,1.1793
				l-1.2865,2.8946l3.0447,1.6724l-0.7933,2.6158c3.9666,2.3586,8.7909,4.3955,13.6367,4.3955h22.8564
				c0,0,11.4497,0,11.4497-11.4497v-56.6694c0,0,0-11.4497-11.4497-11.4497h-68.7195c-11.4497,0-12.3717,13.9583-12.3717,13.9583
				c5.7677-2.7874,11.0423-3.5592,16.8958-3.645c8.7481-0.1501,21.377,1.6724,30.4681,2.9375
				c7.5045,1.2007,13.8082,2.573,18.5682,5.5319C161.564,159.3306,151.8297,158.966,149.3425,159.3091z"/>
		</g>
		<g>
			<path class="st1" d="M288.7862,218.3372c1.0506-0.8362,1.8547-1.4366,1.7903-1.5652l-2.4229-1.0721l-2.3586,2.38l-2.5301-1.9512
				l-2.0155,1.994l-2.0584-1.265l-2.3371,2.8517l-4.0524-0.6218c-2.0369,2.0155-4.2025,3.7522-6.1537,5.3389
				c-7.1829,5.8749-14.2585,9.1554-24.4002,11.3425l-8.4908,9.6057c0,0,47.4068,9.2198,41.6819-0.6861
				c-5.8749-10.1632,13.2936-12.7576,16.8315-15.9738l-11.3425-4.2025C282.1501,223.3759,286.3633,220.2455,288.7862,218.3372
				L288.7862,218.3372L288.7862,218.3372z"/>
			<path class="st1" d="M234.3359,242.6087c3.0447-0.4074,5.1674-3.2162,4.76-6.2609c-0.4074-3.0447-3.2162-5.1674-6.2609-4.76
				c-3.0447,0.4074-16.1882,4.7171-15.7808,7.7617c0.0429,0.2787,0.193,0.536,0.4288,0.7719
				c-2.4229-1.7153-4.3955-3.9023-5.8749-6.8398c-9.9488-20.6909,3.9238-35.9786,23.0495-36.6003
				c5.4247-0.0429,10.0345,1.9512,14.0441,4.3955l-2.5301-2.2513l-0.0858-1.9297l-3.0447-1.5652l0.1072-2.573l-2.4014-1.1793
				l1.2865-2.8946l-3.0447-1.6724l0.7933-2.6158c-3.9666-2.3586-8.791-4.3955-13.6367-4.3955h-22.8565
				c0,0-11.4497,0-11.4497,11.4497v56.6694c0,0,0,11.4497,11.4497,11.4497l68.7195,0.0001
				c11.4497,0,12.3717-13.9583,12.3717-13.9583c-5.7677,2.7874-11.0423,3.5592-16.8958,3.645
				c-8.748,0.1501-21.377-1.6724-30.4681-2.9375c-7.5045-1.2007-13.8082-2.573-18.5682-5.5319
				C222.1143,242.5873,231.8487,242.9518,234.3359,242.6087z"/>
		</g>
		<g>
			<path class="st1" d="M263.053,200.3693c-1.0506,0.8362-1.8547,1.4366-1.7903,1.5652l2.4229,1.0721l2.3586-2.38l2.5301,1.9512
				l2.0155-1.994l2.0584,1.265l2.3371-2.8517l4.0524,0.6218c2.0369-2.0155,4.2025-3.7522,6.1537-5.3389
				c7.1829-5.8749,14.2585-9.1554,24.4002-11.3425l8.4908-9.6057c0,0-47.4068-9.2198-41.6819,0.6861
				c5.8749,10.1632-13.2936,12.7576-16.8315,15.9738l11.3425,4.2025C269.6891,195.3306,265.4759,198.461,263.053,200.3693
				L263.053,200.3693L263.053,200.3693z"/>
			<path class="st1" d="M317.5033,176.0977c-3.0446,0.4074-5.1674,3.2162-4.76,6.2609c0.4074,3.0447,3.2162,5.1674,6.2609,4.76
				c3.0447-0.4074,16.1882-4.7171,15.7809-7.7617c-0.0429-0.2787-0.193-0.536-0.4288-0.7719
				c2.4229,1.7153,4.3955,3.9023,5.8749,6.8398c9.9488,20.6909-3.9238,35.9785-23.0494,36.6003
				c-5.4247,0.0429-10.0345-1.9512-14.0441-4.3955l2.5301,2.2513l0.0858,1.9297l3.0447,1.5652l-0.1072,2.573l2.4014,1.1793
				l-1.2865,2.8946l3.0447,1.6724l-0.7933,2.6158c3.9666,2.3586,8.7909,4.3955,13.6367,4.3955h22.8564
				c0,0,11.4497,0,11.4497-11.4497v-56.6694c0,0,0-11.4497-11.4497-11.4497H279.831c-11.4497,0-12.3716,13.9583-12.3716,13.9583
				c5.7677-2.7874,11.0423-3.5592,16.8958-3.645c8.7481-0.1501,21.377,1.6724,30.4681,2.9375
				c7.5045,1.2007,13.8082,2.573,18.5682,5.5319C329.7248,176.1192,319.9905,175.7547,317.5033,176.0977z"/>
		</g>
	</g>
	<g>
		<g>
			<path class="st1" d="M526.106,82.4633c-2.1013,1.6724-3.7094,2.8731-3.5807,3.1304l4.8457,2.1441l4.7171-4.76l5.0602,3.9023
				l4.0309-3.9881l4.1168,2.5301l4.6742-5.7034l8.1049,1.2436c4.0739-4.031,8.405-7.5045,12.3073-10.6778
				c14.3657-11.7498,28.517-18.3109,48.8005-22.6849l16.9816-19.2114c0,0-94.8136-18.4396-83.3639,1.3722
				c11.7498,20.3264-26.5873,25.5152-33.6629,31.9476l22.6849,8.405C539.3782,72.3859,530.9518,78.6468,526.106,82.4633
				L526.106,82.4633L526.106,82.4633z"/>
			<path class="st1" d="M635.0065,33.9202c-6.0894,0.8148-10.3347,6.4324-9.52,12.5217s6.4324,10.3347,12.5217,9.52
				c6.0894-0.8148,32.3764-9.4342,31.5616-15.5235c-0.0858-0.5575-0.3859-1.0721-0.8576-1.5438
				c4.8457,3.4306,8.7909,7.8047,11.7498,13.6796c19.8975,41.3818-7.8475,71.9571-46.0989,73.2007
				c-10.8493,0.0858-20.0691-3.9023-28.0881-8.791l5.0601,4.5027l0.1715,3.8594l6.0894,3.1304l-0.2144,5.1459l4.8029,2.3586
				l-2.5729,5.7892l6.0894,3.3448l-1.5867,5.2317c7.9333,4.7171,17.5818,8.791,27.2734,8.791h45.7129c0,0,22.8994,0,22.8994-22.8993
				L720,22.8994C720,22.8994,720,0,697.1006,0H559.6617c-22.8994,0-24.7433,27.9166-24.7433,27.9166
				c11.5355-5.5747,22.0846-7.1185,33.7916-7.29c17.4961-0.3002,42.754,3.3449,60.9363,5.875
				c15.0089,2.4014,27.6164,5.1459,37.1364,11.0637C659.4496,33.9631,639.981,33.2341,635.0065,33.9202z"/>
		</g>
		<g>
			<path class="st1" d="M618.8827,159.4354c0.8362,1.0506,1.4366,1.8547,1.5652,1.7903l1.0721-2.4229l-2.38-2.3586l1.9512-2.5301
				l-1.994-2.0155l1.265-2.0584l-2.8517-2.3371l0.6218-4.0524c-2.0155-2.0369-3.7523-4.2025-5.3389-6.1537
				c-5.8749-7.1828-9.1554-14.2585-11.3424-24.4002l-9.6057-8.4908c0,0-9.2198,47.4068,0.6861,41.6819
				c10.1632-5.8749,12.7576,13.2936,15.9738,16.8315l4.2025-11.3425C613.844,152.7993,616.9744,157.0125,618.8827,159.4354
				L618.8827,159.4354L618.8827,159.4354z"/>
			<path class="st1" d="M594.6111,104.9852c0.4073,3.0447,3.2162,5.1674,6.2609,4.76c3.0447-0.4074,5.1674-3.2162,4.7599-6.2609
				c-0.4073-3.0447-4.717-16.1882-7.7617-15.7808c-0.2787,0.0429-0.5361,0.193-0.7719,0.4288
				c1.7153-2.4229,3.9023-4.3955,6.8398-5.8749c20.6909-9.9488,35.9786,3.9238,36.6003,23.0495
				c0.0429,5.4247-1.9512,10.0345-4.3954,14.0441l2.2513-2.5301l1.9297-0.0858l1.5652-3.0447l2.5729,0.1072l1.1793-2.4014
				l2.8946,1.2865l1.6724-3.0447l2.6158,0.7933c2.3585-3.9666,4.3954-8.7909,4.3954-13.6367l0.0001-22.8565
				c0,0,0-11.4497-11.4497-11.4497h-56.6694c0,0-11.4496,0-11.4496,11.4497l-0.0001,68.7195
				c0,11.4497,13.9583,12.3717,13.9583,12.3717c-2.7874-5.7677-3.5593-11.0423-3.645-16.8958
				c-0.1501-8.7481,1.6724-21.377,2.9375-30.4681c1.2007-7.5045,2.5729-13.8082,5.5319-18.5682
				C594.6326,92.7636,594.2681,102.498,594.6111,104.9852z"/>
		</g>
		<g>
			<path class="st1" d="M442.4633,193.894c1.6724,2.1013,2.8731,3.7094,3.1304,3.5807l2.1441-4.8457l-4.76-4.7171l3.9023-5.0602
				l-3.9881-4.031l2.5301-4.1167l-5.7034-4.6742l1.2436-8.1048c-4.031-4.0739-7.5045-8.405-10.6778-12.3073
				c-11.7498-14.3657-18.3109-28.517-22.6849-48.8005l-19.2114-16.9815c0,0-18.4396,94.8136,1.3722,83.3639
				c20.3264-11.7498,25.5152,26.5873,31.9476,33.6629l8.405-22.6849C432.386,180.6218,438.6468,189.0482,442.4633,193.894
				L442.4633,193.894L442.4633,193.894z"/>
			<path class="st1" d="M393.9202,84.9934c0.8148,6.0893,6.4324,10.3347,12.5218,9.52c6.0893-0.8148,10.3347-6.4324,9.52-12.5217
				c-0.8148-6.0893-9.4342-32.3764-15.5235-31.5616c-0.5575,0.0858-1.0721,0.3859-1.5438,0.8577
				c3.4306-4.8457,7.8047-8.7909,13.6796-11.7498c41.3818-19.8975,71.9571,7.8476,73.2007,46.0989
				c0.0858,10.8493-3.9023,20.0691-8.791,28.0881l4.5027-5.0602l3.8595-0.1715l3.1304-6.0893l5.1459,0.2144l2.3586-4.8029
				l5.7892,2.573l3.3448-6.0893l5.2317,1.5867c4.7171-7.9333,8.791-17.5819,8.791-27.2734V22.8994c0,0,0-22.8993-22.8993-22.8993
				L382.8994,0C382.8994,0,360,0,360,22.8993v137.439c0,22.8994,27.9166,24.7433,27.9166,24.7433
				c-5.5748-11.5354-7.1185-22.0846-7.29-33.7915c-0.3002-17.4961,3.3448-42.754,5.8749-60.9363
				c2.4015-15.0089,5.1459-27.6164,11.0638-37.1364C393.9631,60.5503,393.2341,80.0191,393.9202,84.9934z"/>
		</g>
		<g>
			<path class="st1" d="M519.4354,101.1173c1.0507-0.8362,1.8547-1.4366,1.7903-1.5652l-2.4229-1.0721l-2.3585,2.38l-2.5301-1.9512
				l-2.0155,1.994l-2.0583-1.265l-2.3371,2.8517l-4.0524-0.6218c-2.0369,2.0155-4.2025,3.7522-6.1537,5.3389
				c-7.1829,5.8749-14.2585,9.1554-24.4002,11.3425l-8.4908,9.6057c0,0,47.4068,9.2198,41.6819-0.6861
				c-5.8749-10.1632,13.2936-12.7576,16.8314-15.9738l-11.3424-4.2025C512.7993,106.156,517.0126,103.0256,519.4354,101.1173
				L519.4354,101.1173L519.4354,101.1173z"/>
			<path class="st1" d="M464.9852,125.3889c3.0447-0.4074,5.1674-3.2162,4.76-6.2609c-0.4074-3.0447-3.2162-5.1674-6.2609-4.76
				c-3.0446,0.4074-16.1882,4.7171-15.7808,7.7618c0.0429,0.2787,0.193,0.536,0.4288,0.7719
				c-2.4229-1.7153-4.3955-3.9023-5.8749-6.8398c-9.9488-20.6909,3.9238-35.9786,23.0494-36.6003
				c5.4247-0.0429,10.0345,1.9512,14.0441,4.3955l-2.5301-2.2513l-0.0858-1.9297l-3.0446-1.5652l0.1072-2.573l-2.4015-1.1793
				l1.2865-2.8946l-3.0447-1.6724l0.7933-2.6158c-3.9666-2.3585-8.791-4.3955-13.6367-4.3955h-22.8564
				c0,0-11.4497,0-11.4497,11.4497v56.6694c0,0,0,11.4497,11.4496,11.4497h68.7195c11.4496,0,12.3716-13.9583,12.3716-13.9583
				c-5.7677,2.7874-11.0423,3.5593-16.8958,3.645c-8.7481,0.1501-21.377-1.6724-30.4681-2.9375
				c-7.5045-1.2007-13.8082-2.573-18.5682-5.5319C452.7636,125.3674,462.498,125.7319,464.9852,125.3889z"/>
		</g>
		<g>
			<path class="st1" d="M637.5366,166.106c-1.6724-2.1013-2.8731-3.7094-3.1304-3.5807l-2.1441,4.8457l4.7599,4.7171l-3.9023,5.0602
				l3.988,4.031l-2.53,4.1167l5.7034,4.6742l-1.2436,8.1048c4.0309,4.0739,7.5045,8.405,10.6777,12.3073
				c11.7499,14.3657,18.3109,28.517,22.6849,48.8005l19.2114,16.9816c0,0,18.4396-94.8136-1.3723-83.3639
				c-20.3264,11.7498-25.5151-26.5873-31.9476-33.6629l-8.405,22.6849C647.6141,179.3782,641.3532,170.9518,637.5366,166.106
				L637.5366,166.106L637.5366,166.106z"/>
			<path class="st1" d="M686.0798,275.0066c-0.8148-6.0894-6.4324-10.3347-12.5217-9.52c-6.0894,0.8148-10.3347,6.4324-9.52,12.5217
				s9.4341,32.3764,15.5235,31.5616c0.5574-0.0858,1.0721-0.3859,1.5438-0.8576c-3.4306,4.8457-7.8046,8.7909-13.6796,11.7498
				c-41.3818,19.8976-71.9571-7.8476-73.2007-46.0989c-0.0858-10.8493,3.9023-20.0691,8.791-28.0882l-4.5027,5.0602l-3.8594,0.1715
				l-3.1304,6.0894l-5.1459-0.2144l-2.3585,4.8029l-5.7892-2.573l-3.3448,6.0893l-5.2317-1.5866
				c-4.717,7.9333-8.791,17.5819-8.791,27.2733v45.7129c0,0,0,22.8994,22.8994,22.8994L697.1006,360c0,0,22.8994,0,22.8994-22.8993
				v-137.439c0-22.8994-27.9166-24.7433-27.9166-24.7433c5.5748,11.5354,7.1185,22.0846,7.29,33.7915
				c0.3002,17.4961-3.3448,42.754-5.8749,60.9363c-2.4014,15.0089-5.1459,27.6164-11.0637,37.1364
				C686.0369,299.4497,686.7659,279.981,686.0798,275.0066z"/>
		</g>
		<g>
			<path class="st1" d="M560.5646,258.8827c-1.0507,0.8362-1.8547,1.4366-1.7903,1.5652l2.4229,1.0721l2.3585-2.38l2.5301,1.9512
				l2.0155-1.994l2.0583,1.265l2.3371-2.8517l4.0524,0.6218c2.0369-2.0155,4.2025-3.7522,6.1537-5.3389
				c7.1829-5.8749,14.2585-9.1554,24.4002-11.3424l8.4908-9.6057c0,0-47.4068-9.2198-41.6819,0.6861
				c5.8749,10.1632-13.2936,12.7576-16.8314,15.9738l11.3425,4.2025C567.2007,253.844,562.9874,256.9744,560.5646,258.8827
				L560.5646,258.8827L560.5646,258.8827z"/>
			<path class="st1" d="M615.0148,234.6111c-3.0447,0.4074-5.1674,3.2162-4.76,6.2609s3.2162,5.1674,6.2609,4.76
				s16.1882-4.7171,15.7808-7.7618c-0.0428-0.2787-0.1929-0.536-0.4288-0.7719c2.4229,1.7153,4.3955,3.9023,5.8749,6.8398
				c9.9488,20.6909-3.9238,35.9786-23.0494,36.6003c-5.4247,0.0429-10.0345-1.9511-14.0441-4.3955l2.5301,2.2513l0.0858,1.9297
				l3.0447,1.5652l-0.1072,2.573l2.4014,1.1793l-1.2864,2.8946l3.0446,1.6724l-0.7933,2.6158
				c3.9667,2.3586,8.791,4.3955,13.6367,4.3955h22.8564c0,0,11.4497,0,11.4497-11.4497v-56.6694c0,0,0-11.4497-11.4496-11.4497
				h-68.7195c-11.4496,0-12.3716,13.9583-12.3716,13.9583c5.7677-2.7874,11.0423-3.5593,16.8958-3.645
				c8.748-0.1501,21.377,1.6724,30.4681,2.9375c7.5045,1.2007,13.8082,2.573,18.5682,5.5319
				C627.2364,234.6326,617.502,234.2681,615.0148,234.6111z"/>
		</g>
		<g>
			<path class="st1" d="M477.8094,318.7683c1.0506-0.8362,1.8547-1.4366,1.7903-1.5652l-2.4229-1.0721l-2.3585,2.38l-2.5301-1.9512
				l-2.0155,1.994l-2.0584-1.265l-2.3371,2.8517l-4.0524-0.6218c-2.0369,2.0155-4.2025,3.7522-6.1537,5.3389
				c-7.1829,5.8749-14.2585,9.1554-24.4002,11.3424l-8.4908,9.6057c0,0,47.4068,9.2198,41.6819-0.6861
				c-5.8749-10.1632,13.2936-12.7576,16.8315-15.9738l-11.3425-4.2025C471.1732,323.807,475.3865,320.6766,477.8094,318.7683
				L477.8094,318.7683L477.8094,318.7683z"/>
			<path class="st1" d="M423.3591,343.0399c3.0446-0.4074,5.1674-3.2162,4.76-6.2609s-3.2162-5.1674-6.2609-4.76
				c-3.0446,0.4074-16.1882,4.7171-15.7808,7.7617c0.0429,0.2787,0.193,0.536,0.4288,0.7719
				c-2.4229-1.7153-4.3955-3.9023-5.8749-6.8398c-9.9488-20.6909,3.9238-35.9785,23.0494-36.6003
				c5.4247-0.0429,10.0345,1.9512,14.0441,4.3955l-2.5301-2.2513l-0.0858-1.9297l-3.0447-1.5652l0.1072-2.5729l-2.4014-1.1793
				l1.2865-2.8946l-3.0447-1.6725l0.7933-2.6158c-3.9666-2.3586-8.7909-4.3955-13.6367-4.3955h-22.8564
				c0,0-11.4497,0-11.4497,11.4497v56.6694c0,0,0,11.4497,11.4497,11.4497h68.7195c11.4497,0,12.3716-13.9583,12.3716-13.9583
				c-5.7677,2.7874-11.0423,3.5593-16.8958,3.645c-8.7481,0.1501-21.377-1.6724-30.4681-2.9375
				c-7.5045-1.2007-13.8082-2.573-18.5682-5.5319C411.1375,343.0184,420.8719,343.3829,423.3591,343.0399z"/>
		</g>
		<g>
			<path class="st1" d="M363.4842,242.0941c-1.0507,0.8362-1.8547,1.4366-1.7904,1.5652l2.4229,1.0721l2.3586-2.38l2.5301,1.9512
				l2.0155-1.994l2.0583,1.265l2.3371-2.8517l4.0524,0.6218c2.0369-2.0155,4.2025-3.7522,6.1537-5.3389
				c7.1828-5.8749,14.2585-9.1555,24.4002-11.3425l8.4908-9.6057c0,0-47.4068-9.2198-41.6819,0.6861
				c5.8749,10.1632-13.2936,12.7576-16.8315,15.9738l11.3425,4.2025C370.1203,237.0553,365.9071,240.1858,363.4842,242.0941
				L363.4842,242.0941L363.4842,242.0941z"/>
			<path class="st1" d="M417.9345,217.8225c-3.0447,0.4074-5.1674,3.2162-4.76,6.2609c0.4074,3.0447,3.2162,5.1674,6.2609,4.76
				s16.1882-4.7171,15.7808-7.7618c-0.0429-0.2787-0.193-0.536-0.4288-0.7719c2.4229,1.7153,4.3955,3.9023,5.8749,6.8398
				c9.9488,20.6909-3.9238,35.9785-23.0495,36.6003c-5.4247,0.0429-10.0345-1.9512-14.0441-4.3955l2.5301,2.2513l0.0858,1.9297
				l3.0447,1.5652l-0.1072,2.573l2.4014,1.1793l-1.2865,2.8946l3.0447,1.6724l-0.7933,2.6158
				c3.9666,2.3586,8.791,4.3955,13.6367,4.3955h22.8565c0,0,11.4496,0,11.4497-11.4496V212.312c0,0,0-11.4497-11.4496-11.4497
				h-68.7195c-11.4496,0-12.3716,13.9583-12.3716,13.9583c5.7677-2.7874,11.0423-3.5593,16.8958-3.645
				c8.748-0.1501,21.377,1.6724,30.4681,2.9375c7.5045,1.2007,13.8082,2.573,18.5682,5.5319
				C430.156,217.8439,420.4217,217.4794,417.9345,217.8225z"/>
		</g>
		<g>
			<path class="st1" d="M536.4193,94.8922c-0.8362-1.0506-1.4365-1.8547-1.5652-1.7904l-1.0721,2.4229l2.38,2.3586l-1.9512,2.5301
				l1.994,2.0155l-1.265,2.0584l2.8517,2.3371l-0.6218,4.0524c2.0154,2.0369,3.7522,4.2025,5.3389,6.1537
				c5.8749,7.1829,9.1555,14.2585,11.3425,24.4002l9.6057,8.4908c0,0,9.2198-47.4068-0.6862-41.6819
				c-10.1631,5.8749-12.7576-13.2936-15.9738-16.8315l-4.2025,11.3425C541.4581,101.5283,538.3276,97.3151,536.4193,94.8922
				L536.4193,94.8922L536.4193,94.8922z"/>
			<path class="st1" d="M560.6909,149.3425c-0.4074-3.0447-3.2162-5.1674-6.2609-4.76s-5.1674,3.2162-4.76,6.2609
				s4.7171,16.1882,7.7618,15.7808c0.2787-0.0429,0.536-0.193,0.7719-0.4288c-1.7153,2.4229-3.9023,4.3955-6.8398,5.8749
				c-20.6909,9.9488-35.9785-3.9238-36.6003-23.0494c-0.0428-5.4247,1.9512-10.0345,4.3955-14.0441l-2.2513,2.5301l-1.9297,0.0858
				l-1.5652,3.0447l-2.573-0.1072l-1.1793,2.4014l-2.8946-1.2865l-1.6724,3.0447l-2.6158-0.7933
				c-2.3586,3.9666-4.3955,8.7909-4.3955,13.6367v22.8564c0,0,0,11.4497,11.4496,11.4497h56.6694c0,0,11.4497,0,11.4497-11.4497
				V111.67c0-11.4497-13.9583-12.3717-13.9583-12.3717c2.7874,5.7677,3.5593,11.0423,3.645,16.8958
				c0.1501,8.7481-1.6724,21.377-2.9374,30.4681c-1.2007,7.5045-2.573,13.8082-5.5319,18.5682
				C560.6694,161.564,561.0339,151.8297,560.6909,149.3425z"/>
		</g>
		<g>
			<path class="st1" d="M501.6628,288.7862c0.8362,1.0506,1.4366,1.8547,1.5652,1.7903l1.0721-2.4229l-2.38-2.3586l1.9512-2.5301
				l-1.994-2.0155l1.265-2.0584l-2.8517-2.3371l0.6218-4.0524c-2.0155-2.0369-3.7523-4.2025-5.3389-6.1537
				c-5.8749-7.1829-9.1555-14.2585-11.3424-24.4002l-9.6057-8.4908c0,0-9.2198,47.4068,0.6861,41.6819
				c10.1632-5.8749,12.7576,13.2936,15.9738,16.8315l4.2025-11.3425C496.6241,282.1501,499.7545,286.3633,501.6628,288.7862
				L501.6628,288.7862L501.6628,288.7862z"/>
			<path class="st1" d="M477.3912,234.3359c0.4074,3.0447,3.2162,5.1674,6.2609,4.76c3.0446-0.4074,5.1674-3.2162,4.76-6.2609
				c-0.4074-3.0447-4.7171-16.1882-7.7618-15.7808c-0.2787,0.0429-0.536,0.193-0.7719,0.4288
				c1.7153-2.4229,3.9023-4.3955,6.8398-5.8749c20.6909-9.9488,35.9785,3.9238,36.6004,23.0495
				c0.0428,5.4247-1.9512,10.0345-4.3955,14.0441l2.2513-2.5301l1.9297-0.0858l1.5652-3.0447l2.5729,0.1072l1.1793-2.4014
				l2.8945,1.2865l1.6724-3.0447l2.6158,0.7933c2.3586-3.9666,4.3955-8.791,4.3955-13.6367v-22.8565c0,0,0-11.4497-11.4496-11.4497
				h-56.6694c0,0-11.4497,0-11.4497,11.4497l-0.0001,68.7195c0,11.4497,13.9583,12.3717,13.9583,12.3717
				c-2.7874-5.7677-3.5593-11.0423-3.645-16.8958c-0.1501-8.748,1.6724-21.377,2.9375-30.4681
				c1.2007-7.5045,2.573-13.8082,5.5319-18.5682C477.4127,222.1143,477.0482,231.8487,477.3912,234.3359z"/>
		</g>
		<g>
			<path class="st1" d="M519.6307,263.053c-0.8362-1.0506-1.4366-1.8547-1.5652-1.7903l-1.0721,2.4229l2.38,2.3586l-1.9512,2.5301
				l1.994,2.0155l-1.265,2.0584l2.8517,2.3371l-0.6218,4.0524c2.0155,2.0369,3.7523,4.2025,5.3389,6.1537
				c5.8749,7.1829,9.1555,14.2585,11.3424,24.4002l9.6057,8.4908c0,0,9.2198-47.4068-0.6861-41.6819
				c-10.1631,5.8749-12.7576-13.2936-15.9738-16.8315l-4.2025,11.3425C524.6694,269.6891,521.5389,265.4759,519.6307,263.053
				L519.6307,263.053L519.6307,263.053z"/>
			<path class="st1" d="M543.9023,317.5033c-0.4074-3.0446-3.2162-5.1674-6.2609-4.76c-3.0446,0.4074-5.1674,3.2162-4.7599,6.2609
				c0.4073,3.0447,4.7171,16.1882,7.7618,15.7809c0.2787-0.0429,0.536-0.193,0.7719-0.4288
				c-1.7153,2.4229-3.9023,4.3955-6.8398,5.8749c-20.6909,9.9488-35.9785-3.9238-36.6003-23.0494
				c-0.0429-5.4247,1.9512-10.0345,4.3955-14.0441l-2.2513,2.5301l-1.9297,0.0858l-1.5652,3.0447l-2.5729-0.1072l-1.1793,2.4014
				l-2.8946-1.2865l-1.6725,3.0447l-2.6158-0.7933c-2.3586,3.9666-4.3955,8.7909-4.3955,13.6367v22.8564
				c0,0,0,11.4497,11.4497,11.4497h56.6694c0,0,11.4496,0,11.4496-11.4497l0.0001-68.7195
				c0-11.4497-13.9583-12.3716-13.9583-12.3716c2.7874,5.7677,3.5593,11.0423,3.645,16.8958
				c0.1501,8.7481-1.6724,21.377-2.9375,30.4681c-1.2007,7.5045-2.5729,13.8082-5.5319,18.5682
				C543.8808,329.7248,544.2453,319.9905,543.9023,317.5033z"/>
		</g>
	</g>
	<g>
		<g>
			<path class="st1" d="M637.5366,526.106c-1.6724-2.1013-2.8731-3.7094-3.1304-3.5807l-2.1441,4.8457l4.7599,4.7171l-3.9023,5.0602
				l3.988,4.0309l-2.53,4.1168l5.7034,4.6742l-1.2436,8.1049c4.0309,4.0739,7.5045,8.405,10.6777,12.3073
				c11.7499,14.3657,18.3109,28.517,22.6849,48.8005l19.2114,16.9816c0,0,18.4396-94.8136-1.3723-83.3639
				c-20.3264,11.7498-25.5151-26.5873-31.9476-33.6629l-8.405,22.6849C647.6141,539.3782,641.3532,530.9518,637.5366,526.106
				L637.5366,526.106L637.5366,526.106z"/>
			<path class="st1" d="M686.0798,635.0065c-0.8148-6.0894-6.4324-10.3347-12.5217-9.52s-10.3347,6.4324-9.52,12.5217
				c0.8148,6.0894,9.4341,32.3764,15.5235,31.5616c0.5574-0.0858,1.0721-0.3859,1.5438-0.8576
				c-3.4306,4.8457-7.8046,8.7909-13.6796,11.7498c-41.3818,19.8975-71.9571-7.8475-73.2007-46.0989
				c-0.0858-10.8493,3.9023-20.0691,8.791-28.0881l-4.5027,5.0601l-3.8594,0.1715l-3.1304,6.0894l-5.1459-0.2144l-2.3585,4.8029
				l-5.7892-2.5729l-3.3448,6.0894l-5.2317-1.5867c-4.717,7.9333-8.791,17.5818-8.791,27.2734v45.7129
				c0,0,0,22.8994,22.8994,22.8994L697.1006,720c0,0,22.8994,0,22.8994-22.8994V559.6617c0-22.8994-27.9166-24.7433-27.9166-24.7433
				c5.5748,11.5355,7.1185,22.0846,7.29,33.7916c0.3002,17.4961-3.3448,42.754-5.8749,60.9363
				c-2.4014,15.0089-5.1459,27.6164-11.0637,37.1364C686.0369,659.4496,686.7659,639.981,686.0798,635.0065z"/>
		</g>
		<g>
			<path class="st1" d="M560.5646,618.8827c-1.0507,0.8362-1.8547,1.4366-1.7903,1.5652l2.4229,1.0721l2.3585-2.38l2.5301,1.9512
				l2.0155-1.994l2.0583,1.265l2.3371-2.8517l4.0524,0.6218c2.0369-2.0155,4.2025-3.7523,6.1537-5.3389
				c7.1829-5.8749,14.2585-9.1554,24.4002-11.3424l8.4908-9.6057c0,0-47.4068-9.2198-41.6819,0.6861
				c5.8749,10.1632-13.2936,12.7576-16.8314,15.9738l11.3425,4.2025C567.2007,613.844,562.9874,616.9744,560.5646,618.8827
				L560.5646,618.8827L560.5646,618.8827z"/>
			<path class="st1" d="M615.0148,594.6111c-3.0447,0.4073-5.1674,3.2162-4.76,6.2609c0.4074,3.0447,3.2162,5.1674,6.2609,4.7599
				c3.0447-0.4073,16.1882-4.717,15.7808-7.7617c-0.0428-0.2787-0.1929-0.5361-0.4288-0.7719
				c2.4229,1.7153,4.3955,3.9023,5.8749,6.8398c9.9488,20.6909-3.9238,35.9786-23.0494,36.6003
				c-5.4247,0.0429-10.0345-1.9512-14.0441-4.3954l2.5301,2.2513l0.0858,1.9297l3.0447,1.5652l-0.1072,2.5729l2.4014,1.1793
				l-1.2864,2.8946l3.0446,1.6724l-0.7933,2.6158c3.9667,2.3585,8.791,4.3954,13.6367,4.3954l22.8564,0.0001
				c0,0,11.4497,0,11.4497-11.4497v-56.6694c0,0,0-11.4496-11.4496-11.4496l-68.7195-0.0001
				c-11.4496,0-12.3716,13.9583-12.3716,13.9583c5.7677-2.7874,11.0423-3.5593,16.8958-3.645
				c8.748-0.1501,21.377,1.6724,30.4681,2.9375c7.5045,1.2007,13.8082,2.5729,18.5682,5.5319
				C627.2364,594.6326,617.502,594.2681,615.0148,594.6111z"/>
		</g>
		<g>
			<path class="st1" d="M526.106,442.4633c-2.1013,1.6724-3.7094,2.8731-3.5807,3.1304l4.8457,2.1441l4.7171-4.76l5.0602,3.9023
				l4.0309-3.9881l4.1168,2.5301l4.6742-5.7034l8.1049,1.2436c4.0739-4.031,8.405-7.5045,12.3073-10.6778
				c14.3657-11.7498,28.517-18.3109,48.8005-22.6849l16.9816-19.2114c0,0-94.8136-18.4396-83.3639,1.3722
				c11.7498,20.3264-26.5873,25.5152-33.6629,31.9476l22.6849,8.405C539.3782,432.386,530.9518,438.6468,526.106,442.4633
				L526.106,442.4633L526.106,442.4633z"/>
			<path class="st1" d="M635.0065,393.9202c-6.0894,0.8148-10.3347,6.4324-9.52,12.5218c0.8148,6.0893,6.4324,10.3347,12.5217,9.52
				c6.0894-0.8148,32.3764-9.4342,31.5616-15.5235c-0.0858-0.5575-0.3859-1.0721-0.8576-1.5438
				c4.8457,3.4306,8.7909,7.8047,11.7498,13.6796c19.8975,41.3818-7.8475,71.9571-46.0989,73.2007
				c-10.8493,0.0858-20.0691-3.9023-28.0881-8.791l5.0601,4.5027l0.1715,3.8595l6.0894,3.1304l-0.2144,5.1459l4.8029,2.3586
				l-2.5729,5.7892l6.0894,3.3448l-1.5867,5.2317c7.9333,4.7171,17.5818,8.791,27.2734,8.791h45.7129c0,0,22.8994,0,22.8994-22.8993
				L720,382.8994c0,0,0-22.8994-22.8994-22.8994H559.6617c-22.8994,0-24.7433,27.9166-24.7433,27.9166
				c11.5355-5.5748,22.0846-7.1185,33.7916-7.29c17.4961-0.3002,42.754,3.3448,60.9363,5.8749
				c15.0089,2.4015,27.6164,5.1459,37.1364,11.0638C659.4496,393.9631,639.981,393.2341,635.0065,393.9202z"/>
		</g>
		<g>
			<path class="st1" d="M618.8827,519.4354c0.8362,1.0507,1.4366,1.8547,1.5652,1.7903l1.0721-2.4229l-2.38-2.3585l1.9512-2.5301
				l-1.994-2.0155l1.265-2.0583l-2.8517-2.3371l0.6218-4.0524c-2.0155-2.0369-3.7523-4.2025-5.3389-6.1537
				c-5.8749-7.1829-9.1554-14.2585-11.3424-24.4002l-9.6057-8.4908c0,0-9.2198,47.4068,0.6861,41.6819
				c10.1632-5.8749,12.7576,13.2936,15.9738,16.8314l4.2025-11.3424C613.844,512.7993,616.9744,517.0126,618.8827,519.4354
				L618.8827,519.4354L618.8827,519.4354z"/>
			<path class="st1" d="M594.6111,464.9852c0.4073,3.0447,3.2162,5.1674,6.2609,4.76c3.0447-0.4074,5.1674-3.2162,4.7599-6.2609
				c-0.4073-3.0446-4.717-16.1882-7.7617-15.7808c-0.2787,0.0429-0.5361,0.193-0.7719,0.4288
				c1.7153-2.4229,3.9023-4.3955,6.8398-5.8749c20.6909-9.9488,35.9786,3.9238,36.6003,23.0494
				c0.0429,5.4247-1.9512,10.0345-4.3954,14.0441l2.2513-2.5301l1.9297-0.0858l1.5652-3.0446l2.5729,0.1072l1.1793-2.4015
				l2.8946,1.2865l1.6724-3.0447l2.6158,0.7933c2.3585-3.9666,4.3954-8.791,4.3954-13.6367l0.0001-22.8564
				c0,0,0-11.4497-11.4497-11.4497h-56.6694c0,0-11.4496,0-11.4496,11.4496l-0.0001,68.7195
				c0,11.4496,13.9583,12.3716,13.9583,12.3716c-2.7874-5.7677-3.5593-11.0423-3.645-16.8958
				c-0.1501-8.7481,1.6724-21.377,2.9375-30.4681c1.2007-7.5045,2.5729-13.8082,5.5319-18.5682
				C594.6326,452.7636,594.2681,462.498,594.6111,464.9852z"/>
		</g>
		<g>
			<path class="st1" d="M553.894,637.5366c2.1013-1.6724,3.7094-2.8731,3.5807-3.1304l-4.8458-2.1441l-4.7171,4.7599l-5.0601-3.9023
				l-4.031,3.988l-4.1167-2.53l-4.6742,5.7034l-8.1049-1.2436c-4.0739,4.0309-8.405,7.5045-12.3073,10.6777
				c-14.3657,11.7499-28.517,18.3109-48.8005,22.6849l-16.9815,19.2114c0,0,94.8135,18.4396,83.3639-1.3723
				c-11.7498-20.3264,26.5873-25.5151,33.6629-31.9476l-22.6849-8.405C540.6218,647.6141,549.0482,641.3532,553.894,637.5366
				L553.894,637.5366L553.894,637.5366z"/>
			<path class="st1" d="M444.9934,686.0798c6.0893-0.8148,10.3347-6.4324,9.52-12.5217s-6.4324-10.3347-12.5217-9.52
				c-6.0894,0.8148-32.3764,9.4341-31.5616,15.5235c0.0858,0.5574,0.3859,1.0721,0.8576,1.5438
				c-4.8457-3.4306-8.7909-7.8046-11.7498-13.6796c-19.8975-41.3818,7.8476-71.9571,46.0989-73.2007
				c10.8493-0.0858,20.0691,3.9023,28.0881,8.791l-5.0602-4.5027l-0.1715-3.8594l-6.0894-3.1304l0.2144-5.1459l-4.8029-2.3585
				l2.573-5.7892l-6.0894-3.3448l1.5867-5.2317c-7.9333-4.717-17.5819-8.791-27.2734-8.791h-45.7129c0,0-22.8993,0-22.8993,22.8994
				L360,697.1006c0,0,0,22.8994,22.8993,22.8994h137.439c22.8994,0,24.7433-27.9166,24.7433-27.9166
				c-11.5355,5.5748-22.0845,7.1185-33.7915,7.29c-17.4961,0.3002-42.754-3.3448-60.9363-5.8749
				c-15.0089-2.4014-27.6164-5.1459-37.1364-11.0637C420.5503,686.0369,440.019,686.7659,444.9934,686.0798z"/>
		</g>
		<g>
			<path class="st1" d="M461.1173,560.5646c-0.8362-1.0507-1.4366-1.8547-1.5652-1.7903l-1.0721,2.4229l2.38,2.3585l-1.9511,2.5301
				l1.994,2.0155l-1.265,2.0583l2.8517,2.3371l-0.6218,4.0524c2.0155,2.0369,3.7522,4.2025,5.3389,6.1537
				c5.8749,7.1829,9.1555,14.2585,11.3425,24.4002l9.6057,8.4908c0,0,9.2198-47.4068-0.6861-41.6819
				c-10.1632,5.8749-12.7576-13.2936-15.9738-16.8314l-4.2025,11.3425C466.156,567.2007,463.0256,562.9874,461.1173,560.5646
				L461.1173,560.5646L461.1173,560.5646z"/>
			<path class="st1" d="M485.3889,615.0148c-0.4074-3.0447-3.2162-5.1674-6.2609-4.76s-5.1674,3.2162-4.76,6.2609
				s4.7171,16.1882,7.7617,15.7808c0.2787-0.0428,0.536-0.1929,0.7719-0.4288c-1.7153,2.4229-3.9023,4.3955-6.8398,5.8749
				c-20.6909,9.9488-35.9785-3.9238-36.6003-23.0494c-0.0429-5.4247,1.9512-10.0345,4.3955-14.0441l-2.2513,2.5301l-1.9297,0.0858
				l-1.5652,3.0447l-2.5729-0.1072l-1.1793,2.4014l-2.8946-1.2864l-1.6724,3.0446l-2.6158-0.7933
				c-2.3586,3.9667-4.3955,8.791-4.3955,13.6367v22.8564c0,0,0,11.4497,11.4497,11.4497h56.6694c0,0,11.4497,0,11.4497-11.4496
				v-68.7195c0-11.4496-13.9583-12.3716-13.9583-12.3716c2.7874,5.7677,3.5593,11.0423,3.645,16.8958
				c0.1501,8.748-1.6724,21.377-2.9375,30.4681c-1.2007,7.5045-2.573,13.8082-5.5319,18.5682
				C485.3674,627.2364,485.7319,617.502,485.3889,615.0148z"/>
		</g>
		<g>
			<path class="st1" d="M401.2317,477.8094c0.8362,1.0506,1.4366,1.8547,1.5652,1.7903l1.0721-2.4229l-2.38-2.3585l1.9512-2.5301
				l-1.994-2.0155l1.265-2.0584l-2.8517-2.3371l0.6218-4.0524c-2.0155-2.0369-3.7522-4.2025-5.3389-6.1537
				c-5.8749-7.1829-9.1554-14.2585-11.3424-24.4002l-9.6057-8.4908c0,0-9.2198,47.4068,0.6861,41.6819
				c10.1632-5.8749,12.7576,13.2936,15.9738,16.8315l4.2025-11.3425C396.193,471.1732,399.3234,475.3865,401.2317,477.8094
				L401.2317,477.8094L401.2317,477.8094z"/>
			<path class="st1" d="M376.9601,423.3591c0.4074,3.0446,3.2162,5.1674,6.2609,4.76s5.1674-3.2162,4.76-6.2609
				c-0.4074-3.0446-4.7171-16.1882-7.7617-15.7808c-0.2787,0.0429-0.536,0.193-0.7719,0.4288
				c1.7153-2.4229,3.9023-4.3955,6.8398-5.8749c20.6909-9.9488,35.9786,3.9238,36.6003,23.0494
				c0.0429,5.4247-1.9511,10.0345-4.3955,14.0441l2.2513-2.5301l1.9297-0.0858l1.5652-3.0447l2.573,0.1072l1.1793-2.4014
				l2.8946,1.2865l1.6724-3.0447l2.6158,0.7933c2.3586-3.9666,4.3955-8.7909,4.3955-13.6367v-22.8564c0,0,0-11.4497-11.4497-11.4497
				h-56.6694c0,0-11.4497,0-11.4497,11.4497v68.7195c0,11.4497,13.9583,12.3716,13.9583,12.3716
				c-2.7874-5.7677-3.5592-11.0423-3.645-16.8958c-0.1501-8.7481,1.6725-21.377,2.9375-30.4681
				c1.2007-7.5045,2.573-13.8082,5.5319-18.5682C376.9815,411.1375,376.617,420.8719,376.9601,423.3591z"/>
		</g>
		<g>
			<path class="st1" d="M477.9059,363.4842c-0.8362-1.0507-1.4366-1.8547-1.5652-1.7904l-1.0721,2.4229l2.38,2.3586l-1.9512,2.5301
				l1.994,2.0155l-1.265,2.0583l2.8517,2.3371l-0.6218,4.0524c2.0155,2.0369,3.7522,4.2025,5.3389,6.1537
				c5.8749,7.1828,9.1554,14.2585,11.3424,24.4002l9.6057,8.4908c0,0,9.2198-47.4068-0.6861-41.6819
				c-10.1632,5.8749-12.7576-13.2936-15.9738-16.8315l-4.2025,11.3425C482.9446,370.1203,479.8142,365.9071,477.9059,363.4842
				L477.9059,363.4842L477.9059,363.4842z"/>
			<path class="st1" d="M502.1775,417.9345c-0.4074-3.0447-3.2162-5.1674-6.2609-4.76s-5.1674,3.2162-4.76,6.2609
				s4.7171,16.1882,7.7617,15.7808c0.2787-0.0429,0.536-0.193,0.7719-0.4288c-1.7153,2.4229-3.9023,4.3955-6.8398,5.8749
				c-20.6909,9.9488-35.9786-3.9238-36.6003-23.0495c-0.0429-5.4247,1.9512-10.0345,4.3955-14.0441l-2.2513,2.5301l-1.9297,0.0858
				l-1.5652,3.0447l-2.573-0.1072l-1.1793,2.4014l-2.8946-1.2865l-1.6724,3.0447l-2.6158-0.7933
				c-2.3586,3.9666-4.3955,8.791-4.3955,13.6367v22.8565c0,0,0,11.4496,11.4496,11.4497h56.6694c0,0,11.4497,0,11.4497-11.4496
				l0.0001-68.7195c0-11.4496-13.9583-12.3716-13.9583-12.3716c2.7874,5.7677,3.5592,11.0423,3.645,16.8958
				c0.1501,8.748-1.6725,21.377-2.9375,30.4681c-1.2007,7.5045-2.573,13.8082-5.5319,18.5682
				C502.1561,430.156,502.5206,420.4217,502.1775,417.9345z"/>
		</g>
		<g>
			<path class="st1" d="M625.1078,536.4193c1.0507-0.8362,1.8547-1.4365,1.7903-1.5652l-2.4229-1.0721l-2.3585,2.38l-2.5301-1.9512
				l-2.0155,1.994l-2.0583-1.265l-2.3371,2.8517l-4.0524-0.6218c-2.0369,2.0154-4.2025,3.7522-6.1537,5.3389
				c-7.1829,5.8749-14.2585,9.1555-24.4002,11.3425l-8.4908,9.6057c0,0,47.4068,9.2198,41.6819-0.6862
				c-5.8749-10.1631,13.2936-12.7576,16.8314-15.9738l-11.3425-4.2025C618.4717,541.4581,622.6849,538.3276,625.1078,536.4193
				L625.1078,536.4193L625.1078,536.4193z"/>
			<path class="st1" d="M570.6575,560.6909c3.0447-0.4074,5.1674-3.2162,4.76-6.2609c-0.4074-3.0447-3.2162-5.1674-6.2609-4.76
				c-3.0447,0.4074-16.1882,4.7171-15.7808,7.7618c0.0428,0.2787,0.1929,0.536,0.4288,0.7719
				c-2.4229-1.7153-4.3954-3.9023-5.8749-6.8398c-9.9488-20.6909,3.9238-35.9785,23.0494-36.6003
				c5.4246-0.0428,10.0345,1.9512,14.0441,4.3955l-2.5301-2.2513l-0.0858-1.9297l-3.0447-1.5652l0.1072-2.573l-2.4014-1.1793
				l1.2864-2.8946l-3.0447-1.6724l0.7933-2.6158c-3.9666-2.3586-8.7909-4.3955-13.6367-4.3955h-22.8564
				c0,0-11.4497,0-11.4497,11.4496v56.6694c0,0,0,11.4497,11.4496,11.4497h68.72c11.4496,0,12.3716-13.9583,12.3716-13.9583
				c-5.7677,2.7874-11.0423,3.5593-16.8958,3.645c-8.748,0.1501-21.377-1.6724-30.4681-2.9374
				c-7.5045-1.2007-13.8082-2.573-18.5682-5.5319C558.436,560.6694,568.1703,561.0339,570.6575,560.6909z"/>
		</g>
		<g>
			<path class="st1" d="M431.2138,501.6628c-1.0506,0.8362-1.8547,1.4366-1.7903,1.5652l2.4229,1.0721l2.3586-2.38l2.5301,1.9512
				l2.0155-1.994l2.0583,1.265l2.3371-2.8517l4.0524,0.6218c2.037-2.0155,4.2025-3.7523,6.1537-5.3389
				c7.1828-5.8749,14.2585-9.1555,24.4002-11.3424l8.4908-9.6057c0,0-47.4068-9.2198-41.6819,0.6861
				c5.8749,10.1632-13.2936,12.7576-16.8315,15.9738l11.3425,4.2025C437.8499,496.6241,433.6367,499.7545,431.2138,501.6628
				L431.2138,501.6628L431.2138,501.6628z"/>
			<path class="st1" d="M485.6641,477.3912c-3.0447,0.4074-5.1674,3.2162-4.76,6.2609c0.4074,3.0446,3.2162,5.1674,6.2609,4.76
				s16.1882-4.7171,15.7808-7.7618c-0.0429-0.2787-0.193-0.536-0.4288-0.7719c2.4229,1.7153,4.3955,3.9023,5.8749,6.8398
				c9.9487,20.6909-3.9238,35.9785-23.0495,36.6004c-5.4247,0.0428-10.0345-1.9512-14.0441-4.3955l2.5301,2.2513l0.0858,1.9297
				l3.0447,1.5652l-0.1072,2.5729l2.4014,1.1793l-1.2865,2.8945l3.0446,1.6724l-0.7933,2.6158
				c3.9666,2.3586,8.791,4.3955,13.6367,4.3955h22.8565c0,0,11.4496,0,11.4496-11.4496l0.0001-56.6694
				c0,0,0-11.4497-11.4496-11.4497l-68.7195-0.0001c-11.4497,0-12.3717,13.9583-12.3717,13.9583
				c5.7677-2.7874,11.0423-3.5593,16.8958-3.645c8.748-0.1501,21.377,1.6724,30.4681,2.9375
				c7.5045,1.2007,13.8082,2.573,18.5682,5.5319C497.8857,477.4127,488.1513,477.0482,485.6641,477.3912z"/>
		</g>
		<g>
			<path class="st1" d="M456.947,519.6307c1.0506-0.8362,1.8547-1.4366,1.7903-1.5652l-2.4229-1.0721l-2.3586,2.38l-2.5301-1.9512
				l-2.0155,1.994l-2.0583-1.265l-2.3371,2.8517l-4.0524-0.6218c-2.0369,2.0155-4.2025,3.7523-6.1537,5.3389
				c-7.1828,5.8749-14.2585,9.1555-24.4002,11.3424l-8.4908,9.6057c0,0,47.4068,9.2198,41.6819-0.6861
				c-5.8749-10.1631,13.2936-12.7576,16.8315-15.9738l-11.3425-4.2025C450.3109,524.6694,454.5241,521.5389,456.947,519.6307
				L456.947,519.6307L456.947,519.6307z"/>
			<path class="st1" d="M402.4967,543.9023c3.0447-0.4074,5.1674-3.2162,4.76-6.2609c-0.4074-3.0446-3.2162-5.1674-6.2609-4.7599
				c-3.0447,0.4073-16.1882,4.7171-15.7808,7.7618c0.0429,0.2787,0.193,0.536,0.4288,0.7719
				c-2.4229-1.7153-4.3955-3.9023-5.8749-6.8398c-9.9488-20.6909,3.9238-35.9785,23.0494-36.6003
				c5.4247-0.0429,10.0345,1.9512,14.0441,4.3955l-2.5301-2.2513l-0.0858-1.9297l-3.0447-1.5652l0.1072-2.5729l-2.4014-1.1793
				l1.2865-2.8946l-3.0447-1.6725l0.7933-2.6158c-3.9666-2.3586-8.791-4.3955-13.6367-4.3955h-22.8564
				c0,0-11.4497,0-11.4497,11.4497v56.6694c0,0,0,11.4496,11.4496,11.4496l68.7195,0.0001
				c11.4497,0,12.3716-13.9583,12.3716-13.9583c-5.7677,2.7874-11.0423,3.5593-16.8958,3.645
				c-8.7481,0.1501-21.377-1.6724-30.4681-2.9375c-7.5045-1.2007-13.8082-2.5729-18.5682-5.5319
				C390.2751,543.8808,400.0095,544.2453,402.4967,543.9023z"/>
		</g>
	</g>
	<g>
		<g>
			<path class="st1" d="M193.894,637.5366c2.1013-1.6724,3.7094-2.8731,3.5807-3.1304l-4.8457-2.1442l-4.7171,4.76l-5.0602-3.9023
				l-4.031,3.988l-4.1167-2.53l-4.6742,5.7034l-8.1048-1.2436c-4.0739,4.0309-8.405,7.5045-12.3073,10.6778
				c-14.3657,11.7498-28.517,18.3109-48.8005,22.6849l-16.9815,19.2114c0,0,94.8136,18.4396,83.3639-1.3722
				c-11.7498-20.3264,26.5873-25.5152,33.6629-31.9476l-22.6849-8.405C180.6218,647.6141,189.0482,641.3532,193.894,637.5366
				L193.894,637.5366L193.894,637.5366z"/>
			<path class="st1" d="M84.9934,686.0798c6.0893-0.8148,10.3347-6.4324,9.52-12.5217s-6.4324-10.3347-12.5217-9.52
				c-6.0893,0.8148-32.3764,9.4341-31.5616,15.5235c0.0858,0.5575,0.3859,1.0721,0.8577,1.5438
				c-4.8457-3.4306-8.7909-7.8046-11.7498-13.6796c-19.8975-41.3818,7.8476-71.9571,46.0989-73.2007
				c10.8493-0.0858,20.0691,3.9023,28.0881,8.791l-5.0602-4.5027l-0.1715-3.8594l-6.0893-3.1304l0.2144-5.1459l-4.8029-2.3586
				l2.573-5.7891l-6.0893-3.3449l1.5867-5.2316c-7.9333-4.7171-17.5819-8.791-27.2734-8.791l-45.7129-0.0001
				c0,0-22.8993,0-22.8993,22.8994L0,697.1006C0,697.1006,0,720,22.8993,720h137.439c22.8994,0,24.7433-27.9166,24.7433-27.9166
				c-11.5354,5.5748-22.0846,7.1185-33.7915,7.29c-17.4961,0.3002-42.754-3.3448-60.9363-5.8749
				c-15.0089-2.4014-27.6164-5.1459-37.1364-11.0637C60.5503,686.0369,80.0191,686.7659,84.9934,686.0798z"/>
		</g>
		<g>
			<path class="st1" d="M101.1173,560.5646c-0.8362-1.0507-1.4366-1.8547-1.5652-1.7903l-1.0721,2.4229l2.38,2.3585l-1.9512,2.5301
				l1.994,2.0155l-1.265,2.0583l2.8517,2.3371l-0.6218,4.0524c2.0155,2.0369,3.7522,4.2025,5.3389,6.1537
				c5.8749,7.1829,9.1554,14.2585,11.3425,24.4002l9.6057,8.4908c0,0,9.2198-47.4067-0.6861-41.6819
				c-10.1632,5.8749-12.7576-13.2936-15.9738-16.8314l-4.2025,11.3425C106.156,567.2007,103.0256,562.9874,101.1173,560.5646
				L101.1173,560.5646L101.1173,560.5646z"/>
			<path class="st1" d="M125.3889,615.0148c-0.4074-3.0447-3.2162-5.1674-6.2609-4.76s-5.1674,3.2162-4.76,6.2609
				c0.4074,3.0446,4.7171,16.1882,7.7618,15.7808c0.2787-0.0429,0.536-0.193,0.7719-0.4288
				c-1.7153,2.4229-3.9023,4.3954-6.8398,5.8749c-20.6909,9.9488-35.9786-3.9238-36.6003-23.0494
				c-0.0429-5.4246,1.9512-10.0345,4.3955-14.0441l-2.2513,2.5301l-1.9297,0.0858l-1.5652,3.0447l-2.573-0.1072l-1.1793,2.4014
				l-2.8946-1.2864l-1.6724,3.0447l-2.6158-0.7933c-2.3585,3.9666-4.3955,8.7909-4.3955,13.6367v22.8564
				c0,0,0,11.4497,11.4497,11.4497h56.6694c0,0,11.4497,0,11.4497-11.4496v-68.7195c0-11.4496-13.9583-12.3716-13.9583-12.3716
				c2.7874,5.7677,3.5593,11.0423,3.645,16.8958c0.1501,8.7481-1.6724,21.377-2.9375,30.4681
				c-1.2007,7.5045-2.573,13.8082-5.5319,18.5682C125.3674,627.2364,125.7319,617.502,125.3889,615.0148z"/>
		</g>
		<g>
			<path class="st1" d="M277.5366,526.106c-1.6724-2.1013-2.8731-3.7094-3.1304-3.5807l-2.1442,4.8457l4.76,4.7171l-3.9023,5.0602
				l3.9881,4.0309l-2.5301,4.1168l5.7034,4.6742l-1.2436,8.1049c4.031,4.0739,7.5045,8.405,10.6778,12.3073
				c11.7498,14.3657,18.3109,28.517,22.6849,48.8005l19.2114,16.9816c0,0,18.4396-94.8135-1.3722-83.3639
				c-20.3264,11.7498-25.5152-26.5873-31.9475-33.6629l-8.405,22.6849C287.614,539.3782,281.3532,530.9518,277.5366,526.106
				L277.5366,526.106L277.5366,526.106z"/>
			<path class="st1" d="M326.0797,635.0065c-0.8148-6.0893-6.4324-10.3347-12.5217-9.52c-6.0893,0.8148-10.3347,6.4324-9.52,12.5217
				c0.8148,6.0894,9.4342,32.3765,15.5235,31.5617c0.5575-0.0858,1.0721-0.386,1.5438-0.8577
				c-3.4306,4.8457-7.8047,8.791-13.6796,11.7498c-41.3818,19.8975-71.9571-7.8475-73.2007-46.0989
				c-0.0858-10.8493,3.9023-20.0691,8.791-28.0881l-4.5027,5.0601l-3.8595,0.1715l-3.1304,6.0894l-5.1459-0.2144l-2.3586,4.8029
				l-5.7892-2.5729l-3.3448,6.0894l-5.2317-1.5867c-4.7171,7.9333-8.791,17.5818-8.791,27.2734v45.7129
				c0,0,0,22.8994,22.8993,22.8994L337.1006,720c0,0,22.8994,0,22.8994-22.8994V559.6617c0-22.8994-27.9166-24.7433-27.9166-24.7433
				c5.5747,11.5354,7.1185,22.0845,7.29,33.7915c0.3002,17.4962-3.3448,42.754-5.875,60.9363
				c-2.4014,15.0089-5.1459,27.6164-11.0637,37.1364C326.0369,659.4496,326.7659,639.981,326.0797,635.0065z"/>
		</g>
		<g>
			<path class="st1" d="M200.5645,618.8827c-1.0506,0.8362-1.8547,1.4366-1.7903,1.5652l2.4229,1.072l2.3586-2.3799l2.5301,1.9511
				l2.0155-1.994l2.0583,1.2651l2.3371-2.8517l4.0524,0.6218c2.0369-2.0155,4.2025-3.7523,6.1537-5.3389
				c7.1828-5.8749,14.2585-9.1555,24.4002-11.3425l8.4908-9.6057c0,0-47.4068-9.2198-41.6819,0.6861
				c5.8749,10.1632-13.2936,12.7576-16.8315,15.9738l11.3425,4.2025C207.2007,613.844,202.9874,616.9744,200.5645,618.8827
				L200.5645,618.8827L200.5645,618.8827z"/>
			<path class="st1" d="M255.0148,594.6111c-3.0447,0.4073-5.1674,3.2162-4.76,6.2609c0.4074,3.0447,3.2162,5.1674,6.2609,4.7599
				c3.0447-0.4073,16.1882-4.717,15.7808-7.7617c-0.0429-0.2787-0.193-0.5361-0.4288-0.7719
				c2.4229,1.7153,4.3954,3.9023,5.8749,6.8398c9.9488,20.6909-3.9238,35.9786-23.0495,36.6003
				c-5.4247,0.0429-10.0345-1.9512-14.0441-4.3954l2.5301,2.2513l0.0858,1.9297l3.0447,1.5652l-0.1072,2.5729l2.4014,1.1793
				l-1.2865,2.8946l3.0447,1.6724l-0.7933,2.6158c3.9666,2.3586,8.7909,4.3955,13.6367,4.3955h22.8564
				c0,0,11.4497,0,11.4497-11.4496v-56.6695c0,0,0-11.4496-11.4497-11.4496l-68.7195-0.0001
				c-11.4497,0-12.3717,13.9583-12.3717,13.9583c5.7677-2.7874,11.0423-3.5593,16.8958-3.645
				c8.7481-0.1501,21.377,1.6724,30.4681,2.9375c7.5045,1.2007,13.8082,2.5729,18.5682,5.5319
				C267.2364,594.6326,257.502,594.2681,255.0148,594.6111z"/>
		</g>
		<g>
			<path class="st1" d="M82.4633,553.894c1.6724,2.1013,2.8731,3.7094,3.1304,3.5807l2.1441-4.8457l-4.76-4.7171l3.9023-5.0602
				l-3.9881-4.0309l2.5301-4.1168l-5.7034-4.6742l1.2436-8.1049c-4.031-4.0739-7.5045-8.405-10.6778-12.3073
				c-11.7498-14.3657-18.3109-28.517-22.6849-48.8004l-19.2114-16.9816c0,0-18.4396,94.8135,1.3722,83.3639
				c20.3264-11.7498,25.5152,26.5873,31.9476,33.6629l8.405-22.6849C72.3859,540.6218,78.6468,549.0482,82.4633,553.894
				L82.4633,553.894L82.4633,553.894z"/>
			<path class="st1" d="M33.9202,444.9934c0.8148,6.0894,6.4324,10.3347,12.5217,9.52c6.0893-0.8148,10.3347-6.4324,9.52-12.5217
				c-0.8148-6.0894-9.4342-32.3764-15.5235-31.5616c-0.5575,0.0858-1.0721,0.3859-1.5438,0.8576
				c3.4306-4.8457,7.8047-8.7909,13.6796-11.7498c41.3818-19.8976,71.9571,7.8476,73.2007,46.0989
				c0.0858,10.8493-3.9023,20.0691-8.791,28.0881l4.5027-5.0601l3.8594-0.1715l3.1304-6.0894l5.1459,0.2144l2.3586-4.8029
				l5.7892,2.573l3.3448-6.0893l5.2317,1.5866c4.7171-7.9333,8.791-17.5819,8.791-27.2733v-45.7129c0,0,0-22.8994-22.8993-22.8994
				L22.8994,360C22.8994,360,0,360,0,382.8993v137.439c0,22.8994,27.9166,24.7433,27.9166,24.7433
				c-5.5747-11.5354-7.1185-22.0845-7.29-33.7915c-0.3002-17.4961,3.3449-42.754,5.875-60.9363
				c2.4014-15.0089,5.1459-27.6164,11.0637-37.1364C33.9631,420.5503,33.2341,440.019,33.9202,444.9934z"/>
		</g>
		<g>
			<path class="st1" d="M159.4354,461.1173c1.0506-0.8362,1.8547-1.4366,1.7903-1.5652l-2.4229-1.0721l-2.3586,2.38l-2.5301-1.9512
				l-2.0155,1.994l-2.0584-1.265l-2.3371,2.8517l-4.0524-0.6218c-2.0369,2.0155-4.2025,3.7522-6.1537,5.3389
				c-7.1828,5.8749-14.2585,9.1554-24.4002,11.3424l-8.4908,9.6057c0,0,47.4068,9.2198,41.6819-0.6861
				c-5.8749-10.1632,13.2936-12.7576,16.8315-15.9738l-11.3425-4.2025C152.7993,466.156,157.0125,463.0256,159.4354,461.1173
				L159.4354,461.1173L159.4354,461.1173z"/>
			<path class="st1" d="M104.9852,485.3889c3.0447-0.4074,5.1674-3.2162,4.76-6.2609c-0.4074-3.0447-3.2162-5.1674-6.2609-4.76
				s-16.1882,4.7171-15.7808,7.7617c0.0429,0.2787,0.193,0.536,0.4288,0.7719c-2.4229-1.7153-4.3955-3.9023-5.8749-6.8398
				c-9.9488-20.6909,3.9238-35.9786,23.0495-36.6003c5.4247-0.0429,10.0345,1.9511,14.0441,4.3955l-2.5301-2.2513l-0.0858-1.9297
				l-3.0447-1.5652l0.1072-2.573l-2.4014-1.1793l1.2865-2.8946l-3.0447-1.6724l0.7933-2.6158
				c-3.9666-2.3586-8.7909-4.3955-13.6367-4.3955H73.9381c0,0-11.4497,0-11.4497,11.4497v56.6694c0,0,0,11.4497,11.4497,11.4497
				h68.7195c11.4497,0,12.3717-13.9583,12.3717-13.9583c-5.7677,2.7874-11.0423,3.5592-16.8958,3.645
				c-8.7481,0.1501-21.377-1.6725-30.4681-2.9375c-7.5045-1.2007-13.8082-2.573-18.5682-5.5319
				C92.7636,485.3674,102.498,485.7319,104.9852,485.3889z"/>
		</g>
		<g>
			<path class="st1" d="M242.1906,401.2317c-1.0506,0.8362-1.8547,1.4366-1.7904,1.5652l2.4229,1.0721l2.3586-2.38l2.5301,1.9512
				l2.0155-1.994l2.0584,1.265l2.3371-2.8517l4.0524,0.6218c2.0369-2.0155,4.2025-3.7522,6.1537-5.3389
				c7.1829-5.8749,14.2585-9.1554,24.4002-11.3424l8.4908-9.6057c0,0-47.4068-9.2198-41.682,0.6861
				c5.8749,10.1632-13.2936,12.7576-16.8315,15.9738l11.3425,4.2025C248.8268,396.193,244.6135,399.3234,242.1906,401.2317
				L242.1906,401.2317L242.1906,401.2317z"/>
			<path class="st1" d="M296.6409,376.9601c-3.0447,0.4074-5.1674,3.2162-4.76,6.2609s3.2162,5.1674,6.2609,4.76
				s16.1882-4.7171,15.7808-7.7617c-0.0429-0.2787-0.193-0.536-0.4288-0.7719c2.4229,1.7153,4.3955,3.9023,5.8749,6.8398
				c9.9488,20.6909-3.9238,35.9785-23.0494,36.6003c-5.4247,0.0429-10.0345-1.9512-14.0441-4.3955l2.5301,2.2513l0.0858,1.9297
				l3.0447,1.5652l-0.1072,2.5729l2.4014,1.1793l-1.2865,2.8946l3.0446,1.6725l-0.7933,2.6158
				c3.9666,2.3586,8.791,4.3955,13.6367,4.3955h22.8565c0,0,11.4497,0,11.4497-11.4497v-56.6694c0,0,0-11.4497-11.4497-11.4497
				h-68.7195c-11.4497,0-12.3717,13.9583-12.3717,13.9583c5.7677-2.7874,11.0423-3.5593,16.8958-3.645
				c8.748-0.1501,21.377,1.6724,30.4681,2.9375c7.5045,1.2007,13.8082,2.573,18.5682,5.5319
				C308.8625,376.9816,299.1281,376.6171,296.6409,376.9601z"/>
		</g>
		<g>
			<path class="st1" d="M356.5158,477.9059c1.0506-0.8362,1.8547-1.4366,1.7903-1.5652l-2.4229-1.0721l-2.3586,2.38l-2.5301-1.9512
				l-2.0155,1.994l-2.0584-1.265l-2.3371,2.8517l-4.0524-0.6218c-2.0369,2.0155-4.2025,3.7522-6.1537,5.3389
				c-7.1829,5.8749-14.2585,9.1555-24.4002,11.3425l-8.4908,9.6057c0,0,47.4068,9.2198,41.6819-0.6861
				c-5.8749-10.1632,13.2936-12.7576,16.8315-15.9738l-11.3425-4.2025C349.8797,482.9446,354.0929,479.8142,356.5158,477.9059
				L356.5158,477.9059L356.5158,477.9059z"/>
			<path class="st1" d="M302.0655,502.1775c3.0447-0.4074,5.1674-3.2162,4.76-6.2609c-0.4074-3.0447-3.2162-5.1674-6.2609-4.76
				c-3.0447,0.4074-16.1882,4.7171-15.7808,7.7617c0.0429,0.2787,0.193,0.536,0.4288,0.7719
				c-2.4229-1.7153-4.3954-3.9023-5.8749-6.8398c-9.9488-20.6909,3.9238-35.9785,23.0494-36.6003
				c5.4247-0.0429,10.0345,1.9512,14.0441,4.3955l-2.5301-2.2513l-0.0858-1.9297l-3.0447-1.5652l0.1072-2.573l-2.4014-1.1793
				l1.2865-2.8946l-3.0446-1.6724l0.7933-2.6158c-3.9666-2.3586-8.7909-4.3955-13.6367-4.3955h-22.8565
				c0,0-11.4497,0-11.4497,11.4496v56.6694c0,0,0,11.4497,11.4497,11.4497l68.7195,0.0001
				c11.4497,0,12.3717-13.9583,12.3717-13.9583c-5.7677,2.7874-11.0423,3.5593-16.8958,3.645
				c-8.748,0.1501-21.377-1.6724-30.4681-2.9375c-7.5045-1.2007-13.8082-2.573-18.5682-5.5319
				C289.844,502.1561,299.5783,502.5206,302.0655,502.1775z"/>
		</g>
		<g>
			<path class="st1" d="M183.5807,625.1078c0.8362,1.0507,1.4366,1.8547,1.5652,1.7903l1.0721-2.4229l-2.38-2.3585l1.9512-2.5301
				l-1.994-2.0155l1.265-2.0583l-2.8517-2.3371l0.6218-4.0524c-2.0155-2.0369-3.7522-4.2025-5.3389-6.1537
				c-5.8749-7.1828-9.1555-14.2585-11.3425-24.4002l-9.6057-8.4908c0,0-9.2198,47.4068,0.6861,41.6819
				c10.1632-5.8749,12.7576,13.2936,15.9738,16.8315l4.2025-11.3425C178.5419,618.4717,181.6724,622.6849,183.5807,625.1078
				L183.5807,625.1078L183.5807,625.1078z"/>
			<path class="st1" d="M159.3091,570.6575c0.4074,3.0447,3.2162,5.1674,6.2609,4.76s5.1674-3.2162,4.76-6.2609
				s-4.7171-16.1882-7.7618-15.7808c-0.2787,0.0428-0.536,0.1929-0.7719,0.4288c1.7153-2.4229,3.9023-4.3955,6.8398-5.8749
				c20.6909-9.9488,35.9785,3.9238,36.6003,23.0494c0.0429,5.4247-1.9512,10.0345-4.3955,14.0441l2.2513-2.5301l1.9297-0.0858
				l1.5652-3.0447l2.573,0.1072l1.1793-2.4014l2.8946,1.2864l1.6724-3.0446l2.6158,0.7933
				c2.3586-3.9667,4.3955-8.791,4.3955-13.6367v-22.8564c0,0,0-11.4497-11.4497-11.4497h-56.6694c0,0-11.4497,0-11.4497,11.4496
				v68.7195c0,11.4496,13.9583,12.3716,13.9583,12.3716c-2.7874-5.7677-3.5593-11.0423-3.645-16.8958
				c-0.1501-8.748,1.6724-21.377,2.9375-30.4681c1.2007-7.5045,2.573-13.8082,5.5319-18.5682
				C159.3305,558.436,158.966,568.1703,159.3091,570.6575z"/>
		</g>
		<g>
			<path class="st1" d="M218.3372,431.2138c-0.8362-1.0506-1.4366-1.8547-1.5652-1.7903l-1.0721,2.4229l2.38,2.3586l-1.9512,2.5301
				l1.994,2.0155l-1.265,2.0584l2.8517,2.3371l-0.6218,4.0524c2.0155,2.0369,3.7522,4.2025,5.3389,6.1537
				c5.8749,7.1829,9.1554,14.2585,11.3424,24.4002l9.6057,8.4908c0,0,9.2198-47.4068-0.6861-41.6819
				c-10.1632,5.8749-12.7576-13.2936-15.9738-16.8315l-4.2025,11.3425C223.3759,437.8499,220.2455,433.6367,218.3372,431.2138
				L218.3372,431.2138L218.3372,431.2138z"/>
			<path class="st1" d="M242.6087,485.6641c-0.4074-3.0447-3.2162-5.1674-6.2609-4.76c-3.0447,0.4074-5.1674,3.2162-4.76,6.2609
				c0.4074,3.0447,4.7171,16.1882,7.7618,15.7808c0.2787-0.0429,0.536-0.193,0.7719-0.4288
				c-1.7153,2.4229-3.9023,4.3954-6.8398,5.8749c-20.6909,9.9488-35.9785-3.9238-36.6003-23.0494
				c-0.0429-5.4247,1.9512-10.0345,4.3955-14.0441l-2.2513,2.5301l-1.9297,0.0858l-1.5652,3.0447l-2.573-0.1072l-1.1793,2.4014
				l-2.8946-1.2865l-1.6724,3.0447l-2.6158-0.7933c-2.3586,3.9666-4.3955,8.7909-4.3955,13.6367v22.8564
				c0,0,0,11.4496,11.4497,11.4496l56.6694,0.0001c0,0,11.4497,0,11.4497-11.4496v-68.7195
				c0-11.4497-13.9583-12.3717-13.9583-12.3717c2.7874,5.7677,3.5593,11.0423,3.645,16.8958
				c0.1501,8.748-1.6724,21.377-2.9375,30.4681c-1.2007,7.5045-2.573,13.8082-5.5319,18.5682
				C242.5873,497.8857,242.9518,488.1513,242.6087,485.6641z"/>
		</g>
		<g>
			<path class="st1" d="M200.3693,456.947c0.8362,1.0506,1.4366,1.8547,1.5652,1.7903l1.0721-2.4229l-2.38-2.3586l1.9512-2.5301
				l-1.994-2.0155l1.265-2.0584l-2.8517-2.3371l0.6218-4.0524c-2.0155-2.0369-3.7522-4.2025-5.3389-6.1537
				c-5.8749-7.1829-9.1554-14.2585-11.3424-24.4002l-9.6057-8.4908c0,0-9.2198,47.4068,0.6861,41.6819
				c10.1632-5.8749,12.7576,13.2936,15.9738,16.8315l4.2025-11.3425C195.3306,450.3109,198.461,454.5241,200.3693,456.947
				L200.3693,456.947L200.3693,456.947z"/>
			<path class="st1" d="M176.0977,402.4967c0.4074,3.0446,3.2162,5.1674,6.2609,4.76c3.0447-0.4074,5.1674-3.2162,4.76-6.2609
				c-0.4074-3.0447-4.7171-16.1882-7.7618-15.7809c-0.2787,0.0429-0.536,0.193-0.7719,0.4288
				c1.7153-2.4229,3.9023-4.3955,6.8398-5.8749c20.6909-9.9488,35.9785,3.9238,36.6003,23.0494
				c0.0429,5.4247-1.9512,10.0345-4.3955,14.0441l2.2513-2.5301l1.9297-0.0858l1.5652-3.0447l2.573,0.1072l1.1793-2.4014
				l2.8946,1.2865l1.6724-3.0447l2.6158,0.7933c2.3586-3.9666,4.3955-8.7909,4.3955-13.6367v-22.8564c0,0,0-11.4497-11.4497-11.4497
				h-56.6694c0,0-11.4497,0-11.4497,11.4497v68.7195c0,11.4497,13.9583,12.3716,13.9583,12.3716
				c-2.7874-5.7677-3.5593-11.0423-3.645-16.8958c-0.1501-8.7481,1.6724-21.377,2.9375-30.4681
				c1.2007-7.5045,2.573-13.8082,5.5319-18.5682C176.1192,390.2752,175.7547,400.0095,176.0977,402.4967z"/>
		</g>
	</g>
</g>
<rect x="190.1294" y="503.8966" class="st2" width="4.4684" height="4.4684"/>
<g>
	<path class="st3" d="M327.6858,356.4116h28.5979c4.435,0,8.0432-3.6082,8.0432-8.0432V248.276c0-4.435-3.6082-8.0432-8.0432-8.0432
		h-14.3271c-7.3918,0-13.4054-6.0135-13.4054-13.4052l0.0283-14.2902c0-4.4438-3.6082-8.0519-8.0432-8.0519H202.5702
		c-4.4351,0-8.0433,3.6081-8.0433,8.0431v135.8399c0,4.435,3.6082,8.0431,8.0433,8.0431h28.5978
		c4.435,0,8.0432-3.6081,8.0432-8.0431v-94.7349c0-2.4639,2.0045-4.4685,4.4684-4.4685h8.9368c2.4639,0,4.4684,2.0045,4.4684,4.4684
		V312.53c0,4.4351,3.6082,8.0432,8.0432,8.0432h28.5979c4.435,0,8.0432-3.6082,8.0432-8.0432v-58.8963
		c0-2.4639,2.0045-4.4684,4.4684-4.4684h8.8967c2.463,0,4.4674,2.0036,4.4684,4.4664l0.04,94.7387
		C319.6426,352.8035,323.2508,356.4116,327.6858,356.4116z"/>
	<path class="st3" d="M447.5812,202.6982L447.5812,202.6982c-42.8718-0.0001-77.7505,34.8786-77.7505,77.7503
		c0,42.8718,34.8789,77.7505,77.7505,77.7505s77.7505-34.8787,77.7505-77.7504S490.4528,202.6982,447.5812,202.6982z
		 M460.9865,298.3222h-4.4685v4.4684h-13.405v-8.9368h-4.4684l-0.0001-8.9368h-22.012c-0.2102-1.4647-0.3301-2.9547-0.3301-4.4684
		c0-4.7543,1.0679-9.3069,3.0059-13.4053h5.9312v-4.4684h4.4683v4.4683h4.4683v4.4684h17.8738v-4.4684l8.9365-0.0001v0.0001v4.4684
		h13.4053v4.4684h4.136c0.2128,1.4727,0.3328,2.9641,0.3328,4.4686c0,4.7543-1.0679,9.3069-3.0059,13.4052h-14.8682v0.0001h0.0002
		L460.9865,298.3222L460.9865,298.3222z"/>
	<path class="st3" d="M231.168,365.3729H131.0754c-4.4353,0.0004-8.0434,3.6086-8.0434,8.0433v28.5979
		c0,4.4349,3.6082,8.0431,8.0433,8.0431h5.362v8.9333h4.4684v8.9359h13.4053v-13.4041h8.9368v-4.4651h31.279v58.0889
		c0,2.4639-2.0045,4.4683-4.4684,4.4683l-26.8105,0.0005c-16.2788-0.0199-29.6749-12.2641-31.155-28.481
		c-0.3987-4.1515-3.8268-7.2662-7.9762-7.2664H95.4324c-4.4166-0.0004-8.0157,3.5661-8.0559,7.9501
		c-0.0016,0.1584,0.0019,0.3221,0.0103,0.4852c2.1154,40.3733,35.4374,71.9956,75.8612,71.9962h32.1727
		c1.2834,0,2.4974-0.3021,3.5749-0.8389v0.8286h13.4052v-4.4684h8.9368v-8.9348h8.9368v-13.397h0.0001h4.4684v-4.4684h4.4684
		V373.416C239.2112,368.981,235.603,365.3729,231.168,365.3729z"/>
	<path class="st3" d="M297.3457,428.0261v-9.0351h-8.9817v-4.4681h13.4051v-40.2158h-8.9366v-0.0001v-4.4684h-4.4684v-6.3866
		l-5.5983,1.4633c-1.155,0.3019-2.2972,0.455-3.3948,0.455h-14.2429c-4.435,0-8.0432,3.6082-8.0432,8.0432v23.2358v4.4684h4.4684
		v4.4683l4.4683,0.0001h0.0002v0.0001l-0.0001,13.4048h-5.6799l-0.8634,3.3547c-1.5883,6.1711-2.3936,12.5595-2.3936,18.9875
		v67.9199c0,4.4351,3.6082,8.0432,8.0431,8.0432l28.5981,0.0001c4.4349,0,8.0431-3.6082,8.0431-8.0431v-67.92
		c0-2.6154,0.3248-5.2185,0.9656-7.7371l1.4169-5.57h-6.8059L297.3457,428.0261L297.3457,428.0261z"/>
	<path class="st3" d="M463.526,401.1175l-14.317-0.0191c-7.3819-0.0099-13.3875-6.0234-13.3875-13.4052v-14.2799
		c0-4.4349-3.6082-8.0431-8.0432-8.0431H327.6858c-4.435,0-8.0431,3.6082-8.0431,8.0432v135.8399
		c0,4.4349,3.6082,8.0431,8.0432,8.0431h28.5979c4.4349,0,8.043-3.6082,8.043-8.0432v-33.3454l57.039,39.9391
		c1.3593,0.9518,2.9534,1.4549,4.6102,1.4549c2.6236,0,5.0878-1.2823,6.5917-3.4301l16.4031-23.426
		c1.2324-1.7599,1.7056-3.8944,1.3324-6.0102c-0.3732-2.1157-1.5478-3.9594-3.3076-5.1917l-73.954-51.7833l-8.7148,12.446V414.522
		c0-2.4622,2.0032-4.4666,4.4656-4.4679h35.7504v17.8731h4.4684v4.4684h13.4053v-4.4684h4.4684v4.4499v4.4684h22.342v-4.4684
		h13.4053v-4.4684h8.9369v-18.7484C471.5689,404.7256,467.9609,401.1175,463.526,401.1175z M366.4499,444.665l-2.1231,3.0322
		v-4.5188L366.4499,444.665z"/>
	<path class="st3" d="M618.1393,396.0995c-9.4597-13.0442-22.517-22.4095-37.7606-27.0834
		c-7.8904-2.4191-15.9188-3.6458-23.8621-3.6458c-40.4667,0-73.7904,31.6297-75.8645,72.0081
		c-0.1057,2.1501,0.6288,4.2032,2.0677,5.7911c1.439,1.5879,3.4102,2.5203,5.5506,2.6255
		c0.1306,0.0064,19.0906,0.0094,19.0906,0.0094v8.934h8.9368h0.0022v13.4144c-0.0016,2.4597-2.0063,4.4633-4.469,4.4633h-23.2372
		c-4.4351,0.0003-8.0432,3.6085-8.0433,8.0432v28.5989c0,4.4349,3.6081,8.0431,8.043,8.0433h64.3484
		c4.4351-0.0002,8.0431-3.6084,8.0433-8.0432v-23.2411h8.9363v0.0001v4.4684h13.4052v4.4684h4.4684h0.0017v14.3041
		c-0.0002,4.4343,3.6072,8.0427,8.0417,8.0434h28.6002c4.4351-0.0002,8.0432-3.6084,8.0433-8.0432v-68.8641
		C632.4822,424.3553,627.5225,409.0384,618.1393,396.0995z M528.4378,430.1927c0.5052-3.0047,1.7344-5.8417,3.561-8.239
		c5.0526-6.3669,12.191-10.4465,20.0493-11.5746v8.6122h8.9368v8.9351h13.4052v-12.6279
		c8.2385,5.4706,13.4474,14.8926,13.407,25.0144v5.4888h-0.0018h-4.4684v4.4683h-8.9368v4.4684v0.0001h-8.9368v4.4683h-4.4679
		V444.911c0-4.4348-3.6081-8.043-8.043-8.0433h-18.8826c-3.1497,0-5.7026-2.5491-5.7076-5.6824
		C528.3517,430.853,528.3804,430.5192,528.4378,430.1927z"/>
</g>
<g>
	<path class="st4" d="M324.1419,253.6299l0.0396,93.845h4.4688v-8.9368h4.4684v-4.4684h4.4684v-8.9368v-4.4684h8.9368v4.4684h4.4684
		v13.4052h4.4684v4.4684h4.4686V248.276c0-1.9743-1.6004-3.5747-3.5748-3.5747h-14.3271h-0.0001
		c-9.8714,0-17.8737-8.0023-17.8737-17.8736c0-0.0118,0.0283-14.299,0.0283-14.299c0-1.9743-1.6005-3.5747-3.5747-3.5747H202.6411
		c-1.9743,0-3.5748,1.6004-3.5748,3.5747v121.541h4.4685v17.8737h4.4684v-8.9368h8.9368v-8.9368h8.9368v-8.9368h4.4684v-4.4684
		h4.4684v-67.0307c0-4.9357,4.0012-8.9369,8.9368-8.9369h8.9368c4.9357,0,8.9368,4.0012,8.9368,8.9368v40.1291h8.9368v8.9368h4.4684
		v4.4684h4.4685v-8.9368h8.9368V275.889h4.4684v-4.4684h4.4685v-17.787c0-4.9357,4.0012-8.9368,8.9368-8.9368h8.8967
		C320.1393,244.6969,324.1399,248.6957,324.1419,253.6299z"/>
	<path class="st4" d="M447.5811,207.1664h0.0002v-0.0001c-40.4727,0-73.2822,32.8094-73.2822,73.282
		c0,40.4725,32.8096,73.282,73.282,73.282c40.4725,0,73.282-32.8095,73.282-73.282S488.0538,207.1664,447.5811,207.1664z
		 M474.3914,231.2962v-4.4684h4.4688v-4.4684h8.9368v4.4684h4.4683v4.4684h4.4684v4.4684h0.0001h4.4683l0.0001,17.8736h-4.4685
		v0.0001v4.4683h-13.4053v-4.4683H478.86V249.17h-4.4685l0.0001-13.4054h4.4684v-4.4683L474.3914,231.2962L474.3914,231.2962z
		 M402.8971,231.2961h4.4684v-4.4683h4.4685v-0.0001v-4.4683h4.4684v-0.0001h4.4685v-4.4684h8.9369v4.4684h4.4684v8.937h-0.0001
		v4.4681h-4.4684v4.4683h-4.4685v4.4683H411.834v-4.4683h-4.4684v-4.4683h-4.4685V231.2961z M510.139,293.8535v-4.4681h-4.4683
		v8.9366h-4.4685v-8.9368h-4.4684v13.4053h-4.4684v-4.4684h-4.4685v-4.4684h-4.4688v4.4684H478.86v8.9369h-4.4685v-8.9368h-8.9368
		v4.4684h-4.4683v10.7838v2.6216h-4.4684v-1.1355v-3.3329h-4.4684v-4.4684v-0.0001h-8.9368v0.0001v4.4684h-4.4684v-4.4684v-8.9368
		h-4.4684v-4.4684v-4.4684h-13.4053v0.0001v4.4684h-4.4684l-0.0001,8.9368h-4.4684v-8.9368h-4.4684v-13.4052h-4.4683v4.4684h-4.4685
		v8.9368h-4.4684L393.96,275.98l-8.9368,0.0005v8.9368h-4.4685V271.512h4.4685v-8.9368h4.4684v4.4684h4.4684v-13.4053h4.4685v4.4684
		h4.4683v4.4684h4.4685v-13.4052h4.4684v8.9368h4.4684v4.4677h4.4685v-4.4677h4.4684v-4.4684v-0.0001v-1.082v-3.3863h5.088h3.8489
		v13.4051h4.4683v4.4684h8.9369v-4.4684h4.4684v-13.4052h8.9368v13.4052h4.4683v4.4684h4.4685v-4.4684h4.4683v-4.4683h4.4685v13.405
		h8.937v-8.9373h4.4685v8.9373h4.4684v4.4684h4.4684v-4.4684h4.4685v4.4684h4.4683v4.4681h4.4685v13.4055h-4.4686V293.8535z"/>
	<path class="st4" d="M231.2388,369.8413H131.1462l-0.0003,0.0002h0.0001c-1.9743,0-3.5747,1.6004-3.5747,3.5747v28.5979
		c0,1.9743,1.6005,3.5747,3.5748,3.5747h9.8304v8.9333h4.4684v8.9359h4.4684v-17.8692h4.4684v4.4651h4.4684v-4.4651h40.2158v62.5573
		c0,4.9357-4.0012,8.9368-8.9368,8.9368l-26.8105,0.0005c-18.4926-0.0226-33.9242-14.1272-35.605-32.5433
		c-0.175-1.8226-1.7101-3.2115-3.541-3.204H95.5032c-1.9635-0.018-3.5697,1.5592-3.5877,3.5226
		c-0.0007,0.0718,0.0009,0.1437,0.0046,0.2154c1.99,37.9807,33.3659,67.756,71.3987,67.7566h32.1726
		c1.9743,0,3.5748-1.6004,3.5748-3.5747v-14.2993c0-0.0016,0.0002-0.0032,0.0002-0.0048h4.4683v17.8685h4.4684v-22.3318h4.4684
		v17.8634h4.4684v-26.8002h4.4684v17.8654h4.4684v-13.397h4.4684v-4.4684h4.4684V373.416
		C234.8136,371.4417,233.2132,369.8413,231.2388,369.8413z M212.4716,486.0201h-4.4684v-6.5264
		c1.3832-0.8013,2.8826-1.4159,4.4684-1.8248V486.0201z M212.4716,383.2465h-4.4684v-4.4684h4.4684V383.2465z M225.8768,387.715
		h-4.4684v-4.4684h4.4684V387.715z"/>
	<path class="st4" d="M270.561,414.5223v4.4686v0.0001v4.4683h-6.6843c-1.4703,5.7128-2.2526,11.702-2.2526,17.8738v67.0262h4.4685
		v-4.4684h4.4712v4.4684h4.4684v0.0056v4.4629h4.4684v-13.4024h4.4684v-4.467h8.934v8.9341h4.4686v-62.5593
		c0-3.0508,0.3843-6.0116,1.1035-8.8387h-5.527v-9.0351h-8.9817v-8.9369h-0.0002l0.0002-8.9363h4.4684v4.4689h8.9368
		l-0.0002-31.2795h-8.9366v-4.4685h-4.4684v-5.0686c-1.4477,0.3784-2.9586,0.6002-4.5247,0.6002h-14.2429
		c-1.9742,0-3.5747,1.6005-3.5747,3.5748v23.2358h4.4684v4.4684h0.0001v0.0001h4.4684v4.4677h-0.0002v4.4685h4.4684v4.4684h-4.4682
		L270.561,414.5223L270.561,414.5223z"/>
	<path class="st4" d="M463.5967,405.5859L463.5967,405.5859l-14.3228-0.0191c-9.8621-0.0132-17.8499-8.0116-17.8499-17.8736
		v-14.2799c0-1.9742-1.6006-3.5747-3.5747-3.5747H327.7566c-1.9742,0-3.5747,1.6005-3.5747,3.5748v103.6672h4.4685v-4.4684h4.4684
		v4.4684h4.4684v13.4052h-4.4685v4.4684h-8.9368v13.4052h4.4684v-8.9368h8.9368v4.4684h4.4684v-8.9368h4.4684v-4.4684h4.4684v4.4684
		h4.4684v17.8738h0.8939c1.9741,0,3.5746-1.6005,3.5746-3.5748v-94.731c0-4.9335,3.9979-8.9335,8.9314-8.9363h40.2213v17.8732
		h4.4684v4.4684h4.4684v-4.4684h4.4684V405.586h0.0054c4.9333,0.0028,8.9312,4.0028,8.9314,8.9363v17.8551h4.4683v-4.4684h4.4685
		v4.4684h4.4684v-4.4684h13.4053v-4.4684h8.9369v-14.28C467.1714,407.1863,465.5709,405.5858,463.5967,405.5859z"/>
	<path class="st4" d="M444.5034,482.9041l-70.2937-49.2202l-5.126,7.3207l3.6603,2.563h0.0001l0.0001-0.0001l-7.689,10.981
		l3.6603,2.563l-2.563,3.6603l-3.6603-2.563l-2.563,3.6604l3.6603,2.563l-2.5629,3.6602l48.0554,33.6487v-6.787h4.4684v-4.4684
		h4.4684v4.4684h4.4684v16.1734l1.5125,1.059c0.8958,0.6272,1.9752,0.7708,2.956,0.5132v-22.2141h4.4684v-4.4684h8.9368v9.0353
		l5.0205-7.17C446.5138,486.2654,446.1205,484.0366,444.5034,482.9041z"/>
	<g>
		<path class="st4" d="M579.1396,373.2882c-47.7733-14.6471-91.6439,19.3444-93.9541,64.3195
			c-0.0964,1.9605,1.4147,3.628,3.3752,3.7244c0.0695,0.0034,0.139,0.0048,0.2086,0.0041h23.131v8.934h4.4684v-7.7296
			c2.6682,1.5449,4.4684,4.4227,4.4706,7.7274v17.8849c-0.0032,4.9337-4.0034,8.9316-8.9372,8.9318h-23.2374
			c-1.9743,0.0001-3.5748,1.6006-3.5749,3.5749v28.5987c0,1.9743,1.6006,3.5748,3.5749,3.575h64.3481
			c1.9743-0.0001,3.5748-1.6006,3.5749-3.5749v-32.1777h4.4679v-4.4684h-4.4679v-4.4684h13.4047v-4.4684h-13.4047v-18.7642
			c0-1.9743-1.6006-3.5748-3.5749-3.5749h-18.8823c-5.6111,0.0089-10.1671-4.5326-10.1759-10.1438
			c-0.001-0.5942,0.0502-1.1875,0.153-1.7729c0.6244-3.7142,2.1471-7.2193,4.4357-10.2105
			c6.558-8.2834,16.6881-13.6137,28.0439-13.6173v8.9313h4.4684v-8.6584c1.4762,0.1797,2.9673,0.4526,4.4684,0.8187v16.7748h4.4684
			v-15.4047c0.1765,0.0651,0.3526,0.1236,0.5292,0.1915c13.2028,5.1605,21.8713,17.9106,21.8146,32.086v68.9275l0.0001,0.0001
			c-0.0002,1.9741,1.6,3.5746,3.574,3.575h28.5995c1.9743-0.0001,3.5748-1.6006,3.5749-3.5749v-68.864
			C628.0847,409.7668,608.4213,382.2665,579.1396,373.2882z M556.7036,405.5897c0.0041,0,0.0082,0,0.0122,0H556.7036z"/>
		<rect x="578.9293" y="454.7385" class="st4" width="8.9363" height="4.4684"/>
		<rect x="561.0557" y="477.0806" class="st4" width="13.4053" height="4.4684"/>
		<rect x="587.8661" y="486.0174" class="st4" width="4.4684" height="4.4684"/>
		<rect x="587.8661" y="450.2701" class="st4" width="4.4684" height="4.4684"/>
		<polygon class="st4" points="574.4609,468.1437 578.9293,468.1437 578.9293,459.2069 569.9925,459.2069 569.9925,463.6753 
			574.4609,463.6753 		"/>
		<polygon class="st4" points="574.4609,481.549 574.4609,486.0174 587.8661,486.0174 587.8661,481.549 583.3978,481.549 
			583.3978,468.1437 578.9293,468.1437 578.9293,481.549 		"/>
	</g>
</g>
</svg>
