<?xml version="1.0" encoding="UTF-8"?><svg id="Layer_1" xmlns="http://www.w3.org/2000/svg" xmlns:xlink="http://www.w3.org/1999/xlink" viewBox="0 0 720 720"><defs><style>.cls-1{fill:url(#Gradiente_sem_nome);}.cls-2{fill:#e8811a;}</style><linearGradient id="Gradiente_sem_nome" x1="360" y1="720" x2="360" y2="0" gradientUnits="userSpaceOnUse"><stop offset="0" stop-color="#000"/><stop offset="0" stop-color="#030204"/><stop offset=".09" stop-color="#170e23"/><stop offset=".18" stop-color="#27193a"/><stop offset=".27" stop-color="#33204b"/><stop offset=".37" stop-color="#392455"/><stop offset=".5" stop-color="#3c2659"/><stop offset=".63" stop-color="#392455"/><stop offset=".73" stop-color="#33204b"/><stop offset=".82" stop-color="#27193a"/><stop offset=".91" stop-color="#170e23"/><stop offset=".99" stop-color="#030205"/></linearGradient></defs><rect class="cls-1" width="720" height="720"/><polygon points="219.8645 306.6908 219.8645 271.8823 219.8645 267.9813 211.1645 270.3819 211.1645 266.481 193.8645 271.2821 193.8645 275.1831 189.5645 276.3834 189.5645 280.2843 180.8645 282.5849 180.8645 278.784 176.6645 279.8842 176.6645 266.481 181.1645 266.481 181.1645 248.5765 167.8645 248.5765 167.8645 261.9798 158.8645 261.9798 158.8645 248.5765 145.5645 248.5765 145.5645 266.481 149.8645 266.481 149.8645 279.8842 145.8645 278.784 145.8645 282.5849 137.1645 280.2843 137.1645 276.3834 132.8645 275.1831 132.8645 271.2821 115.5645 266.481 115.5645 270.3819 106.8645 267.9813 106.8645 271.8823 102.5645 270.682 98.3645 271.8823 98.3645 275.6832 85.3645 279.2841 85.3645 283.185 81.1645 284.3853 81.1645 288.2863 76.8645 289.4866 76.8645 304.8904 81.1645 303.6901 81.1645 311.492 85.3645 310.2917 85.3645 314.1927 94.0645 311.7921 94.0645 307.8911 102.5645 305.4905 106.8645 306.6908 106.8645 310.5918 128.5645 316.5932 128.5645 320.3942 137.1645 322.7948 137.1645 326.6957 145.8645 329.0963 145.8645 332.9973 149.8645 334.0975 149.8645 344.3001 154.3645 344.3001 154.3645 345.3003 149.8645 345.3003 149.8645 360.8041 158.8645 360.8041 158.8645 353.1022 167.8645 353.1022 167.8645 360.8041 176.6645 360.8041 176.6645 345.3003 172.3645 345.3003 172.3645 344.3001 176.6645 344.3001 176.6645 334.0975 180.8645 332.9973 180.8645 329.0963 189.5645 326.6957 189.5645 322.7948 198.1645 320.3942 198.1645 316.5932 219.8645 310.5918 219.8645 306.6908"/><polygon points="638.8372 288.2863 638.8372 284.3853 634.5372 283.185 634.5372 279.2841 621.5372 275.6832 621.5372 271.8823 617.2373 270.682 612.9373 271.8823 612.9373 267.9813 604.3372 270.3819 604.3372 266.481 587.0372 271.2821 587.0372 275.1831 582.7373 276.3834 582.7373 280.2843 574.1373 282.5849 574.1373 278.784 569.9373 279.8842 569.9373 266.481 574.4373 266.481 574.4373 248.5765 561.0372 248.5765 561.0372 261.9798 552.0372 261.9798 552.0372 248.5765 538.6373 248.5765 538.6373 266.481 543.1373 266.481 543.1373 279.8842 538.9373 278.784 538.9373 282.5849 530.3372 280.2843 530.3372 276.3834 526.0372 275.1831 526.0372 271.2821 508.7373 266.481 508.7373 270.3819 500.1372 267.9813 500.1372 271.8823 500.1372 306.6908 500.1372 310.5918 521.7373 316.5932 521.7373 320.3942 530.3372 322.7948 530.3372 326.6957 538.9373 329.0963 538.9373 332.9973 543.1373 334.0975 543.1373 344.3001 547.6373 344.3001 547.6373 345.3003 543.1373 345.3003 543.1373 360.8041 552.0372 360.8041 552.0372 353.1022 561.0372 353.1022 561.0372 360.8041 569.9373 360.8041 569.9373 345.3003 565.5372 345.3003 565.5372 344.3001 569.9373 344.3001 569.9373 334.0975 574.1373 332.9973 574.1373 329.0963 582.7373 326.6957 582.7373 322.7948 591.3372 320.3942 591.3372 316.5932 612.9373 310.5918 612.9373 306.6908 617.2373 305.4905 625.8372 307.8911 625.8372 311.7921 634.5372 314.1927 634.5372 310.2917 638.8372 311.492 638.8372 303.6901 643.1373 304.8904 643.1373 289.4866 638.8372 288.2863"/><path class="cls-2" d="M342.0274,244.5845c-9.8714,0-17.8737-8.0043-17.8737-17.878,0-.0118,.0283-14.3025,.0283-14.3025,0-1.9748-1.6005-3.5756-3.5747-3.5756h-117.9662c-1.9743,0-3.5748,1.6008-3.5748,3.5756v135.8733c0,1.9748,1.6005,3.5756,3.5748,3.5756h28.5978c1.9743,0,3.5748-1.6008,3.5748-3.5756v-94.7582c0-4.9369,4.0012-8.9391,8.9368-8.9391h8.9368c4.9357,0,8.9368,4.0022,8.9368,8.939v58.9109c0,1.9748,1.6004,3.5757,3.5748,3.5757h28.5979c1.9743,0,3.5748-1.6009,3.5748-3.5757v-58.9108c0-4.9369,4.0012-8.939,8.9368-8.939h8.8967c4.9342,0,8.9348,3.9998,8.9368,8.9352l.04,94.7619c0,1.9748,1.6004,3.5756,3.5748,3.5756h28.5979c1.9743,0,3.5748-1.6008,3.5748-3.5756v-100.1171c0-1.9748-1.6004-3.5756-3.5748-3.5756h-14.3271Z"/><path class="cls-2" d="M447.6519,207.0406c-40.4901,0-73.282,32.8-73.282,73.3s32.7919,73.3,73.282,73.3,73.282-32.8,73.282-73.3-32.7919-73.3-73.282-73.3h0Zm3.899,34.2h7.7981v-7.8h7.7981v7.8h7.7981v7.8h7.7981v15.6h7.7981v15.6h-31.2923v-7.8h-7.7981v-31.2h.1Zm-46.8885,7.8h7.7981v-15.6h15.5962v7.8h7.7981v31.3h-7.7981v7.8h-15.5962v-7.8h-7.7981v-23.5Zm93.777,70.4h-15.5962v-7.8h-7.7981v15.6h-7.7981v-7.8h-15.5962v-7.8h-7.7981v7.8h-7.7981v7.8h-7.998v-15.6h-7.7981v7.8h-7.7981v7.8h-7.7981v-15.6h-7.7981v-15.6h7.7981v-7.9h7.7981v7.8h7.7981v-7.8h7.7981v7.8h15.5962v-7.8h7.7981v7.8h15.5962v-7.8h7.7981v7.8h7.7981v-7.8h7.7981v15.6h7.7981v15.7h.2Z"/><path class="cls-2" d="M131.146,369.7555c-1.9743,0-3.5747,1.6008-3.5747,3.5756v28.6049c0,1.9748,1.6005,3.5756,3.5748,3.5756h67.9199v62.5727c0,4.9369-4.0012,8.939-8.9368,8.939l-26.8105,.0005c-18.4926-.0226-33.9242-14.1307-35.605-32.5513-.175-1.823-1.7101-3.2123-3.541-3.2048h-28.6695c-1.9635-.018-3.5697,1.5596-3.5877,3.5235-.0007,.0718,.0009,.1437,.0046,.2154,1.99,37.99,33.3659,67.7726,71.3987,67.7732h32.1726c1.9743,0,3.5748-1.6008,3.5748-3.5756v-14.3028c0-9.8738,8.0023-17.878,17.8736-17.878,.0001,0,14.299,.0002,14.299,.0002,1.9742,0,3.5748-1.6008,3.5748-3.5755v-100.1173c0-1.9748-1.6004-3.5756-3.5748-3.5756h-100.0926l-.0003,.0002Z"/><path class="cls-2" d="M265.1989,512.777h28.598c1.9741,0,3.5747-1.6009,3.5747-3.5756v-67.9367c0-3.0516,.3843-6.0131,1.1035-8.8409h-5.527v-9.0373h-8.9817v-8.9391h-8.937v4.4695h-4.4684v4.4695h-6.6843c-1.4703,5.7142-2.2526,11.7049-2.2526,17.8782v67.9366c0,1.9747,1.6005,3.5757,3.5747,3.5757h0Z"/><path class="cls-2" d="M266.0927,401.0393h4.4684v4.4695h8.9369v-4.4695h4.4684v4.4695h4.4684v-8.939h8.9366v-17.8782h-8.9366v-4.4696h-4.4684v-5.0698c-1.4477,.3785-2.9586,.6004-4.5247,.6004h-14.2429c-1.9742,0-3.5747,1.6009-3.5747,3.5757v23.2415h4.4684v4.4695h.0001Z"/><path class="cls-2" d="M463.5967,405.5086l-14.3228-.0191c-9.8621-.0132-17.8499-8.0136-17.8499-17.878v-14.2834c0-1.9747-1.6006-3.5756-3.5747-3.5756h-100.0927c-1.9742,0-3.5747,1.6009-3.5747,3.5757v135.8733c0,1.9747,1.6005,3.5756,3.5748,3.5756h28.5979c1.9741,0,3.5746-1.6009,3.5746-3.5757v-94.7543c0-4.9347,3.9979-8.9357,8.9314-8.9385h53.632c4.9333,.0028,8.9312,4.0038,8.9314,8.9385v17.8595h4.4683v-4.4695h4.4685v4.4695h4.4684v-4.4695h13.4053v-4.4695h8.9369v-14.2835c0-1.9747-1.6005-3.5756-3.5747-3.5755h0Z"/><path class="cls-2" d="M372.7441,443.4997l-7.689,10.9837,3.6603,2.5636-2.563,3.6612-3.6603-2.5636-2.563,3.6613,3.6603,2.5636-2.5629,3.6611,62.973,44.105c1.6172,1.1326,3.8462,.7395,4.9786-.8781l16.4031-23.4318c1.1325-1.6177,.7393-3.8472-.8779-4.9799l-70.2937-49.2322-5.126,7.3225,3.6603,2.5636h.0001Z"/><path class="cls-2" d="M592.3363,509.2066c-.0002,1.9746,1.6,3.5755,3.574,3.5758h28.5995c1.9743-.0001,3.5748-1.601,3.5749-3.5758v-68.8809c0-30.6351-19.6634-58.1422-48.945-67.1227-47.7733-14.6507-91.6439,19.3491-93.9541,64.3353-.0964,1.961,1.4147,3.6289,3.3752,3.7253,.0695,.0034,.139,.0048,.2086,.0041h23.1328c4.9337,.0002,8.934,3.9992,8.9372,8.934v17.8893c-.0032,4.9349-4.0034,8.9338-8.9372,8.934h-23.2374c-1.9743,.0001-3.5748,1.601-3.5749,3.5758v28.6057c0,1.9748,1.6006,3.5757,3.5749,3.5758h64.3481c1.9743-.0001,3.5748-1.601,3.5749-3.5758v-64.363c0-1.9748-1.6006-3.5757-3.5749-3.5758h-18.8823c-5.6111,.0089-10.1671-4.5337-10.1759-10.1463-.001-.5944,.0502-1.1878,.153-1.7733,.6244-3.7151,2.1471-7.2211,4.4357-10.213,9.1574-11.5694,25.2786-17.3841,41.9783-10.9669,13.2028,5.1618,21.8713,17.915,21.8146,32.0939v68.9444h0Z"/></svg>