<?xml version="1.0" encoding="utf-8"?>
<!-- Generator: Adobe Illustrator 25.4.0, SVG Export Plug-In . SVG Version: 6.00 Build 0)  -->
<svg version="1.1" id="Layer_1" xmlns="http://www.w3.org/2000/svg" xmlns:xlink="http://www.w3.org/1999/xlink" x="0px" y="0px"
	 viewBox="0 0 720 720" style="enable-background:new 0 0 720 720;" xml:space="preserve">
<style type="text/css">
	.st0{fill:#D8A023;}
	.st1{display:none;}
	.st2{fill:#C97D17;}
	.st3{fill:#EDCB3A;}
	.st4{fill:#FFF471;}
</style>
<path class="st0" d="M716.7,337C692.8,172.6,542.2,45.9,360,45.9S27.2,172.6,3.3,337H0v46c0,186.1,161.2,337,360,337
	s360-150.9,360-337v-46H716.7z"/>
<g id="MojangStudios" class="st1">
</g>
<path class="st2" d="M360,114.6c150,0,273.1,107.9,285.5,245.4l0,0c0.7-7.6,1.1-15.2,1.1-23c0-148.2-128.3-268.3-286.6-268.3
	C201.7,68.7,73.4,188.9,73.4,337c0,7.7,0.4,15.4,1.1,23C86.9,222.6,210,114.6,360,114.6z"/>
<g>
	<path class="st2" d="M612.6,379.3c-16.5,15-105.9,27.1-78.5,74.5c8.3,14.4-7.5,20.2-33.2,21.2c12.2-0.3,23.9-1.4,35.5-3.7v-6.3
		c18.3-20.4,64.8-29.4,76.2-39.8L612.6,379.3L612.6,379.3z"/>
	<path class="st2" d="M456,473.5C401.6,469,339.7,457,339.7,457l25.1-28.4v-0.3v-9.7h0c-0.1,12.7-9.4,23.9-22.4,25.6
		c-11.6,1.6-57-0.1-74.1-8.5c22.2,13.8,51.6,20.2,86.6,25.8C384.5,465.5,422.1,470.9,456,473.5z"/>
	<path class="st2" d="M596.8,330.9c-11.3,8.9-31.4,23.5-37.1,28.8l40,14.8c3.1-2.5,5-4.3,5-4.8l0-46l0,0
		C604.7,324.4,601.5,327.2,596.8,330.9z"/>
	<path class="st2" d="M261.8,428.2v2.8c0.7,0.5,1.4,1,2,1.5c-1.1-1.1-1.8-2.3-2-3.6C261.8,428.7,261.8,428.5,261.8,428.2
		L261.8,428.2z"/>
	<path class="st2" d="M223.3,362.3c11.1-51.2,60.2-84.4,120.6-86.4c25.3-0.2,46.8,9.1,65.5,20.5v-46c-18.7-11.4-40.2-20.7-65.5-20.5
		C267,232.4,208.3,285.8,223.3,362.3z"/>
	<path class="st2" d="M575.8,458.1c0,0-4.3,65.1-57.7,65.1H197.6c-53.4,0-53.4-53.4-53.4-53.4v46c0,0,0,53.4,53.4,53.4h320.5
		c53.4,0,57.7-65.1,57.7-65.1L575.8,458.1L575.8,458.1L575.8,458.1z"/>
</g>
<path class="st3" d="M360,0C161.2,0,0,150.9,0,337s161.2,337,360,337s360-150.9,360-337S558.8,0,360,0z M360,605.4
	C201.7,605.4,73.4,485.2,73.4,337S201.7,68.7,360,68.7S646.6,188.9,646.6,337S518.3,605.4,360,605.4z"/>
<g>
	<path class="st4" d="M378,626.3c158.3,0,286.6-120.1,286.6-268.3c0-68.4-27.3-130.8-72.3-178.2c34.2,44.2,54.3,98.5,54.3,157.2
		c0,148.2-128.3,268.3-286.6,268.3c-85.2,0-161.8-34.9-214.3-90.2C197.8,582.5,282.4,626.3,378,626.3z"/>
	<path class="st4" d="M88.4,558.3C44.2,502.3,18,433,18,358C18,171.9,179.2,21,378,21c108.4,0,205.6,44.9,271.6,115.8
		C584,53.8,478.7,0,360,0C161.2,0,0,150.9,0,337C0,421.7,33.3,499.1,88.4,558.3z"/>
</g>
<g>
	<path class="st4" d="M596.1,331.4C596,331.4,596,331.5,596.1,331.4C596,331.5,596,331.4,596.1,331.4z"/>
	<path class="st4" d="M596.2,331.3l-0.1,0.1C596.1,331.4,596.1,331.4,596.2,331.3z"/>
	<path class="st4" d="M596.4,331.1c-0.1,0.1-0.2,0.2-0.3,0.2C596.2,331.3,596.3,331.2,596.4,331.1z"/>
	<path class="st4" d="M596.7,330.8c-0.1,0.1-0.2,0.2-0.3,0.3C596.5,331,596.6,330.9,596.7,330.8z"/>
	<path class="st4" d="M604.7,323.6l-11.3-5l-11,11.1l-11.8-9.1l-9.4,9.3l-9.6-5.9l-10.9,13.3l-18.9-2.9
		c-9.5,9.4-19.6,17.5-28.7,24.9c-33.5,27.4-66.5,42.7-113.8,52.9L339.7,457c0,0,221.1,43,194.4-3.2c-27.4-47.4,62-59.5,78.5-74.5
		l-52.9-19.6c5.7-5.3,25.8-19.9,37.1-28.8l0,0l0,0C601.7,327,605,324.2,604.7,323.6"/>
	<path class="st4" d="M596,331.5L596,331.5L596,331.5z"/>
	<path class="st4" d="M595.9,331.5L595.9,331.5L595.9,331.5z"/>
	<path class="st4" d="M354.9,461.4c-35-5.6-64.4-12-86.6-25.8c17.1,8.4,62.5,10.1,74.1,8.5l0,0c14.2-1.9,24.1-15,22.2-29.2
		s-15-24.1-29.2-22.2s-75.5,22-73.6,36.2c0.2,1.3,0.9,2.5,2,3.6c-11.3-8-20.5-18.2-27.4-31.9c-46.4-96.5,18.3-167.8,107.5-170.7
		c25.3-0.2,46.8,9.1,65.5,20.5l-11.8-10.5l-0.4-9l-14.2-7.3l0.5-12l-11.2-5.5l6-13.5l-14.2-7.8l3.7-12.2c-18.5-11-41-20.5-63.6-20.5
		H197.6c0,0-53.4,0-53.4,53.4v264.3c0,0,0,53.4,53.4,53.4h320.5c53.4,0,57.7-65.1,57.7-65.1c-26.9,13-51.5,16.6-78.8,17
		C456.2,475.8,397.3,467.3,354.9,461.4z"/>
</g>
</svg>
