<?xml version="1.0" encoding="UTF-8"?><svg id="Camada_1" xmlns="http://www.w3.org/2000/svg" viewBox="0 0 720 720"><defs><style>.cls-1{fill:#fff;}.cls-2{fill:#2ecc72;}</style></defs><rect class="cls-2" width="720" height="720"/><path class="cls-1" d="M342.0981,244.7026c-9.8714,0-17.8737-8.0023-17.8737-17.8736,0-.0118,.0283-14.299,.0283-14.299,0-1.9743-1.6005-3.5747-3.5747-3.5747h-117.9662c-1.9743,0-3.5748,1.6004-3.5748,3.5747v135.8399c0,1.9743,1.6005,3.5747,3.5748,3.5747h28.5978c1.9743,0,3.5748-1.6004,3.5748-3.5747v-94.7349c0-4.9357,4.0012-8.9369,8.9368-8.9369h8.9368c4.9357,0,8.9368,4.0012,8.9368,8.9368v58.8964c0,1.9743,1.6004,3.5748,3.5748,3.5748h28.5979c1.9743,0,3.5748-1.6005,3.5748-3.5748v-58.8963c0-4.9357,4.0012-8.9368,8.9368-8.9368h8.8967c4.9342,0,8.9348,3.9988,8.9368,8.933l.04,94.7386c0,1.9743,1.6004,3.5747,3.5748,3.5747h28.5979c1.9743,0,3.5748-1.6004,3.5748-3.5747v-100.0925c0-1.9743-1.6004-3.5747-3.5748-3.5747h-14.3271Z"/><path class="cls-1" d="M447.535,207.1679c-40.4726,0-73.2821,32.8095-73.2821,73.282s32.8095,73.282,73.282,73.282,73.282-32.8095,73.282-73.282-32.8094-73.282-73.282-73.282h.0001Zm35.7473,73.282c-.0223,19.7335-16.0138,35.725-35.7473,35.7473-19.7427,0-35.7473-16.0046-35.7473-35.7473s16.0046-35.7473,35.7473-35.7473,35.7473,16.0046,35.7473,35.7473Z"/><path class="cls-1" d="M113.2984,369.8428c-1.9743,0-3.5747,1.6004-3.5747,3.5747v28.5979c0,1.9743,1.6005,3.5747,3.5748,3.5747h67.9199v62.5573c0,4.9357-4.0012,8.9368-8.9368,8.9368l-26.8105,.0005c-18.4926-.0226-33.9242-14.1272-35.605-32.5433-.175-1.8226-1.7101-3.2115-3.541-3.204h-28.6695c-1.9635-.018-3.5697,1.5592-3.5877,3.5226-.0007,.0718,.0009,.1437,.0046,.2154,1.99,37.9807,33.3659,67.756,71.3987,67.7566h32.1726c1.9743,0,3.5748-1.6004,3.5748-3.5747v-14.2993c0-9.8714,8.0023-17.8736,17.8736-17.8736,.0001,0,14.299,.0002,14.299,.0002,1.9742,0,3.5748-1.6004,3.5748-3.5746v-100.0927c0-1.9743-1.6004-3.5747-3.5748-3.5747H113.2987l-.0003,.0002Z"/><rect class="cls-1" x="234.8846" y="369.8425" width="35.7477" height="142.9896" rx="3.5748" ry="3.5748"/><path class="cls-1" d="M360.0457,441.3374h-26.8104c-4.9356,0-8.9368-4.0011-8.9368-8.9368v-17.8734c0-4.9357,4.0012-8.9368,8.9368-8.9368l26.8105-.0005c18.4926,.0226,33.9242,14.1272,35.605,32.5433,.175,1.8226,1.7101,3.2115,3.541,3.204h28.6695c1.9635,.018,3.5697-1.5592,3.5877-3.5226,.0007-.0718-.0009-.1437-.0046-.2154-1.99-37.9807-33.3659-67.756-71.3987-67.7566l-67.92-.0002c-1.9742,0-3.5748,1.6004-3.5748,3.5746v135.8403c0,1.9743,1.6004,3.5747,3.5748,3.5747l28.5981-.0002c1.9743,0,3.5747-1.6004,3.5747-3.5747v-23.2352c0-4.9357,4.0012-8.9368,8.9368-8.9368l26.8105-.0005c18.4926,.0226,33.9242,14.1272,35.605,32.5433,.175,1.8226,1.7101,3.2115,3.541,3.204h28.6695c1.9635,.018,3.5697-1.5592,3.5877-3.5226,.0007-.0718-.0009-.1437-.0046-.2154-1.99-37.9807-33.3659-67.756-71.3987-67.7566Z"/><path class="cls-1" d="M588.6936,405.6127l-14.3599-.0563c-9.8376-.0385-17.7923-8.0244-17.7923-17.8621v-14.2337c0-1.973-1.5994-3.5725-3.5725-3.5725h-32.1521c-39.4603,0-71.4492,31.9889-71.4492,71.4492h0v67.8767c0,1.973,1.5994,3.5725,3.5724,3.5725h28.5797c1.973,0,3.5725-1.5994,3.5725-3.5724h0v-67.8767c0-19.7301,15.9944-35.7245,35.7245-35.7246h26.7989c4.9303,.0028,8.9256,4.0003,8.9257,8.9306v17.8623c0,4.9325-3.9986,8.9311-8.9311,8.9311v.0005s-39.2971,0-39.2971,0c-1.973,0-3.5725,1.5994-3.5725,3.5724h0v28.5797c0,1.973,1.5994,3.5725,3.5724,3.5725h39.3026c4.9302,.0028,8.9256,4.0003,8.9257,8.9306v23.2215c0,1.973,1.5994,3.5725,3.5724,3.5725h28.5797c1.973,0,3.5725-1.5994,3.5725-3.5724h0v-100.029c0-1.973-1.5994-3.5724-3.5724-3.5724h0Z"/><rect class="cls-1" x="610.1846" y="369.8425" width="35.7477" height="142.9896" rx="3.5746" ry="3.5746"/></svg>