<?xml version="1.0" encoding="UTF-8"?><svg id="Layer_1" xmlns="http://www.w3.org/2000/svg" viewBox="0 0 720 720"><defs><style>.cls-1{fill:#edcb3a;}.cls-2{fill:#fff471;}.cls-3{fill:#d8a023;}.cls-4{fill:#c97d17;}</style></defs><path class="cls-3" d="M716.7,337c-23.9-164.4-174.5-291.1-356.7-291.1S27.2,172.6,3.3,337H0v46c0,186.1,161.2,337,360,337s360-150.9,360-337v-46h-3.3Z"/><path class="cls-4" d="M360,114.6c150,0,273.1,107.9,285.5,245.4h0c.7-7.6,1.1-15.2,1.1-23,0-148.2-128.3-268.3-286.6-268.3S73.4,188.9,73.4,337c0,7.7,.4,15.4,1.1,23,12.4-137.4,135.5-245.4,285.5-245.4h0Z"/><g><g><path class="cls-4" d="M534.0999,453.8c26.7,46.2-194.4,3.2-194.4,3.2v48s196.62,38.24,196.63,3.85v-41.73c18.26-20.39,64.82-29.41,76.27-39.82v-48c-16.5,15-105.9,27.1-78.5,74.5Z"/><path class="cls-4" d="M604.7,371.5999v-47.84c-.23,.84-3.79,3.51-8.35,7.14-11.3,8.9-30.95,23.5-36.65,28.8l41.48,15.37c2.29-1.84,3.71-3.09,3.52-3.47Z"/></g><g><path class="cls-4" d="M263.8,432.49c-1.1-1.1-1.8-2.3-2-3.6-.03-.22-.04-.45-.04-.67v2.78c.67,.5,1.35,1,2.04,1.49h0Z"/><path class="cls-4" d="M518.1,523.19H197.6c-53.4,0-53.4-53.4-53.4-53.4v48s0,53.4,53.4,53.4h320.5c53.4,0,57.7-65.1,57.7-65.1v-48s-4.3,65.1-57.7,65.1h0Z"/><path class="cls-4" d="M364.83,418.37c0,12.8-9.4,23.97-22.43,25.72-11.6,1.6-57-.1-74.1-8.5,22.2,13.8,51.6,20.2,86.6,25.8,3.22,.45,6.54,.91,9.93,1.38v-44.4Z"/><path class="cls-4" d="M223.55,363.29c11.54-50.61,60.41-83.45,120.35-85.39,25.3-.2,46.8,9.1,65.5,20.5v-48c-18.7-11.4-40.2-20.7-65.5-20.5-77.26,2.51-136.11,56.34-120.35,133.4v-.01Z"/></g></g><g><path class="cls-2" d="M596.35,330.9c4.9-3.9,8.65-6.7,8.35-7.3l-11.3-5-11,11.1-11.8-9.1-9.4,9.3-9.6-5.9-10.9,13.3-18.9-2.9c-9.5,9.4-19.6,17.5-28.7,24.9-33.5,27.4-66.5,42.7-113.8,52.9l-39.6,44.8s221.1,43,194.4-3.2c-27.4-47.4,62-59.5,78.5-74.5l-52.9-19.6c5.7-5.3,25.35-19.9,36.65-28.8h0Z"/><path class="cls-2" d="M342.4,444.1c14.2-1.9,24.1-15,22.2-29.2s-15-24.1-29.2-22.2-75.5,22-73.6,36.2c.2,1.3,.9,2.5,2,3.6-11.3-8-20.5-18.2-27.4-31.9-46.4-96.5,18.3-167.8,107.5-170.7,25.3-.2,46.8,9.1,65.5,20.5l-11.8-10.5-.4-9-14.2-7.3,.5-12-11.2-5.5,6-13.5-14.2-7.8,3.7-12.2c-18.5-11-41-20.5-63.6-20.5h-106.6s-53.4,0-53.4,53.4V469.8s0,53.4,53.4,53.4h320.5c53.4,0,57.7-65.1,57.7-65.1-26.9,13-51.5,16.6-78.8,17-40.8,.7-99.7-7.8-142.1-13.7-35-5.6-64.4-12-86.6-25.8,17.1,8.4,62.5,10.1,74.1,8.5Z"/></g><path class="cls-1" d="M360,0C161.2,0,0,150.9,0,337s161.2,337,360,337,360-150.9,360-337S558.8,0,360,0Zm0,605.4c-158.3,0-286.6-120.2-286.6-268.4S201.7,68.7,360,68.7s286.6,120.2,286.6,268.3-128.3,268.4-286.6,268.4h0Z"/><g><path class="cls-2" d="M378,626.3c158.3,0,286.6-120.1,286.6-268.3,0-68.4-27.3-130.8-72.3-178.2,34.2,44.2,54.3,98.5,54.3,157.2,0,148.2-128.3,268.3-286.6,268.3-85.2,0-161.8-34.9-214.3-90.2,52.1,67.4,136.7,111.2,232.3,111.2h0Z"/><path class="cls-2" d="M88.4,558.3c-44.2-56-70.4-125.3-70.4-200.3C18,171.9,179.2,21,378,21c108.4,0,205.6,44.9,271.6,115.8C584,53.8,478.7,0,360,0,161.2,0,0,150.9,0,337c0,84.7,33.3,162.1,88.4,221.3Z"/></g></svg>