<?xml version="1.0" encoding="UTF-8"?><svg id="Layer_1" xmlns="http://www.w3.org/2000/svg" viewBox="0 0 720 720"><defs><style>.cls-1{fill:#fff;}.cls-2{fill:#637285;}</style></defs><rect class="cls-2" width="720" height="720"/><path class="cls-1" d="M356.4252,244.7026h-14.3271c-9.8714,0-17.8737-8.0023-17.8737-17.8736,0-.0118,.0283-14.299,.0283-14.299,0-1.9743-1.6005-3.5747-3.5747-3.5747h-117.9662c-1.9743,0-3.5748,1.6004-3.5748,3.5747v26.2148h-25.3931c-2.0612-3.5582-5.9007-5.9579-10.3087-5.9579-6.5809,0-11.9158,5.3349-11.9158,11.9158s5.3349,11.9158,11.9158,11.9158c4.4078,0,8.2473-2.3996,10.3085-5.9577h25.3932v23.8314h-25.3931c-2.0612-3.5582-5.9007-5.9579-10.3087-5.9579-6.5809,0-11.9158,5.3349-11.9158,11.9158s5.3349,11.9158,11.9158,11.9158c4.4078,0,8.2473-2.3996,10.3085-5.9577h25.3932v23.8314h-25.3931c-2.0612-3.5582-5.9007-5.9579-10.3087-5.9579-6.5809,0-11.9158,5.3349-11.9158,11.9158s5.3349,11.9158,11.9158,11.9158c4.4078,0,8.2473-2.3996,10.3085-5.9577h25.3932v26.2147c0,1.9743,1.6005,3.5747,3.5748,3.5747h28.5978c1.9743,0,3.5748-1.6004,3.5748-3.5747v-94.7349c0-4.9357,4.0012-8.937,8.9368-8.937h8.9368c4.9357,0,8.9368,4.0012,8.9368,8.9368v58.8964c0,1.9743,1.6004,3.5748,3.5748,3.5748h28.5979c1.9743,0,3.5748-1.6005,3.5748-3.5748v-58.8963c0-4.9357,4.0012-8.9368,8.9368-8.9368h8.8967c4.9342,0,8.9348,3.9988,8.9368,8.933l.04,94.7386c0,1.9743,1.6004,3.5747,3.5748,3.5747h28.5979c1.9743,0,3.5748-1.6004,3.5748-3.5747v-100.0925c0-1.9743-1.6004-3.5747-3.5748-3.5747l.0002-.0003Zm-139.4146-5.9578c-6.5809,0-11.9158-5.3349-11.9158-11.9158s5.3348-11.9158,11.9158-11.9158,11.9158,5.3348,11.9158,11.9158-5.3349,11.9158-11.9158,11.9158Zm62.5578,0c-6.5809,0-11.9158-5.3349-11.9158-11.9158s5.3349-11.9158,11.9158-11.9158,11.9158,5.3348,11.9158,11.9158-5.3348,11.9158-11.9158,11.9158Z"/><path class="cls-1" d="M447.535,207.1679c-40.4726,0-73.2821,32.8095-73.2821,73.282s32.8095,73.282,73.282,73.282,73.282-32.8095,73.282-73.282-32.8094-73.282-73.282-73.282h0Zm35.7473,73.282c-.0223,19.7335-16.0138,35.725-35.7473,35.7473-19.7427,0-35.7473-16.0046-35.7473-35.7473s16.0046-35.7473,35.7473-35.7473,35.7473,16.0046,35.7473,35.7473Z"/><circle class="cls-1" cx="447.535" cy="280.4499" r="11.9158"/><path class="cls-1" d="M231.3095,369.8426h-100.0926l-.0002,.0002c-1.9743,0-3.5747,1.6004-3.5747,3.5747v28.5979c0,1.9743,1.6005,3.5747,3.5748,3.5747h67.9199v62.5573c0,4.9357-4.0012,8.9368-8.9368,8.9368l-26.8105,.0005c-18.4926-.0226-33.9242-14.1272-35.605-32.5433-.175-1.8226-1.7101-3.2115-3.541-3.204h-28.6695c-1.9635-.018-3.5697,1.5592-3.5877,3.5226-.0007,.0718,.0009,.1437,.0046,.2154,1.99,37.9807,33.3659,67.756,71.3987,67.7566h32.1726c1.9743,0,3.5748-1.6004,3.5748-3.5747v-14.2993c0-7.7791,4.9784-14.3787,11.9158-16.8348v12.439c-3.5581,2.0612-5.9578,5.9007-5.9578,10.3086,0,6.5809,5.3349,11.9158,11.9158,11.9158s11.9158-5.3349,11.9158-11.9158c0-4.4079-2.3997-8.2474-5.9578-10.3086v-13.4776c3.9243,0,8.3409,0,8.3409,0,1.9742,0,3.5748-1.6004,3.5748-3.5746v-100.0927c0-1.9743-1.6004-3.5747-3.5748-3.5747h-.0001Zm-14.2988,29.8349c-6.5809,0-11.9158-5.3349-11.9158-11.9158s5.3349-11.9158,11.9158-11.9158,11.9158,5.3349,11.9158,11.9158-5.3348,11.9158-11.9158,11.9158Z"/><path class="cls-1" d="M293.8444,369.8425h-8.3411v-19.5051c3.5581-2.0612,5.9578-5.9007,5.9578-10.3086,0-6.5809-5.3349-11.9158-11.9158-11.9158s-11.9158,5.3349-11.9158,11.9158c0,4.4079,2.3997,8.2474,5.9578,10.3086v19.5051h-8.3411c-1.9742,0-3.5748,1.6004-3.5748,3.5746v135.8403c0,1.9743,1.6004,3.5747,3.5748,3.5747h28.598c1.9744,0,3.5748-1.6004,3.5748-3.5747v-135.8403c0-1.9742-1.6006-3.5746-3.5748-3.5746h.0002Z"/><path class="cls-1" d="M395.8381,441.3374h-26.8104c-4.9356,0-8.9368-4.0011-8.9368-8.9368v-17.8734c0-4.9357,4.0012-8.9368,8.9368-8.9368l26.8105-.0005c18.4926,.0226,33.9242,14.1272,35.605,32.5433,.175,1.8226,1.7101,3.2115,3.541,3.204h28.6695c1.9635,.018,3.5697-1.5592,3.5877-3.5226,.0007-.0718-.0009-.1437-.0046-.2154-1.99-37.9807-33.3659-67.756-71.3987-67.7566l-67.92-.0002c-1.9742,0-3.5748,1.6004-3.5748,3.5746v135.8403c0,1.9743,1.6004,3.5747,3.5748,3.5747l28.5982-.0002c1.9743,0,3.5747-1.6004,3.5747-3.5747v-23.2352c0-4.9357,4.0012-8.9368,8.9368-8.9368l26.8105-.0005c18.4926,.0226,33.9242,14.1272,35.605,32.5433,.175,1.8226,1.7101,3.2115,3.541,3.204h28.6695c1.9635,.018,3.5697-1.5592,3.5877-3.5226,.0007-.0718-.0009-.1437-.0046-.2154-1.99-37.9807-33.3659-67.756-71.3987-67.7566h0Zm-53.6212,29.7895c-6.5809,0-11.9158-5.3349-11.9158-11.9158s5.3348-11.9158,11.9158-11.9158,11.9158,5.3348,11.9158,11.9158-5.3349,11.9158-11.9158,11.9158Zm0-71.4492c-6.5809,0-11.9158-5.3349-11.9158-11.9158s5.3348-11.9158,11.9158-11.9158,11.9158,5.3349,11.9158,11.9158-5.3349,11.9158-11.9158,11.9158Z"/><path class="cls-1" d="M562.5672,370.1545v-19.8171c3.5581-2.0612,5.9578-5.9007,5.9578-10.3086,0-6.5809-5.3349-11.9158-11.9158-11.9158s-11.9158,5.3349-11.9158,11.9158c0,4.4079,2.3997,8.2474,5.9578,10.3086v19.8171c-36.6698,3.0302-65.4913,33.7309-65.4913,71.1828v67.8766c0,1.973,1.5995,3.5725,3.5725,3.5725h28.5797c1.973,0,3.5725-1.5994,3.5725-3.5724v-23.2239c.0015-4.9293,3.9962-8.9253,8.9257-8.9282h53.5977c4.9299,.0029,8.9249,3.9998,8.9257,8.9294v23.2227c0,1.973,1.5995,3.5724,3.5724,3.5724h28.5798c1.973,0,3.5724-1.5995,3.5724-3.5725v-67.8766c0-37.4519-28.8214-68.1526-65.4912-71.1828h0Zm-41.7053,89.0566c-9.8716,0-17.8739-8.0024-17.8739-17.8738s8.0023-17.8738,17.8739-17.8738,17.8738,8.0024,17.8738,17.8738-8.0024,17.8738-17.8738,17.8738Zm71.4947,0c-9.8715,0-17.8738-8.0024-17.8738-17.8738s8.0024-17.8738,17.8738-17.8738,17.8738,8.0024,17.8738,17.8738-8.0024,17.8738-17.8738,17.8738Z"/></svg>