<?xml version="1.0" encoding="UTF-8"?><svg id="Layer_1" xmlns="http://www.w3.org/2000/svg" viewBox="0 0 623.54 720"><defs><style>.cls-1{fill:#edcb3a;}.cls-2{fill:#fff;}.cls-3{fill:#66c;}.cls-4{fill:#fff471;}.cls-5{fill:#d8a023;}.cls-6{fill:#c97d17;}</style></defs><polygon class="cls-3" points="311.77 0 0 180 0 540 311.77 720 623.54 540 623.54 180 311.77 0"/><path class="cls-2" d="M311.7701,17.9185L15.518,188.9593v342.0815l296.2521,171.0407,296.252-171.0407V188.9593L311.7701,17.9185Zm280.7341,504.1629l-280.7341,162.0814L31.0359,522.0815V197.9185L311.7701,35.8371l280.7341,162.0814v324.1629Z"/><path class="cls-2" d="M296.2052,260.1481c-8.5489,0-15.4791-6.9302-15.4791-15.479,0-.0102,.0245-12.3833,.0245-12.3833,0-1.7098-1.3861-3.0958-3.0958-3.0958h-102.162c-1.7098,0-3.0959,1.386-3.0959,3.0958v117.6411c0,1.7098,1.3861,3.0958,3.0959,3.0958h24.7665c1.7098,0,3.0959-1.386,3.0959-3.0958v-82.043c0-4.2745,3.4652-7.7396,7.7395-7.7396h7.7395c4.2745,0,7.7395,3.4652,7.7395,7.7395v51.0059c0,1.7098,1.386,3.0959,3.0959,3.0959h24.7666c1.7098,0,3.0959-1.3861,3.0959-3.0959v-51.0058c0-4.2745,3.4652-7.7395,7.7395-7.7395h7.7048c4.2732,0,7.7378,3.4631,7.7395,7.7362l.0346,82.0463c0,1.7098,1.386,3.0958,3.0959,3.0958h24.7666c1.7098,0,3.0959-1.386,3.0959-3.0958v-86.6829c0-1.7098-1.386-3.0958-3.0959-3.0958h-12.4078Z"/><path class="cls-2" d="M113.5761,368.523c-1.7098,0-3.0958,1.386-3.0958,3.0958v24.7666c0,1.7098,1.3861,3.0958,3.0959,3.0958h58.8205v54.1764c0,4.2745-3.4652,7.7395-7.7395,7.7395l-23.2186,.0004c-16.0151-.0196-29.3793-12.2345-30.8349-28.1834-.1515-1.5784-1.481-2.7812-3.0666-2.7747h-24.8286c-1.7004-.0156-3.0915,1.3503-3.1071,3.0507-.0006,.0622,.0008,.1245,.004,.1865,1.7234,32.8924,28.8958,58.6786,61.8333,58.6791h27.8624c1.7098,0,3.0959-1.386,3.0959-3.0958v-12.3836c0-8.5489,6.9302-15.479,15.479-15.479,.0001,0,12.3833,.0002,12.3833,.0002,1.7097,0,3.0959-1.386,3.0959-3.0957v-86.6831c0-1.7098-1.386-3.0958-3.0959-3.0958H113.5761Z"/><path class="cls-2" d="M229.6696,492.3532h24.7667c1.7096,0,3.0958-1.3861,3.0958-3.0958v-58.8206c0-2.6421,.3328-5.2062,.9557-7.6546h-4.7865v-7.8246h-7.7784v-7.7396h-7.7397v3.8698h-3.8698v3.8698h-5.7888c-1.2733,4.9474-1.9508,10.1343-1.9508,15.4792v58.8205c0,1.7097,1.3861,3.0959,3.0958,3.0959h0Z"/><path class="cls-2" d="M230.4437,395.609h3.8698v3.8698h7.7396v-3.8698h3.8698v3.8698h3.8698v-7.7395h7.7394v-15.4792h-7.7393v-3.8699h-3.8698v-4.3896c-1.2537,.3277-2.5622,.5198-3.9185,.5198h-12.3347c-1.7097,0-3.0958,1.3861-3.0958,3.0959v20.1228h3.8698v3.8698h0Z"/><path class="cls-2" d="M401.4876,399.4786l-12.404-.0165c-8.5408-.0114-15.4585-6.9383-15.4585-15.479v-12.3668c0-1.7097-1.3862-3.0958-3.0958-3.0958h-86.6831c-1.7097,0-3.0958,1.3861-3.0958,3.0959v117.6411c0,1.7097,1.3861,3.0958,3.0959,3.0958h24.7666c1.7096,0,3.0957-1.3861,3.0957-3.0959v-82.0397c0-4.2725,3.4623-7.7367,7.7348-7.7391h46.4468c4.2724,.0024,7.7347,3.4665,7.7348,7.7391v15.463h3.8697v-3.8698h3.8699v3.8698h3.8698v-3.8698h11.6094v-3.8698h7.7396v-12.3669c0-1.7097-1.3861-3.0958-3.0958-3.0957h0Z"/><path class="cls-2" d="M322.8068,432.3718l-6.6589,9.5098,3.1699,2.2196-2.2196,3.1699-3.1699-2.2196-2.2197,3.17,3.1699,2.2196-2.2195,3.1698,54.5364,38.1868c1.4005,.9807,3.3309,.6403,4.3116-.7603l14.2055-20.2876c.9807-1.4007,.6403-3.3309-.7603-4.3116l-60.8763-42.626-4.4392,6.3399,3.1699,2.2196h.0002Z"/><path class="cls-2" d="M512.9796,489.2619c-.0002,1.7096,1.3856,3.0957,3.0952,3.096h24.7679c1.7098,0,3.0959-1.3862,3.096-3.096v-59.6381c0-26.5243-17.029-50.3404-42.3877-58.1158-41.373-12.6848-79.3662,16.7528-81.3669,55.7025-.0835,1.6979,1.2252,3.1419,2.923,3.2255,.0602,.003,.1204,.0042,.1806,.0035h20.0337c4.2727,.0002,7.7371,3.4626,7.7399,7.7352v15.4888c-.0028,4.2727-3.467,7.735-7.7399,7.7352h-20.1242c-1.7098,0-3.0959,1.3862-3.096,3.096v24.7673c0,1.7098,1.3862,3.0959,3.096,3.096h55.7272c1.7098,0,3.0959-1.3862,3.096-3.096v-55.7264c0-1.7098-1.3862-3.0959-3.096-3.096h-16.3526c-4.8594,.0077-8.805-3.9254-8.8126-8.7848-.0009-.5146,.0435-1.0284,.1325-1.5354,.5407-3.2166,1.8594-6.2521,3.8414-8.8426,7.9306-10.017,21.892-15.0514,36.3544-9.4953,11.434,4.4691,18.9412,15.5111,18.8921,27.7873v59.6931h0Z"/><path class="cls-5" d="M450.5614,287.0516c-4.2133-28.982-30.7625-51.3179-62.8825-51.3179s-58.6692,22.3359-62.8825,51.3179h-.5818v8.1093c0,32.8075,28.4179,59.4096,63.4642,59.4096s63.4642-26.6021,63.4642-59.4096v-8.1093h-.5816Z"/><path class="cls-6" d="M387.6789,247.8448c26.4434,0,48.1447,19.0216,50.3307,43.2615h0c.1234-1.3398,.1939-2.6796,.1939-4.0547,0-26.1261-22.6179-47.2985-50.5246-47.2985s-50.5246,21.19-50.5246,47.2985c0,1.3574,.0705,2.7149,.1939,4.0547,2.186-24.2222,23.8872-43.2615,50.3307-43.2615h0Z"/><g><g><path class="cls-6" d="M418.3709,307.6422c4.7069,8.1446-34.2707,.5641-34.2707,.5641v8.4619s34.6621,6.7413,34.6638,.6787v-7.3566c3.219-3.5945,11.4271-5.1847,13.4456-7.0199v-8.4619c-2.9088,2.6443-18.6691,4.7774-13.8387,13.1336h0Z"/><path class="cls-6" d="M430.817,293.1512v-8.4337c-.0405,.1481-.6681,.6188-1.472,1.2587-1.9921,1.569-5.4562,4.1428-6.461,5.0771l7.3125,2.7096c.4037-.3244,.654-.5447,.6205-.6117h0Z"/></g><g><path class="cls-6" d="M370.7199,303.8855c-.1939-.1939-.3173-.4055-.3526-.6346-.0053-.0388-.0071-.0793-.0071-.1181v.4901c.1181,.0881,.238,.1763,.3596,.2627h.0001Z"/><path class="cls-6" d="M415.5503,319.875h-56.5008c-9.4139,0-9.4139-9.4139-9.4139-9.4139v8.4619s0,9.4139,9.4139,9.4139h56.5008c9.4139,0,10.1719-11.4765,10.1719-11.4765v-8.4619s-.758,11.4765-10.1719,11.4765h0Z"/><path class="cls-6" d="M388.5304,301.3963c0,2.2565-1.6571,4.2257-3.9542,4.5342-2.045,.2821-10.0485-.0176-13.0631-1.4985,3.9136,2.4328,9.0965,3.5611,15.2667,4.5483,.5677,.0793,1.1529,.1604,1.7506,.2433v-7.8273Z"/><path class="cls-6" d="M363.6242,291.6863c2.0344-8.922,10.6497-14.7114,21.2164-15.0534,4.4601-.0353,8.2503,1.6042,11.547,3.6139v-8.4619c-3.2966-2.0097-7.0868-3.6492-11.547-3.6139-13.6201,.4425-23.9948,9.9322-21.2165,23.517v-.0018h0Z"/></g></g><g><path class="cls-4" d="M429.345,285.9762c.8638-.6875,1.5249-1.1811,1.472-1.2869l-1.9921-.8814-1.9392,1.9568-2.0802-1.6042-1.6571,1.6395-1.6924-1.0401-1.9216,2.3446-3.3319-.5112c-1.6748,1.6571-3.4553,3.0851-5.0595,4.3896-5.9057,4.8303-11.7233,7.5276-20.0618,9.3257l-6.9811,7.8978s38.9776,7.5805,34.2707-.5641c-4.8303-8.3561,10.93-10.4892,13.8387-13.1336l-9.3257-3.4553c1.0049-.9343,4.4689-3.5082,6.461-5.0771h.0003Z"/><path class="cls-4" d="M384.5762,305.9322c2.5033-.3349,4.2486-2.6443,3.9136-5.1477s-2.6443-4.2486-5.1477-3.9136-13.3099,3.8784-12.9749,6.3817c.0353,.2292,.1587,.4407,.3526,.6346-1.9921-1.4103-3.6139-3.2085-4.8303-5.6236-8.1798-17.0119,3.2261-29.5814,18.9511-30.0926,4.4601-.0353,8.2503,1.6042,11.547,3.6139l-2.0802-1.851-.0705-1.5866-2.5033-1.2869,.0881-2.1155-1.9744-.9696,1.0577-2.3799-2.5033-1.3751,.6523-2.1507c-3.2614-1.9392-7.2279-3.6139-11.212-3.6139h-18.7925s-9.4139,0-9.4139,9.4139v46.5933s0,9.4139,9.4139,9.4139h56.5008c9.4139,0,10.1719-11.4765,10.1719-11.4765-4.7422,2.2918-9.0789,2.9264-13.8916,2.9969-7.1926,.1234-17.5761-1.3751-25.0507-2.4152-6.1701-.9872-11.353-2.1155-15.2667-4.5483,3.0146,1.4808,11.0181,1.7805,13.0631,1.4985h-.0002Z"/></g><path class="cls-1" d="M387.6789,227.642c-35.0464,0-63.4642,26.6021-63.4642,59.4096s28.4179,59.4096,63.4642,59.4096,63.4642-26.6021,63.4642-59.4096-28.4179-59.4096-63.4642-59.4096Zm0,106.7257c-27.9066,0-50.5246-21.19-50.5246-47.3161s22.618-47.2985,50.5246-47.2985,50.5246,21.19,50.5246,47.2985-22.6179,47.3161-50.5246,47.3161h0Z"/><g><path class="cls-4" d="M390.8522,338.0522c27.9066,0,50.5246-21.1724,50.5246-47.2985,0-12.0582-4.8127-23.0587-12.7457-31.4148,6.0291,7.792,9.5725,17.3645,9.5725,27.7127,0,26.1261-22.6179,47.2985-50.5246,47.2985-15.0199,0-28.5237-6.1525-37.7789-15.9013,9.1847,11.8819,24.0988,19.6034,40.9521,19.6034h0Z"/><path class="cls-4" d="M339.7987,326.0645c-7.792-9.8722-12.4108-22.0891-12.4108-35.3108,0-32.8075,28.4179-59.4096,63.4642-59.4096,19.1098,0,36.2451,7.9154,47.8802,20.4143-11.5646-14.632-30.1279-24.1164-51.0535-24.1164-35.0464,0-63.4642,26.6021-63.4642,59.4096,0,14.9317,5.8704,28.5765,15.584,39.0129h.0001Z"/></g></svg>