<?xml version="1.0" encoding="UTF-8"?><svg id="Layer_1" xmlns="http://www.w3.org/2000/svg" viewBox="0 0 720 720"><defs><style>.cls-1{fill:#fc2424;}.cls-2{fill:#0080ff;}.cls-3{fill:#ff7f00;}.cls-4{fill:#4ca03d;}.cls-5{fill:#ab37d1;}.cls-6{fill:#ff0;}</style></defs><rect class="cls-1" x="199.0663" y="207.1666" width="321.8676" height="48.8513"/><rect class="cls-3" x="199.0663" y="256.0179" width="321.8676" height="48.8513"/><rect class="cls-6" x="199.0663" y="304.8793" width="321.8676" height="48.8513"/><rect class="cls-4" x="91.9201" y="369.2384" width="536.1646" height="47.8666"/><rect class="cls-2" x="91.9201" y="417.1049" width="536.1646" height="47.8665"/><rect class="cls-5" x="91.9201" y="464.9614" width="536.1646" height="47.8665"/><g><path d="M0,0V720H720V0H0ZM447.652,207.1666h0c40.4726,0,73.2819,32.8095,73.2819,73.282s-32.8094,73.282-73.282,73.282-73.282-32.8094-73.282-73.282,32.8094-73.282,73.282-73.282h0ZM234.8137,473.5087c0,1.9742-1.6006,3.5746-3.5748,3.5746,0,0-14.2989-.0002-14.299-.0002-9.8713,0-17.8736,8.0022-17.8736,17.8736v14.2993c0,1.9743-1.6005,3.5747-3.5748,3.5747h-32.1726c-38.0328-.0006-69.4087-29.7759-71.3987-67.7566-.0037-.0717-.0052-.1436-.0046-.2154,.018-1.9634,1.6242-3.5406,3.5877-3.5226h28.6695c1.8309-.0075,3.366,1.3814,3.541,3.204,1.6808,18.4161,17.1124,32.5207,35.605,32.5433l26.8105-.0005c4.9356,0,8.9368-4.0011,8.9368-8.9368v-62.5573h-67.9199c-1.9743,0-3.5748-1.6004-3.5748-3.5747v-28.5979c0-1.9743,1.6004-3.5747,3.5747-3.5747h0l.0003-.0002h100.0926c1.9744,0,3.5748,1.6004,3.5748,3.5747v100.0927h-.0001Zm62.558-32.1754v67.92c0,1.9742-1.6006,3.5747-3.5747,3.5747h-28.5981c-1.9742,0-3.5747-1.6006-3.5747-3.5748v-67.9199c0-6.1718,.7823-12.161,2.2526-17.8738h6.6843v-4.4684h4.4684v-4.4684h8.937v8.9369h8.9817v9.0351h5.527c-.7192,2.8271-1.1035,5.7879-1.1035,8.8387h0Zm-8.9368-67.0262v4.4685h8.9366v17.8738h-8.9366v8.9368h-4.4684v-4.4684h-4.4684v4.4684h-8.9369v-4.4684h-4.4685v-4.4685h-4.4684v-23.2358c0-1.9743,1.6005-3.5748,3.5747-3.5748h14.2429c1.5661,0,3.077-.2218,4.5247-.6002v5.0686h4.4683Zm26.7702-129.6101h-8.8967c-4.9356,0-8.9368,4.0011-8.9368,8.9368v58.8963c0,1.9743-1.6005,3.5748-3.5748,3.5748h-28.5979c-1.9744,0-3.5748-1.6005-3.5748-3.5748v-58.8964c0-4.9356-4.0011-8.9368-8.9368-8.9368h-8.9368c-4.9355,0-8.9368,4.0012-8.9368,8.9369v94.7349c0,1.9743-1.6005,3.5747-3.5748,3.5747h-28.5978c-1.9743,0-3.5748-1.6004-3.5748-3.5747V212.5287c0-1.9743,1.6005-3.5747,3.5748-3.5747h117.9662c1.9742,0,3.5747,1.6004,3.5747,3.5747,0,0-.0283,14.2872-.0283,14.299,0,9.8713,8.0023,17.8736,17.8737,17.8736h14.3272c1.9744,0,3.5748,1.6004,3.5748,3.5747v100.0925c0,1.9743-1.6005,3.5747-3.5748,3.5747h-28.5979c-1.9744,0-3.5748-1.6004-3.5748-3.5747l-.04-94.7386c-.002-4.9342-4.0026-8.933-8.9368-8.933h0Zm151.9663,178.7436h-8.9369v4.4684h-13.4053v4.4684h-4.4684v-4.4684h-4.4685v4.4684h-4.4683v-17.8551c-.0002-4.9335-3.9981-8.9335-8.9314-8.9363h-53.632c-4.9335,.0028-8.9314,4.0028-8.9314,8.9363v47.347l2.5629-3.6603,3.6603,2.563,2.563-3.6603-3.6603-2.563,7.689-10.981h0l-3.6603-2.563,5.126-7.3207,70.2937,49.2202c1.6172,1.1324,2.0104,3.3613,.8779,4.9786l-16.4031,23.426c-1.1324,1.6172-3.3614,2.0103-4.9786,.8779l-62.973-44.0942,2.5629-3.6602-3.6603-2.5629v47.3839c0,1.9743-1.6005,3.5748-3.5746,3.5748h-28.5979c-1.9743,0-3.5748-1.6005-3.5748-3.5747v-135.8399c0-1.9743,1.6005-3.5748,3.5747-3.5748h100.0927c1.9741,0,3.5747,1.6005,3.5747,3.5747v14.2799c0,9.862,7.9879,17.8604,17.8499,17.8736l14.3228,.0191h0c1.9742,0,3.5747,1.6003,3.5747,3.5746v14.28h0Zm160.9133,85.8178c0,1.9743-1.6006,3.5748-3.5749,3.5749h-28.5995c-1.974-.0003-3.5742-1.6008-3.574-3.5749h0v-68.9276c.0567-14.1754-8.6118-26.9255-21.8146-32.086-16.6996-6.4156-32.8209-.6024-41.9783,10.9642-2.2886,2.9912-3.8113,6.4963-4.4357,10.2105-.1028,.5854-.154,1.1786-.153,1.7729,.0088,5.6112,4.5648,10.1527,10.1759,10.1438h18.8823c1.9743,0,3.5749,1.6006,3.5749,3.5749v64.3472c0,1.9743-1.6006,3.5748-3.5749,3.5749h-64.3481c-1.9743-.0001-3.5749-1.6006-3.5749-3.5749v-28.5987c0-1.9743,1.6006-3.5748,3.5749-3.5749h23.2374c4.9338-.0002,8.934-3.9981,8.9372-8.9318v-17.8849c-.0032-4.9336-4.0035-8.9316-8.9372-8.9318h-23.1328c-.0696,.0007-.1391-.0007-.2086-.0041-1.9605-.0964-3.4716-1.7639-3.3752-3.7244,2.3102-44.9751,46.1808-78.9666,93.9541-64.3195,29.2816,8.9783,48.945,36.4786,48.945,67.1062v68.864h-.0001Z"/><path d="M447.652,316.1959c19.7335-.0223,35.725-16.0138,35.7473-35.7473,0-19.7427-16.0046-35.7473-35.7473-35.7473s-35.7473,16.0046-35.7473,35.7473,16.0046,35.7473,35.7473,35.7473h0Z"/></g></svg>