<?xml version="1.0" encoding="utf-8"?>
<!-- Generator: Adobe Illustrator 22.0.0, SVG Export Plug-In . SVG Version: 6.00 Build 0)  -->
<svg version="1.1" id="Layer_1" xmlns="http://www.w3.org/2000/svg" xmlns:xlink="http://www.w3.org/1999/xlink" x="0px" y="0px"
	 viewBox="0 0 720 720" style="enable-background:new 0 0 720 720;" xml:space="preserve">
<style type="text/css">
	.st0{fill:#FC2424;}
	.st1{fill:#FF7F00;}
	.st2{fill:#FFFF00;}
	.st3{fill:#4CA03D;}
	.st4{fill:#0071BC;}
	.st5{fill:#6A28AF;}
	.st6{display:none;}
</style>
<rect y="207.2" class="st0" width="720" height="50.9"/>
<rect y="258.1" class="st1" width="720" height="50.9"/>
<rect y="309.1" class="st2" width="720" height="50.9"/>
<rect y="360" class="st3" width="720" height="50.9"/>
<rect y="410.9" class="st4" width="720" height="50.9"/>
<rect y="461.9" class="st5" width="720" height="50.9"/>
<g id="MojangStudios" class="st6">
</g>
<g>
	<path d="M461,316.2c19.6,0,35.5-15.9,35.6-35.6c0-19.7-15.9-35.6-35.6-35.6s-35.6,15.9-35.6,35.6S441.3,316.2,461,316.2z"/>
	<path d="M0,0v720h720V0H0z M461,207.2c40.4,0,73.4,32.8,73.4,73.4c0,40.6-32.8,73.4-73.4,73.4c-40.6,0-73.4-32.8-73.4-73.4
		C387.6,240,420.4,207.2,461,207.2z M227.9,372.5v29.3v71.1c0,1.8-1.5,3.3-3.3,3.3h-14.7c-9.8,0-17.9,8-17.9,17.9v14.7
		c0,1.8-1.5,3.3-3.3,3.3h-32.3c-38.4,0-69.7-30.2-71.4-68.1c0-1.8,1.5-3.3,3.3-3.3h29.4c1.8,0,3.3,1.5,3.3,3.3
		c1.7,18,16.9,32.3,35.5,32.3h17.9h8.8c4.9,0,8.9-4.1,8.9-8.9v-62.1h-67.8c-1.8,0-3.3-1.5-3.3-3.3v-29.3c0-1.8,1.5-3.3,3.3-3.3
		h100.6C226.7,369.4,228.2,370.9,227.9,372.5z M298,440.1v68.3c0,1.8-1.5,3.3-3.3,3.3h-29.3c-1.8,0-3.3-1.5-3.3-3.3v-68.1
		c0-8.4,1.4-16.5,4.1-24h8.5v-7.1h6.3V420h8.7v9.2h10.1C298.6,432.7,297.9,436.4,298,440.1z M288,372.6v3.3h4.3v3h5.8v15.9h-9.6v8.8
		h-8.8v-5.5h-4.9v8.3h-5v-11.6h-7.6v-21.5c0-1.8,1.5-3.3,3.3-3.3h14.7c1.5,0,3-0.4,4.5-0.7v3.3H288z M327.1,245h-8.9
		c-4.9,0-8.9,4.1-8.9,8.9v59c0,1.8-1.5,3.3-3.3,3.3h-29.3c-1.8,0-3.3-1.5-3.3-3.3v-58.8c0-4.9-4.1-8.9-8.9-8.9h-8.9
		c-4.9,0-8.9,4.1-8.9,8.9v94.8c0,1.8-1.5,3.3-3.3,3.3h-29.3c-1.8,0-3.3-1.5-3.3-3.3V212.5c0-1.8,1.5-3.3,3.3-3.3h118.7
		c1.8,0,3.3,1.5,3.3,3.3v14.7c0,9.8,8,17.9,17.9,17.9h14.7c1.8,0,3.3,1.5,3.6,3.2v100.4c0,1.8-1.5,3.3-3.3,3.3h-29.7
		c-1.8,0-3.3-1.5-3.3-3.3v-94.8C336,249,331.9,245,327.1,245z M454.6,487.4l-16.9,24c-1,1.5-3,1.8-4.5,0.8l-63.6-44.6l3-4.1
		l-2.2-1.5l3.2-4.2l2.2,1.5l2.5-3.5l-5-3.5l8-11.4l-4.3-3l4.1-6l72.7,51C455.3,483.9,455.6,485.9,454.6,487.4z M476.7,420.2h-7.3
		v5.1h-13.9v6h-4.3v-2.7h-5.3v2.7h-5.1v-17.1c0-4.9-4-9-9-9h-53.4c-4.9,0-8.9,4.1-8.9,8.9v95c0,1.8-1.5,3.3-3.3,3.3h-29.3
		c-1.8,0-3.3-1.5-3.3-3.3V372.7c0-1.8,1.5-3.3,3.3-3.3h100.6c1.8,0,3.3,1.5,3.3,3.3v14.7c0,9.8,8,17.9,17.9,17.9h14.7
		c1.8,0,3.3,1.5,3.3,3.3V420.2z M634.9,509.1c0,1.8-1.5,3.3-3.3,3.3h-29.3c-1.8,0-3.3-1.5-3.3-3.3v-68.3c0-19.7-16-35.8-35.6-35.7
		c-19.5,0-32.6,15.9-32.6,26.7c0,4.9,4.1,8.9,8.9,8.9h20.5c1.8,0,3.3,1.5,3.3,3.3v35.3c0,0.2,0,0.2,0,0.2v29.3
		c0,1.8-1.5,3.3-3.3,3.3h-65c-1.8,0-3.3-1.5-3.3-3.3v-29.3c0-1.8,1.5-3.3,3.3-3.3h23.5c4.3,0,8-3,8.8-7.1v-21.2
		c-0.8-4-4.5-7.1-8.8-7.1h-23.5c-1.4,0-2.8-1-3.1-2.5c1.3-38.2,32.8-68.9,71.4-68.9c39.4,0,71.4,32,71.4,71.4V509.1z"/>
</g>
</svg>
